STARTFONT 2.1
FONT -Efont-Fixed-Bold-R-Normal--14-140-75-75-C-70-ISO10646-1
SIZE 14 75 75
FONTBOUNDINGBOX 7 14 0 -2
STARTPROPERTIES 18
COPYRIGHT "(c) Copyright 2000-2003 /efont/ The Electronic Font Open Laboratory."
FOUNDRY "Efont"
FAMILY_NAME "Fixed"
WEIGHT_NAME "Bold"
SLANT "R"
SETWIDTH_NAME "Normal"
ADD_STYLE_NAME ""
PIXEL_SIZE 14
POINT_SIZE 140
RESOLUTION_X 75
RESOLUTION_Y 75
AVERAGE_WIDTH 70
CHARSET_REGISTRY "ISO10646"
CHARSET_ENCODING "1"
_MULE_BASELINE_OFFSET -3
FONT_ASCENT 12
FONT_DESCENT 2
DEFAULT_CHAR 32
ENDPROPERTIES
CHARS 2489
STARTCHAR U+0020
ENCODING 32
SWIDTH 500 0
DWIDTH 7 0
BBX 7 14 0 -2
BITMAP 
00
00
00
00
00
00
00
00
00
00
00
00
00
00
ENDCHAR
STARTCHAR U+0021
ENCODING 33
SWIDTH 500 0
DWIDTH 7 0
BBX 7 14 0 -2
BITMAP 
00
00
00
30
30
30
30
30
30
00
30
30
00
00
ENDCHAR
STARTCHAR U+0022
ENCODING 34
SWIDTH 500 0
DWIDTH 7 0
BBX 7 14 0 -2
BITMAP 
00
68
68
68
00
00
00
00
00
00
00
00
00
00
ENDCHAR
STARTCHAR U+0023
ENCODING 35
SWIDTH 500 0
DWIDTH 7 0
BBX 7 14 0 -2
BITMAP 
00
00
00
36
36
fe
6c
6c
6c
fe
d8
d8
00
00
ENDCHAR
STARTCHAR U+0024
ENCODING 36
SWIDTH 500 0
DWIDTH 7 0
BBX 7 14 0 -2
BITMAP 
00
00
00
18
7c
da
d8
68
3c
da
da
7c
18
00
ENDCHAR
STARTCHAR U+0025
ENCODING 37
SWIDTH 500 0
DWIDTH 7 0
BBX 7 14 0 -2
BITMAP 
00
00
00
76
da
dc
78
30
3c
76
d6
dc
00
00
ENDCHAR
STARTCHAR U+0026
ENCODING 38
SWIDTH 500 0
DWIDTH 7 0
BBX 7 14 0 -2
BITMAP 
00
00
00
38
6c
6c
38
76
da
cc
dc
76
00
00
ENDCHAR
STARTCHAR U+0027
ENCODING 39
SWIDTH 500 0
DWIDTH 7 0
BBX 7 14 0 -2
BITMAP 
00
30
30
30
00
00
00
00
00
00
00
00
00
00
ENDCHAR
STARTCHAR U+0028
ENCODING 40
SWIDTH 500 0
DWIDTH 7 0
BBX 7 14 0 -2
BITMAP 
00
00
0c
18
18
30
30
30
30
30
18
18
0c
00
ENDCHAR
STARTCHAR U+0029
ENCODING 41
SWIDTH 500 0
DWIDTH 7 0
BBX 7 14 0 -2
BITMAP 
00
00
c0
60
60
30
30
30
30
30
60
60
c0
00
ENDCHAR
STARTCHAR U+002A
ENCODING 42
SWIDTH 500 0
DWIDTH 7 0
BBX 7 14 0 -2
BITMAP 
00
00
00
00
30
d4
78
30
78
d4
30
00
00
00
ENDCHAR
STARTCHAR U+002B
ENCODING 43
SWIDTH 500 0
DWIDTH 7 0
BBX 7 14 0 -2
BITMAP 
00
00
00
00
30
30
30
fc
30
30
30
00
00
00
ENDCHAR
STARTCHAR U+002C
ENCODING 44
SWIDTH 500 0
DWIDTH 7 0
BBX 7 14 0 -2
BITMAP 
00
00
00
00
00
00
00
00
00
00
38
18
18
30
ENDCHAR
STARTCHAR U+002D
ENCODING 45
SWIDTH 500 0
DWIDTH 7 0
BBX 7 14 0 -2
BITMAP 
00
00
00
00
00
00
00
fc
00
00
00
00
00
00
ENDCHAR
STARTCHAR U+002E
ENCODING 46
SWIDTH 500 0
DWIDTH 7 0
BBX 7 14 0 -2
BITMAP 
00
00
00
00
00
00
00
00
00
00
38
38
00
00
ENDCHAR
STARTCHAR U+002F
ENCODING 47
SWIDTH 500 0
DWIDTH 7 0
BBX 7 14 0 -2
BITMAP 
00
00
00
0c
0c
18
18
30
60
60
c0
c0
00
00
ENDCHAR
STARTCHAR U+0030
ENCODING 48
SWIDTH 500 0
DWIDTH 7 0
BBX 7 14 0 -2
BITMAP 
00
00
00
38
6c
c6
c6
c6
c6
c6
6c
38
00
00
ENDCHAR
STARTCHAR U+0031
ENCODING 49
SWIDTH 500 0
DWIDTH 7 0
BBX 7 14 0 -2
BITMAP 
00
00
00
30
70
d0
30
30
30
30
30
fc
00
00
ENDCHAR
STARTCHAR U+0032
ENCODING 50
SWIDTH 500 0
DWIDTH 7 0
BBX 7 14 0 -2
BITMAP 
00
00
00
7c
c6
c6
06
1c
30
60
c0
fe
00
00
ENDCHAR
STARTCHAR U+0033
ENCODING 51
SWIDTH 500 0
DWIDTH 7 0
BBX 7 14 0 -2
BITMAP 
00
00
00
7c
c6
c6
06
3c
06
c6
c6
7c
00
00
ENDCHAR
STARTCHAR U+0034
ENCODING 52
SWIDTH 500 0
DWIDTH 7 0
BBX 7 14 0 -2
BITMAP 
00
00
00
0c
1c
34
34
6c
cc
fe
0c
0c
00
00
ENDCHAR
STARTCHAR U+0035
ENCODING 53
SWIDTH 500 0
DWIDTH 7 0
BBX 7 14 0 -2
BITMAP 
00
00
00
fe
c0
c0
fc
06
06
06
c6
7c
00
00
ENDCHAR
STARTCHAR U+0036
ENCODING 54
SWIDTH 500 0
DWIDTH 7 0
BBX 7 14 0 -2
BITMAP 
00
00
00
7c
c6
c0
c0
fc
c6
c6
c6
7c
00
00
ENDCHAR
STARTCHAR U+0037
ENCODING 55
SWIDTH 500 0
DWIDTH 7 0
BBX 7 14 0 -2
BITMAP 
00
00
00
fe
06
0c
0c
18
18
30
30
30
00
00
ENDCHAR
STARTCHAR U+0038
ENCODING 56
SWIDTH 500 0
DWIDTH 7 0
BBX 7 14 0 -2
BITMAP 
00
00
00
7c
c6
c6
c6
7c
c6
c6
c6
7c
00
00
ENDCHAR
STARTCHAR U+0039
ENCODING 57
SWIDTH 500 0
DWIDTH 7 0
BBX 7 14 0 -2
BITMAP 
00
00
00
7c
c6
c6
c6
7e
06
c6
c6
7c
00
00
ENDCHAR
STARTCHAR U+003A
ENCODING 58
SWIDTH 500 0
DWIDTH 7 0
BBX 7 14 0 -2
BITMAP 
00
00
00
00
00
38
38
00
00
00
38
38
00
00
ENDCHAR
STARTCHAR U+003B
ENCODING 59
SWIDTH 500 0
DWIDTH 7 0
BBX 7 14 0 -2
BITMAP 
00
00
00
00
00
38
38
00
00
00
38
18
18
30
ENDCHAR
STARTCHAR U+003C
ENCODING 60
SWIDTH 500 0
DWIDTH 7 0
BBX 7 14 0 -2
BITMAP 
00
00
00
00
00
0c
18
30
60
30
18
0c
00
00
ENDCHAR
STARTCHAR U+003D
ENCODING 61
SWIDTH 500 0
DWIDTH 7 0
BBX 7 14 0 -2
BITMAP 
00
00
00
00
00
00
fc
00
00
fc
00
00
00
00
ENDCHAR
STARTCHAR U+003E
ENCODING 62
SWIDTH 500 0
DWIDTH 7 0
BBX 7 14 0 -2
BITMAP 
00
00
00
00
00
60
30
18
0c
18
30
60
00
00
ENDCHAR
STARTCHAR U+003F
ENCODING 63
SWIDTH 500 0
DWIDTH 7 0
BBX 7 14 0 -2
BITMAP 
00
00
00
7c
c6
c6
0c
18
18
00
18
18
00
00
ENDCHAR
STARTCHAR U+0040
ENCODING 64
SWIDTH 500 0
DWIDTH 7 0
BBX 7 14 0 -2
BITMAP 
00
00
00
3c
66
de
d6
d6
d6
de
60
3e
00
00
ENDCHAR
STARTCHAR U+0041
ENCODING 65
SWIDTH 500 0
DWIDTH 7 0
BBX 7 14 0 -2
BITMAP 
00
00
00
38
6c
c6
c6
fe
c6
c6
c6
c6
00
00
ENDCHAR
STARTCHAR U+0042
ENCODING 66
SWIDTH 500 0
DWIDTH 7 0
BBX 7 14 0 -2
BITMAP 
00
00
00
fc
66
66
66
7c
66
66
66
fc
00
00
ENDCHAR
STARTCHAR U+0043
ENCODING 67
SWIDTH 500 0
DWIDTH 7 0
BBX 7 14 0 -2
BITMAP 
00
00
00
7c
c6
c6
c0
c0
c0
c6
c6
7c
00
00
ENDCHAR
STARTCHAR U+0044
ENCODING 68
SWIDTH 500 0
DWIDTH 7 0
BBX 7 14 0 -2
BITMAP 
00
00
00
fc
66
66
66
66
66
66
66
fc
00
00
ENDCHAR
STARTCHAR U+0045
ENCODING 69
SWIDTH 500 0
DWIDTH 7 0
BBX 7 14 0 -2
BITMAP 
00
00
00
fe
c0
c0
c0
fc
c0
c0
c0
fe
00
00
ENDCHAR
STARTCHAR U+0046
ENCODING 70
SWIDTH 500 0
DWIDTH 7 0
BBX 7 14 0 -2
BITMAP 
00
00
00
fe
c0
c0
c0
fc
c0
c0
c0
c0
00
00
ENDCHAR
STARTCHAR U+0047
ENCODING 71
SWIDTH 500 0
DWIDTH 7 0
BBX 7 14 0 -2
BITMAP 
00
00
00
7c
c6
c0
c0
de
c6
c6
ce
7a
00
00
ENDCHAR
STARTCHAR U+0048
ENCODING 72
SWIDTH 500 0
DWIDTH 7 0
BBX 7 14 0 -2
BITMAP 
00
00
00
c6
c6
c6
c6
fe
c6
c6
c6
c6
00
00
ENDCHAR
STARTCHAR U+0049
ENCODING 73
SWIDTH 500 0
DWIDTH 7 0
BBX 7 14 0 -2
BITMAP 
00
00
00
fc
30
30
30
30
30
30
30
fc
00
00
ENDCHAR
STARTCHAR U+004A
ENCODING 74
SWIDTH 500 0
DWIDTH 7 0
BBX 7 14 0 -2
BITMAP 
00
00
00
1e
0c
0c
0c
0c
0c
cc
cc
78
00
00
ENDCHAR
STARTCHAR U+004B
ENCODING 75
SWIDTH 500 0
DWIDTH 7 0
BBX 7 14 0 -2
BITMAP 
00
00
00
c6
cc
d8
d0
e0
d0
d8
cc
c6
00
00
ENDCHAR
STARTCHAR U+004C
ENCODING 76
SWIDTH 500 0
DWIDTH 7 0
BBX 7 14 0 -2
BITMAP 
00
00
00
c0
c0
c0
c0
c0
c0
c0
c0
fe
00
00
ENDCHAR
STARTCHAR U+004D
ENCODING 77
SWIDTH 500 0
DWIDTH 7 0
BBX 7 14 0 -2
BITMAP 
00
00
00
c6
ee
ee
da
da
c6
c6
c6
c6
00
00
ENDCHAR
STARTCHAR U+004E
ENCODING 78
SWIDTH 500 0
DWIDTH 7 0
BBX 7 14 0 -2
BITMAP 
00
00
00
e6
e6
d6
d6
da
da
ce
ce
c6
00
00
ENDCHAR
STARTCHAR U+004F
ENCODING 79
SWIDTH 500 0
DWIDTH 7 0
BBX 7 14 0 -2
BITMAP 
00
00
00
7c
c6
c6
c6
c6
c6
c6
c6
7c
00
00
ENDCHAR
STARTCHAR U+0050
ENCODING 80
SWIDTH 500 0
DWIDTH 7 0
BBX 7 14 0 -2
BITMAP 
00
00
00
fc
c6
c6
c6
fc
c0
c0
c0
c0
00
00
ENDCHAR
STARTCHAR U+0051
ENCODING 81
SWIDTH 500 0
DWIDTH 7 0
BBX 7 14 0 -2
BITMAP 
00
00
00
7c
c6
c6
c6
c6
f6
da
ce
7c
0c
06
ENDCHAR
STARTCHAR U+0052
ENCODING 82
SWIDTH 500 0
DWIDTH 7 0
BBX 7 14 0 -2
BITMAP 
00
00
00
fc
c6
c6
c6
fc
d8
cc
c6
c6
00
00
ENDCHAR
STARTCHAR U+0053
ENCODING 83
SWIDTH 500 0
DWIDTH 7 0
BBX 7 14 0 -2
BITMAP 
00
00
00
7c
c6
c0
70
1c
06
c6
c6
7c
00
00
ENDCHAR
STARTCHAR U+0054
ENCODING 84
SWIDTH 500 0
DWIDTH 7 0
BBX 7 14 0 -2
BITMAP 
00
00
00
fe
30
30
30
30
30
30
30
30
00
00
ENDCHAR
STARTCHAR U+0055
ENCODING 85
SWIDTH 500 0
DWIDTH 7 0
BBX 7 14 0 -2
BITMAP 
00
00
00
c6
c6
c6
c6
c6
c6
c6
c6
7c
00
00
ENDCHAR
STARTCHAR U+0056
ENCODING 86
SWIDTH 500 0
DWIDTH 7 0
BBX 7 14 0 -2
BITMAP 
00
00
00
c6
c6
c6
6c
6c
6c
38
38
38
00
00
ENDCHAR
STARTCHAR U+0057
ENCODING 87
SWIDTH 500 0
DWIDTH 7 0
BBX 7 14 0 -2
BITMAP 
00
00
00
c6
c6
c6
c6
da
da
ee
ee
c6
00
00
ENDCHAR
STARTCHAR U+0058
ENCODING 88
SWIDTH 500 0
DWIDTH 7 0
BBX 7 14 0 -2
BITMAP 
00
00
00
c6
c6
6c
6c
38
6c
6c
c6
c6
00
00
ENDCHAR
STARTCHAR U+0059
ENCODING 89
SWIDTH 500 0
DWIDTH 7 0
BBX 7 14 0 -2
BITMAP 
00
00
00
cc
cc
cc
cc
68
30
30
30
30
00
00
ENDCHAR
STARTCHAR U+005A
ENCODING 90
SWIDTH 500 0
DWIDTH 7 0
BBX 7 14 0 -2
BITMAP 
00
00
00
fe
06
0c
18
30
60
c0
c0
fe
00
00
ENDCHAR
STARTCHAR U+005B
ENCODING 91
SWIDTH 500 0
DWIDTH 7 0
BBX 7 14 0 -2
BITMAP 
00
00
3c
30
30
30
30
30
30
30
30
30
3c
00
ENDCHAR
STARTCHAR U+005C
ENCODING 92
SWIDTH 500 0
DWIDTH 7 0
BBX 7 14 0 -2
BITMAP 
00
00
00
c0
c0
60
60
30
18
18
0c
0c
00
00
ENDCHAR
STARTCHAR U+005D
ENCODING 93
SWIDTH 500 0
DWIDTH 7 0
BBX 7 14 0 -2
BITMAP 
00
00
f0
30
30
30
30
30
30
30
30
30
f0
00
ENDCHAR
STARTCHAR U+005E
ENCODING 94
SWIDTH 500 0
DWIDTH 7 0
BBX 7 14 0 -2
BITMAP 
00
38
6c
c6
00
00
00
00
00
00
00
00
00
00
ENDCHAR
STARTCHAR U+005F
ENCODING 95
SWIDTH 500 0
DWIDTH 7 0
BBX 7 14 0 -2
BITMAP 
00
00
00
00
00
00
00
00
00
00
00
00
fe
00
ENDCHAR
STARTCHAR U+0060
ENCODING 96
SWIDTH 500 0
DWIDTH 7 0
BBX 7 14 0 -2
BITMAP 
00
00
38
30
30
18
00
00
00
00
00
00
00
00
ENDCHAR
STARTCHAR U+0061
ENCODING 97
SWIDTH 500 0
DWIDTH 7 0
BBX 7 14 0 -2
BITMAP 
00
00
00
00
00
7c
c6
1e
76
c6
ce
7a
00
00
ENDCHAR
STARTCHAR U+0062
ENCODING 98
SWIDTH 500 0
DWIDTH 7 0
BBX 7 14 0 -2
BITMAP 
00
00
00
c0
c0
dc
e6
c6
c6
c6
e6
dc
00
00
ENDCHAR
STARTCHAR U+0063
ENCODING 99
SWIDTH 500 0
DWIDTH 7 0
BBX 7 14 0 -2
BITMAP 
00
00
00
00
00
7c
c6
c0
c0
c0
c6
7c
00
00
ENDCHAR
STARTCHAR U+0064
ENCODING 100
SWIDTH 500 0
DWIDTH 7 0
BBX 7 14 0 -2
BITMAP 
00
00
00
06
06
7a
ce
c6
c6
c6
ce
7a
00
00
ENDCHAR
STARTCHAR U+0065
ENCODING 101
SWIDTH 500 0
DWIDTH 7 0
BBX 7 14 0 -2
BITMAP 
00
00
00
00
00
7c
c6
c6
fe
c0
c6
7c
00
00
ENDCHAR
STARTCHAR U+0066
ENCODING 102
SWIDTH 500 0
DWIDTH 7 0
BBX 7 14 0 -2
BITMAP 
00
00
00
1c
30
30
fc
30
30
30
30
30
00
00
ENDCHAR
STARTCHAR U+0067
ENCODING 103
SWIDTH 500 0
DWIDTH 7 0
BBX 7 14 0 -2
BITMAP 
00
00
00
00
00
7a
cc
cc
cc
78
60
dc
c6
7c
ENDCHAR
STARTCHAR U+0068
ENCODING 104
SWIDTH 500 0
DWIDTH 7 0
BBX 7 14 0 -2
BITMAP 
00
00
00
c0
c0
dc
e6
c6
c6
c6
c6
c6
00
00
ENDCHAR
STARTCHAR U+0069
ENCODING 105
SWIDTH 500 0
DWIDTH 7 0
BBX 7 14 0 -2
BITMAP 
00
00
30
30
00
70
30
30
30
30
30
fc
00
00
ENDCHAR
STARTCHAR U+006A
ENCODING 106
SWIDTH 500 0
DWIDTH 7 0
BBX 7 14 0 -2
BITMAP 
00
00
0c
0c
00
1c
0c
0c
0c
0c
0c
cc
cc
78
ENDCHAR
STARTCHAR U+006B
ENCODING 107
SWIDTH 500 0
DWIDTH 7 0
BBX 7 14 0 -2
BITMAP 
00
00
00
c0
c0
cc
d8
d0
e0
d0
d8
cc
00
00
ENDCHAR
STARTCHAR U+006C
ENCODING 108
SWIDTH 500 0
DWIDTH 7 0
BBX 7 14 0 -2
BITMAP 
00
00
00
70
30
30
30
30
30
30
30
fc
00
00
ENDCHAR
STARTCHAR U+006D
ENCODING 109
SWIDTH 500 0
DWIDTH 7 0
BBX 7 14 0 -2
BITMAP 
00
00
00
00
00
e8
d4
d4
d4
d4
d4
cc
00
00
ENDCHAR
STARTCHAR U+006E
ENCODING 110
SWIDTH 500 0
DWIDTH 7 0
BBX 7 14 0 -2
BITMAP 
00
00
00
00
00
dc
e6
c6
c6
c6
c6
c6
00
00
ENDCHAR
STARTCHAR U+006F
ENCODING 111
SWIDTH 500 0
DWIDTH 7 0
BBX 7 14 0 -2
BITMAP 
00
00
00
00
00
7c
c6
c6
c6
c6
c6
7c
00
00
ENDCHAR
STARTCHAR U+0070
ENCODING 112
SWIDTH 500 0
DWIDTH 7 0
BBX 7 14 0 -2
BITMAP 
00
00
00
00
00
dc
e6
c6
c6
c6
e6
dc
c0
c0
ENDCHAR
STARTCHAR U+0071
ENCODING 113
SWIDTH 500 0
DWIDTH 7 0
BBX 7 14 0 -2
BITMAP 
00
00
00
00
00
7a
ce
c6
c6
c6
ce
7a
06
06
ENDCHAR
STARTCHAR U+0072
ENCODING 114
SWIDTH 500 0
DWIDTH 7 0
BBX 7 14 0 -2
BITMAP 
00
00
00
00
00
dc
e6
c6
c0
c0
c0
c0
00
00
ENDCHAR
STARTCHAR U+0073
ENCODING 115
SWIDTH 500 0
DWIDTH 7 0
BBX 7 14 0 -2
BITMAP 
00
00
00
00
00
7c
c6
c0
7c
06
c6
7c
00
00
ENDCHAR
STARTCHAR U+0074
ENCODING 116
SWIDTH 500 0
DWIDTH 7 0
BBX 7 14 0 -2
BITMAP 
00
00
00
30
30
fc
30
30
30
30
36
1c
00
00
ENDCHAR
STARTCHAR U+0075
ENCODING 117
SWIDTH 500 0
DWIDTH 7 0
BBX 7 14 0 -2
BITMAP 
00
00
00
00
00
c6
c6
c6
c6
c6
ce
7a
00
00
ENDCHAR
STARTCHAR U+0076
ENCODING 118
SWIDTH 500 0
DWIDTH 7 0
BBX 7 14 0 -2
BITMAP 
00
00
00
00
00
cc
cc
cc
68
68
30
30
00
00
ENDCHAR
STARTCHAR U+0077
ENCODING 119
SWIDTH 500 0
DWIDTH 7 0
BBX 7 14 0 -2
BITMAP 
00
00
00
00
00
cc
d4
d4
d4
d4
d4
68
00
00
ENDCHAR
STARTCHAR U+0078
ENCODING 120
SWIDTH 500 0
DWIDTH 7 0
BBX 7 14 0 -2
BITMAP 
00
00
00
00
00
cc
cc
68
30
68
cc
cc
00
00
ENDCHAR
STARTCHAR U+0079
ENCODING 121
SWIDTH 500 0
DWIDTH 7 0
BBX 7 14 0 -2
BITMAP 
00
00
00
00
00
c6
c6
c6
c6
ce
7a
06
06
7c
ENDCHAR
STARTCHAR U+007A
ENCODING 122
SWIDTH 500 0
DWIDTH 7 0
BBX 7 14 0 -2
BITMAP 
00
00
00
00
00
fe
0c
18
30
60
c0
fe
00
00
ENDCHAR
STARTCHAR U+007B
ENCODING 123
SWIDTH 500 0
DWIDTH 7 0
BBX 7 14 0 -2
BITMAP 
00
00
1c
30
30
18
18
30
18
18
30
30
1c
00
ENDCHAR
STARTCHAR U+007C
ENCODING 124
SWIDTH 500 0
DWIDTH 7 0
BBX 7 14 0 -2
BITMAP 
00
30
30
30
30
30
30
30
30
30
30
30
30
30
ENDCHAR
STARTCHAR U+007D
ENCODING 125
SWIDTH 500 0
DWIDTH 7 0
BBX 7 14 0 -2
BITMAP 
00
00
e0
30
30
60
60
30
60
60
30
30
e0
00
ENDCHAR
STARTCHAR U+007E
ENCODING 126
SWIDTH 500 0
DWIDTH 7 0
BBX 7 14 0 -2
BITMAP 
00
00
00
76
dc
00
00
00
00
00
00
00
00
00
ENDCHAR
STARTCHAR U+00A0
ENCODING 160
SWIDTH 500 0
DWIDTH 7 0
BBX 7 14 0 -2
BITMAP 
00
00
00
00
00
00
00
00
00
00
00
00
00
00
ENDCHAR
STARTCHAR U+00A1
ENCODING 161
SWIDTH 500 0
DWIDTH 7 0
BBX 7 14 0 -2
BITMAP 
00
00
00
30
30
00
30
30
30
30
30
30
00
00
ENDCHAR
STARTCHAR U+00A2
ENCODING 162
SWIDTH 500 0
DWIDTH 7 0
BBX 7 14 0 -2
BITMAP 
00
00
00
00
30
78
d4
d0
d0
d0
d4
78
30
00
ENDCHAR
STARTCHAR U+00A3
ENCODING 163
SWIDTH 500 0
DWIDTH 7 0
BBX 7 14 0 -2
BITMAP 
00
00
00
38
6c
60
60
f8
60
60
78
ec
00
00
ENDCHAR
STARTCHAR U+00A4
ENCODING 164
SWIDTH 500 0
DWIDTH 7 0
BBX 7 14 0 -2
BITMAP 
00
00
00
00
c6
7c
6c
6c
7c
c6
00
00
00
00
ENDCHAR
STARTCHAR U+00A5
ENCODING 165
SWIDTH 500 0
DWIDTH 7 0
BBX 7 14 0 -2
BITMAP 
00
00
00
cc
68
30
fc
30
fc
30
30
30
00
00
ENDCHAR
STARTCHAR U+00A6
ENCODING 166
SWIDTH 500 0
DWIDTH 7 0
BBX 7 14 0 -2
BITMAP 
00
00
30
30
30
30
00
00
30
30
30
30
00
00
ENDCHAR
STARTCHAR U+00A7
ENCODING 167
SWIDTH 500 0
DWIDTH 7 0
BBX 7 14 0 -2
BITMAP 
00
00
78
cc
c0
78
cc
cc
78
0c
cc
78
00
00
ENDCHAR
STARTCHAR U+00A8
ENCODING 168
SWIDTH 500 0
DWIDTH 7 0
BBX 7 14 0 -2
BITMAP 
00
6c
6c
00
00
00
00
00
00
00
00
00
00
00
ENDCHAR
STARTCHAR U+00A9
ENCODING 169
SWIDTH 500 0
DWIDTH 7 0
BBX 7 14 0 -2
BITMAP 
00
7c
c6
da
ee
e6
e6
e6
ee
da
c6
7c
00
00
ENDCHAR
STARTCHAR U+00AA
ENCODING 170
SWIDTH 500 0
DWIDTH 7 0
BBX 7 14 0 -2
BITMAP 
00
3c
66
3e
66
6e
3a
00
7e
00
00
00
00
00
ENDCHAR
STARTCHAR U+00AB
ENCODING 171
SWIDTH 500 0
DWIDTH 7 0
BBX 7 14 0 -2
BITMAP 
00
00
00
00
00
1a
34
68
d0
68
34
1a
00
00
ENDCHAR
STARTCHAR U+00AC
ENCODING 172
SWIDTH 500 0
DWIDTH 7 0
BBX 7 14 0 -2
BITMAP 
00
00
00
00
00
00
00
00
f8
18
18
18
00
00
ENDCHAR
STARTCHAR U+00AD
ENCODING 173
SWIDTH 500 0
DWIDTH 7 0
BBX 7 14 0 -2
BITMAP 
00
00
00
00
00
00
00
fc
00
00
00
00
00
00
ENDCHAR
STARTCHAR U+00AE
ENCODING 174
SWIDTH 500 0
DWIDTH 7 0
BBX 7 14 0 -2
BITMAP 
00
7c
c6
fa
ee
ee
fa
ee
ee
ee
c6
7c
00
00
ENDCHAR
STARTCHAR U+00AF
ENCODING 175
SWIDTH 500 0
DWIDTH 7 0
BBX 7 14 0 -2
BITMAP 
7c
00
00
00
00
00
00
00
00
00
00
00
00
00
ENDCHAR
STARTCHAR U+00B0
ENCODING 176
SWIDTH 500 0
DWIDTH 7 0
BBX 7 14 0 -2
BITMAP 
38
6c
38
00
00
00
00
00
00
00
00
00
00
00
ENDCHAR
STARTCHAR U+00B1
ENCODING 177
SWIDTH 500 0
DWIDTH 7 0
BBX 7 14 0 -2
BITMAP 
00
00
00
00
00
30
30
fc
30
30
00
fc
00
00
ENDCHAR
STARTCHAR U+00B2
ENCODING 178
SWIDTH 500 0
DWIDTH 7 0
BBX 7 14 0 -2
BITMAP 
00
38
6c
0c
18
30
60
7c
00
00
00
00
00
00
ENDCHAR
STARTCHAR U+00B3
ENCODING 179
SWIDTH 500 0
DWIDTH 7 0
BBX 7 14 0 -2
BITMAP 
00
38
6c
0c
38
0c
6c
38
00
00
00
00
00
00
ENDCHAR
STARTCHAR U+00B4
ENCODING 180
SWIDTH 500 0
DWIDTH 7 0
BBX 7 14 0 -2
BITMAP 
00
1c
70
00
00
00
00
00
00
00
00
00
00
00
ENDCHAR
STARTCHAR U+00B5
ENCODING 181
SWIDTH 500 0
DWIDTH 7 0
BBX 7 14 0 -2
BITMAP 
00
00
00
00
00
00
cc
cc
cc
cc
ec
d4
c0
c0
ENDCHAR
STARTCHAR U+00B6
ENCODING 182
SWIDTH 500 0
DWIDTH 7 0
BBX 7 14 0 -2
BITMAP 
00
00
7e
fa
fa
fa
fa
7a
1a
1a
1a
1a
1a
1e
ENDCHAR
STARTCHAR U+00B7
ENCODING 183
SWIDTH 500 0
DWIDTH 7 0
BBX 7 14 0 -2
BITMAP 
00
00
00
00
00
00
30
78
30
00
00
00
00
00
ENDCHAR
STARTCHAR U+00B8
ENCODING 184
SWIDTH 500 0
DWIDTH 7 0
BBX 7 14 0 -2
BITMAP 
00
00
00
00
00
00
00
00
00
00
00
00
18
30
ENDCHAR
STARTCHAR U+00B9
ENCODING 185
SWIDTH 500 0
DWIDTH 7 0
BBX 7 14 0 -2
BITMAP 
00
00
30
70
30
30
30
30
00
00
00
00
00
00
ENDCHAR
STARTCHAR U+00BA
ENCODING 186
SWIDTH 500 0
DWIDTH 7 0
BBX 7 14 0 -2
BITMAP 
00
00
38
6c
6c
38
00
7c
00
00
00
00
00
00
ENDCHAR
STARTCHAR U+00BB
ENCODING 187
SWIDTH 500 0
DWIDTH 7 0
BBX 7 14 0 -2
BITMAP 
00
00
00
00
00
d0
68
34
1a
34
68
d0
00
00
ENDCHAR
STARTCHAR U+00BC
ENCODING 188
SWIDTH 500 0
DWIDTH 7 0
BBX 7 14 0 -2
BITMAP 
00
00
60
e6
6c
6c
68
36
36
6a
de
c6
00
00
ENDCHAR
STARTCHAR U+00BD
ENCODING 189
SWIDTH 500 0
DWIDTH 7 0
BBX 7 14 0 -2
BITMAP 
00
00
60
e6
6c
6c
68
34
3a
66
cc
de
00
00
ENDCHAR
STARTCHAR U+00BE
ENCODING 190
SWIDTH 500 0
DWIDTH 7 0
BBX 7 14 0 -2
BITMAP 
00
00
e6
36
6c
38
e8
36
6e
6a
de
06
00
00
ENDCHAR
STARTCHAR U+00BF
ENCODING 191
SWIDTH 500 0
DWIDTH 7 0
BBX 7 14 0 -2
BITMAP 
00
00
30
30
00
30
30
30
60
c6
c6
7c
00
00
ENDCHAR
STARTCHAR U+00C0
ENCODING 192
SWIDTH 500 0
DWIDTH 7 0
BBX 7 14 0 -2
BITMAP 
70
1c
00
38
6c
c6
c6
fe
c6
c6
c6
c6
00
00
ENDCHAR
STARTCHAR U+00C1
ENCODING 193
SWIDTH 500 0
DWIDTH 7 0
BBX 7 14 0 -2
BITMAP 
1c
70
00
38
6c
c6
c6
fe
c6
c6
c6
c6
00
00
ENDCHAR
STARTCHAR U+00C2
ENCODING 194
SWIDTH 500 0
DWIDTH 7 0
BBX 7 14 0 -2
BITMAP 
38
6c
00
38
6c
c6
c6
fe
c6
c6
c6
c6
00
00
ENDCHAR
STARTCHAR U+00C3
ENCODING 195
SWIDTH 500 0
DWIDTH 7 0
BBX 7 14 0 -2
BITMAP 
76
dc
00
38
6c
c6
c6
fe
c6
c6
c6
c6
00
00
ENDCHAR
STARTCHAR U+00C4
ENCODING 196
SWIDTH 500 0
DWIDTH 7 0
BBX 7 14 0 -2
BITMAP 
6c
6c
00
38
6c
c6
c6
fe
c6
c6
c6
c6
00
00
ENDCHAR
STARTCHAR U+00C5
ENCODING 197
SWIDTH 500 0
DWIDTH 7 0
BBX 7 14 0 -2
BITMAP 
38
6c
38
38
6c
c6
c6
fe
c6
c6
c6
c6
00
00
ENDCHAR
STARTCHAR U+00C6
ENCODING 198
SWIDTH 500 0
DWIDTH 7 0
BBX 7 14 0 -2
BITMAP 
00
00
00
3e
68
d8
d8
fe
d8
d8
d8
de
00
00
ENDCHAR
STARTCHAR U+00C7
ENCODING 199
SWIDTH 500 0
DWIDTH 7 0
BBX 7 14 0 -2
BITMAP 
00
00
00
7c
c6
c6
c0
c0
c0
c6
c6
7c
18
30
ENDCHAR
STARTCHAR U+00C8
ENCODING 200
SWIDTH 500 0
DWIDTH 7 0
BBX 7 14 0 -2
BITMAP 
70
1c
00
fe
c0
c0
c0
fc
c0
c0
c0
fe
00
00
ENDCHAR
STARTCHAR U+00C9
ENCODING 201
SWIDTH 500 0
DWIDTH 7 0
BBX 7 14 0 -2
BITMAP 
1c
70
00
fe
c0
c0
c0
fc
c0
c0
c0
fe
00
00
ENDCHAR
STARTCHAR U+00CA
ENCODING 202
SWIDTH 500 0
DWIDTH 7 0
BBX 7 14 0 -2
BITMAP 
38
6c
00
fe
c0
c0
c0
fc
c0
c0
c0
fe
00
00
ENDCHAR
STARTCHAR U+00CB
ENCODING 203
SWIDTH 500 0
DWIDTH 7 0
BBX 7 14 0 -2
BITMAP 
6c
6c
00
fe
c0
c0
c0
fc
c0
c0
c0
fe
00
00
ENDCHAR
STARTCHAR U+00CC
ENCODING 204
SWIDTH 500 0
DWIDTH 7 0
BBX 7 14 0 -2
BITMAP 
e0
38
00
fc
30
30
30
30
30
30
30
fc
00
00
ENDCHAR
STARTCHAR U+00CD
ENCODING 205
SWIDTH 500 0
DWIDTH 7 0
BBX 7 14 0 -2
BITMAP 
1c
70
00
fc
30
30
30
30
30
30
30
fc
00
00
ENDCHAR
STARTCHAR U+00CE
ENCODING 206
SWIDTH 500 0
DWIDTH 7 0
BBX 7 14 0 -2
BITMAP 
38
6c
00
fc
30
30
30
30
30
30
30
fc
00
00
ENDCHAR
STARTCHAR U+00CF
ENCODING 207
SWIDTH 500 0
DWIDTH 7 0
BBX 7 14 0 -2
BITMAP 
68
68
00
fc
30
30
30
30
30
30
30
fc
00
00
ENDCHAR
STARTCHAR U+00D0
ENCODING 208
SWIDTH 500 0
DWIDTH 7 0
BBX 7 14 0 -2
BITMAP 
00
00
00
f8
cc
c6
c6
f6
c6
c6
cc
f8
00
00
ENDCHAR
STARTCHAR U+00D1
ENCODING 209
SWIDTH 500 0
DWIDTH 7 0
BBX 7 14 0 -2
BITMAP 
76
dc
00
e6
e6
d6
d6
da
da
da
ce
ce
00
00
ENDCHAR
STARTCHAR U+00D2
ENCODING 210
SWIDTH 500 0
DWIDTH 7 0
BBX 7 14 0 -2
BITMAP 
70
1c
00
7c
c6
c6
c6
c6
c6
c6
c6
7c
00
00
ENDCHAR
STARTCHAR U+00D3
ENCODING 211
SWIDTH 500 0
DWIDTH 7 0
BBX 7 14 0 -2
BITMAP 
1c
70
00
7c
c6
c6
c6
c6
c6
c6
c6
7c
00
00
ENDCHAR
STARTCHAR U+00D4
ENCODING 212
SWIDTH 500 0
DWIDTH 7 0
BBX 7 14 0 -2
BITMAP 
38
6c
00
7c
c6
c6
c6
c6
c6
c6
c6
7c
00
00
ENDCHAR
STARTCHAR U+00D5
ENCODING 213
SWIDTH 500 0
DWIDTH 7 0
BBX 7 14 0 -2
BITMAP 
76
dc
00
7c
c6
c6
c6
c6
c6
c6
c6
7c
00
00
ENDCHAR
STARTCHAR U+00D6
ENCODING 214
SWIDTH 500 0
DWIDTH 7 0
BBX 7 14 0 -2
BITMAP 
6c
6c
00
7c
c6
c6
c6
c6
c6
c6
c6
7c
00
00
ENDCHAR
STARTCHAR U+00D7
ENCODING 215
SWIDTH 500 0
DWIDTH 7 0
BBX 7 14 0 -2
BITMAP 
00
00
00
00
00
cc
68
30
68
cc
00
00
00
00
ENDCHAR
STARTCHAR U+00D8
ENCODING 216
SWIDTH 500 0
DWIDTH 7 0
BBX 7 14 0 -2
BITMAP 
00
00
06
7c
ce
da
da
da
d6
d6
e6
7c
c0
00
ENDCHAR
STARTCHAR U+00D9
ENCODING 217
SWIDTH 500 0
DWIDTH 7 0
BBX 7 14 0 -2
BITMAP 
70
1c
00
c6
c6
c6
c6
c6
c6
c6
c6
7c
00
00
ENDCHAR
STARTCHAR U+00DA
ENCODING 218
SWIDTH 500 0
DWIDTH 7 0
BBX 7 14 0 -2
BITMAP 
1c
70
00
c6
c6
c6
c6
c6
c6
c6
c6
7c
00
00
ENDCHAR
STARTCHAR U+00DB
ENCODING 219
SWIDTH 500 0
DWIDTH 7 0
BBX 7 14 0 -2
BITMAP 
38
6c
00
c6
c6
c6
c6
c6
c6
c6
c6
7c
00
00
ENDCHAR
STARTCHAR U+00DC
ENCODING 220
SWIDTH 500 0
DWIDTH 7 0
BBX 7 14 0 -2
BITMAP 
6c
6c
00
c6
c6
c6
c6
c6
c6
c6
c6
7c
00
00
ENDCHAR
STARTCHAR U+00DD
ENCODING 221
SWIDTH 500 0
DWIDTH 7 0
BBX 7 14 0 -2
BITMAP 
1c
70
00
cc
cc
68
68
30
30
30
30
30
00
00
ENDCHAR
STARTCHAR U+00DE
ENCODING 222
SWIDTH 500 0
DWIDTH 7 0
BBX 7 14 0 -2
BITMAP 
00
00
c0
c0
fc
c6
c6
c6
fc
c0
c0
c0
00
00
ENDCHAR
STARTCHAR U+00DF
ENCODING 223
SWIDTH 500 0
DWIDTH 7 0
BBX 7 14 0 -2
BITMAP 
00
00
00
78
cc
cc
cc
dc
c6
c6
e6
dc
00
00
ENDCHAR
STARTCHAR U+00E0
ENCODING 224
SWIDTH 500 0
DWIDTH 7 0
BBX 7 14 0 -2
BITMAP 
00
00
70
1c
00
7c
c6
1e
76
c6
ce
7a
00
00
ENDCHAR
STARTCHAR U+00E1
ENCODING 225
SWIDTH 500 0
DWIDTH 7 0
BBX 7 14 0 -2
BITMAP 
00
00
1c
70
00
7c
c6
1e
76
c6
ce
7a
00
00
ENDCHAR
STARTCHAR U+00E2
ENCODING 226
SWIDTH 500 0
DWIDTH 7 0
BBX 7 14 0 -2
BITMAP 
00
00
38
6c
00
7c
c6
1e
76
c6
ce
7a
00
00
ENDCHAR
STARTCHAR U+00E3
ENCODING 227
SWIDTH 500 0
DWIDTH 7 0
BBX 7 14 0 -2
BITMAP 
00
00
76
dc
00
7c
c6
1e
76
c6
ce
7a
00
00
ENDCHAR
STARTCHAR U+00E4
ENCODING 228
SWIDTH 500 0
DWIDTH 7 0
BBX 7 14 0 -2
BITMAP 
00
00
6c
6c
00
7c
c6
1e
76
c6
ce
7a
00
00
ENDCHAR
STARTCHAR U+00E5
ENCODING 229
SWIDTH 500 0
DWIDTH 7 0
BBX 7 14 0 -2
BITMAP 
00
38
6c
38
00
7c
c6
1e
76
c6
ce
7a
00
00
ENDCHAR
STARTCHAR U+00E6
ENCODING 230
SWIDTH 500 0
DWIDTH 7 0
BBX 7 14 0 -2
BITMAP 
00
00
00
00
00
7c
da
1a
7e
d8
d8
7e
00
00
ENDCHAR
STARTCHAR U+00E7
ENCODING 231
SWIDTH 500 0
DWIDTH 7 0
BBX 7 14 0 -2
BITMAP 
00
00
00
00
00
7c
c6
c0
c0
c0
c6
7c
18
30
ENDCHAR
STARTCHAR U+00E8
ENCODING 232
SWIDTH 500 0
DWIDTH 7 0
BBX 7 14 0 -2
BITMAP 
00
00
70
1c
00
7c
c6
c6
fe
c0
c6
7c
00
00
ENDCHAR
STARTCHAR U+00E9
ENCODING 233
SWIDTH 500 0
DWIDTH 7 0
BBX 7 14 0 -2
BITMAP 
00
00
1c
70
00
7c
c6
c6
fe
c0
c6
7c
00
00
ENDCHAR
STARTCHAR U+00EA
ENCODING 234
SWIDTH 500 0
DWIDTH 7 0
BBX 7 14 0 -2
BITMAP 
00
00
38
6c
00
7c
c6
c6
fe
c0
c6
7c
00
00
ENDCHAR
STARTCHAR U+00EB
ENCODING 235
SWIDTH 500 0
DWIDTH 7 0
BBX 7 14 0 -2
BITMAP 
00
00
6c
6c
00
7c
c6
c6
fe
c0
c6
7c
00
00
ENDCHAR
STARTCHAR U+00EC
ENCODING 236
SWIDTH 500 0
DWIDTH 7 0
BBX 7 14 0 -2
BITMAP 
00
00
e0
38
00
70
30
30
30
30
30
fc
00
00
ENDCHAR
STARTCHAR U+00ED
ENCODING 237
SWIDTH 500 0
DWIDTH 7 0
BBX 7 14 0 -2
BITMAP 
00
00
38
e0
00
70
30
30
30
30
30
fc
00
00
ENDCHAR
STARTCHAR U+00EE
ENCODING 238
SWIDTH 500 0
DWIDTH 7 0
BBX 7 14 0 -2
BITMAP 
00
00
70
d8
00
70
30
30
30
30
30
fc
00
00
ENDCHAR
STARTCHAR U+00EF
ENCODING 239
SWIDTH 500 0
DWIDTH 7 0
BBX 7 14 0 -2
BITMAP 
00
00
d8
d8
00
70
30
30
30
30
30
fc
00
00
ENDCHAR
STARTCHAR U+00F0
ENCODING 240
SWIDTH 500 0
DWIDTH 7 0
BBX 7 14 0 -2
BITMAP 
00
00
68
30
68
0c
7c
cc
cc
cc
cc
78
00
00
ENDCHAR
STARTCHAR U+00F1
ENCODING 241
SWIDTH 500 0
DWIDTH 7 0
BBX 7 14 0 -2
BITMAP 
00
00
76
dc
00
dc
e6
c6
c6
c6
c6
c6
00
00
ENDCHAR
STARTCHAR U+00F2
ENCODING 242
SWIDTH 500 0
DWIDTH 7 0
BBX 7 14 0 -2
BITMAP 
00
00
70
1c
00
7c
c6
c6
c6
c6
c6
7c
00
00
ENDCHAR
STARTCHAR U+00F3
ENCODING 243
SWIDTH 500 0
DWIDTH 7 0
BBX 7 14 0 -2
BITMAP 
00
00
1c
70
00
7c
c6
c6
c6
c6
c6
7c
00
00
ENDCHAR
STARTCHAR U+00F4
ENCODING 244
SWIDTH 500 0
DWIDTH 7 0
BBX 7 14 0 -2
BITMAP 
00
00
38
6c
00
7c
c6
c6
c6
c6
c6
7c
00
00
ENDCHAR
STARTCHAR U+00F5
ENCODING 245
SWIDTH 500 0
DWIDTH 7 0
BBX 7 14 0 -2
BITMAP 
00
00
76
dc
00
7c
c6
c6
c6
c6
c6
7c
00
00
ENDCHAR
STARTCHAR U+00F6
ENCODING 246
SWIDTH 500 0
DWIDTH 7 0
BBX 7 14 0 -2
BITMAP 
00
00
6c
6c
00
7c
c6
c6
c6
c6
c6
7c
00
00
ENDCHAR
STARTCHAR U+00F7
ENCODING 247
SWIDTH 500 0
DWIDTH 7 0
BBX 7 14 0 -2
BITMAP 
00
00
00
00
00
38
00
fe
00
38
00
00
00
00
ENDCHAR
STARTCHAR U+00F8
ENCODING 248
SWIDTH 500 0
DWIDTH 7 0
BBX 7 14 0 -2
BITMAP 
00
00
00
00
06
7c
ce
da
da
d6
e6
7c
c0
00
ENDCHAR
STARTCHAR U+00F9
ENCODING 249
SWIDTH 500 0
DWIDTH 7 0
BBX 7 14 0 -2
BITMAP 
00
00
70
1c
00
c6
c6
c6
c6
c6
ce
7a
00
00
ENDCHAR
STARTCHAR U+00FA
ENCODING 250
SWIDTH 500 0
DWIDTH 7 0
BBX 7 14 0 -2
BITMAP 
00
00
1c
70
00
c6
c6
c6
c6
c6
ce
7a
00
00
ENDCHAR
STARTCHAR U+00FB
ENCODING 251
SWIDTH 500 0
DWIDTH 7 0
BBX 7 14 0 -2
BITMAP 
00
00
38
6c
00
c6
c6
c6
c6
c6
ce
7a
00
00
ENDCHAR
STARTCHAR U+00FC
ENCODING 252
SWIDTH 500 0
DWIDTH 7 0
BBX 7 14 0 -2
BITMAP 
00
00
6c
6c
00
c6
c6
c6
c6
c6
ce
7a
00
00
ENDCHAR
STARTCHAR U+00FD
ENCODING 253
SWIDTH 500 0
DWIDTH 7 0
BBX 7 14 0 -2
BITMAP 
00
00
1c
70
00
c6
c6
c6
c6
ce
7a
06
06
7c
ENDCHAR
STARTCHAR U+00FE
ENCODING 254
SWIDTH 500 0
DWIDTH 7 0
BBX 7 14 0 -2
BITMAP 
00
00
00
c0
c0
dc
d6
e6
c6
c6
fc
c0
c0
c0
ENDCHAR
STARTCHAR U+00FF
ENCODING 255
SWIDTH 500 0
DWIDTH 7 0
BBX 7 14 0 -2
BITMAP 
00
00
6c
6c
00
c6
c6
c6
c6
ce
7a
06
06
7c
ENDCHAR
STARTCHAR U+0100
ENCODING 256
SWIDTH 500 0
DWIDTH 7 0
BBX 7 14 0 -2
BITMAP 
00
7c
00
38
6c
c6
c6
fe
c6
c6
c6
c6
00
00
ENDCHAR
STARTCHAR U+0101
ENCODING 257
SWIDTH 500 0
DWIDTH 7 0
BBX 7 14 0 -2
BITMAP 
00
00
00
7c
00
7c
c6
1e
76
c6
ce
7a
00
00
ENDCHAR
STARTCHAR U+0102
ENCODING 258
SWIDTH 500 0
DWIDTH 7 0
BBX 7 14 0 -2
BITMAP 
c6
7c
00
38
6c
c6
c6
fe
c6
c6
c6
c6
00
00
ENDCHAR
STARTCHAR U+0103
ENCODING 259
SWIDTH 500 0
DWIDTH 7 0
BBX 7 14 0 -2
BITMAP 
00
00
c6
7c
00
7c
c6
1e
76
c6
ce
7a
00
00
ENDCHAR
STARTCHAR U+0104
ENCODING 260
SWIDTH 500 0
DWIDTH 7 0
BBX 7 14 0 -2
BITMAP 
00
00
00
38
6c
c6
c6
fe
c6
c6
c6
c6
0c
06
ENDCHAR
STARTCHAR U+0105
ENCODING 261
SWIDTH 500 0
DWIDTH 7 0
BBX 7 14 0 -2
BITMAP 
00
00
00
00
00
7c
06
1e
76
c6
ce
7a
0c
06
ENDCHAR
STARTCHAR U+0106
ENCODING 262
SWIDTH 500 0
DWIDTH 7 0
BBX 7 14 0 -2
BITMAP 
1c
70
00
7c
c6
c6
c0
c0
c0
c6
c6
7c
00
00
ENDCHAR
STARTCHAR U+0107
ENCODING 263
SWIDTH 500 0
DWIDTH 7 0
BBX 7 14 0 -2
BITMAP 
00
00
1c
70
00
7c
c6
c0
c0
c0
c6
7c
00
00
ENDCHAR
STARTCHAR U+0108
ENCODING 264
SWIDTH 500 0
DWIDTH 7 0
BBX 7 14 0 -2
BITMAP 
38
6c
00
7c
c6
c6
c0
c0
c0
c6
c6
7c
00
00
ENDCHAR
STARTCHAR U+0109
ENCODING 265
SWIDTH 500 0
DWIDTH 7 0
BBX 7 14 0 -2
BITMAP 
00
00
38
6c
00
7c
c6
c0
c0
c0
c6
7c
00
00
ENDCHAR
STARTCHAR U+010A
ENCODING 266
SWIDTH 500 0
DWIDTH 7 0
BBX 7 14 0 -2
BITMAP 
30
30
00
7c
c6
c6
c0
c0
c0
c6
c6
7c
00
00
ENDCHAR
STARTCHAR U+010B
ENCODING 267
SWIDTH 500 0
DWIDTH 7 0
BBX 7 14 0 -2
BITMAP 
00
00
30
30
00
7c
c6
c0
c0
c0
c6
7c
00
00
ENDCHAR
STARTCHAR U+010C
ENCODING 268
SWIDTH 500 0
DWIDTH 7 0
BBX 7 14 0 -2
BITMAP 
6c
38
00
7c
c6
c6
c0
c0
c0
c6
c6
7c
00
00
ENDCHAR
STARTCHAR U+010D
ENCODING 269
SWIDTH 500 0
DWIDTH 7 0
BBX 7 14 0 -2
BITMAP 
00
00
6c
38
00
7c
c6
c0
c0
c0
c6
7c
00
00
ENDCHAR
STARTCHAR U+010E
ENCODING 270
SWIDTH 500 0
DWIDTH 7 0
BBX 7 14 0 -2
BITMAP 
6c
38
00
fc
66
66
66
66
66
66
66
fc
00
00
ENDCHAR
STARTCHAR U+010F
ENCODING 271
SWIDTH 500 0
DWIDTH 7 0
BBX 7 14 0 -2
BITMAP 
00
00
00
1a
1a
7c
d8
d8
d8
d8
d8
78
00
00
ENDCHAR
STARTCHAR U+0110
ENCODING 272
SWIDTH 500 0
DWIDTH 7 0
BBX 7 14 0 -2
BITMAP 
00
00
00
f8
cc
c6
c6
f6
c6
c6
cc
f8
00
00
ENDCHAR
STARTCHAR U+0111
ENCODING 273
SWIDTH 500 0
DWIDTH 7 0
BBX 7 14 0 -2
BITMAP 
00
00
06
1e
06
7a
ce
c6
c6
c6
ce
7a
00
00
ENDCHAR
STARTCHAR U+0112
ENCODING 274
SWIDTH 500 0
DWIDTH 7 0
BBX 7 14 0 -2
BITMAP 
00
7c
00
fe
c0
c0
c0
fc
c0
c0
c0
fe
00
00
ENDCHAR
STARTCHAR U+0113
ENCODING 275
SWIDTH 500 0
DWIDTH 7 0
BBX 7 14 0 -2
BITMAP 
00
00
00
7c
00
7c
c6
c6
fe
c0
c6
7c
00
00
ENDCHAR
STARTCHAR U+0114
ENCODING 276
SWIDTH 500 0
DWIDTH 7 0
BBX 7 14 0 -2
BITMAP 
c6
7c
00
fe
c0
c0
c0
fc
c0
c0
c0
fe
00
00
ENDCHAR
STARTCHAR U+0115
ENCODING 277
SWIDTH 500 0
DWIDTH 7 0
BBX 7 14 0 -2
BITMAP 
00
00
c6
7c
00
7c
c6
c6
fe
c0
c6
7c
00
00
ENDCHAR
STARTCHAR U+0116
ENCODING 278
SWIDTH 500 0
DWIDTH 7 0
BBX 7 14 0 -2
BITMAP 
30
30
00
fe
c0
c0
c0
fc
c0
c0
c0
fe
00
00
ENDCHAR
STARTCHAR U+0117
ENCODING 279
SWIDTH 500 0
DWIDTH 7 0
BBX 7 14 0 -2
BITMAP 
00
00
30
30
00
7c
c6
c6
fe
c0
c6
7c
00
00
ENDCHAR
STARTCHAR U+0118
ENCODING 280
SWIDTH 500 0
DWIDTH 7 0
BBX 7 14 0 -2
BITMAP 
00
00
00
fe
c0
c0
c0
fc
c0
c0
c0
fe
0c
06
ENDCHAR
STARTCHAR U+0119
ENCODING 281
SWIDTH 500 0
DWIDTH 7 0
BBX 7 14 0 -2
BITMAP 
00
00
00
00
00
7c
c6
c6
fe
c0
c6
7c
30
18
ENDCHAR
STARTCHAR U+011A
ENCODING 282
SWIDTH 500 0
DWIDTH 7 0
BBX 7 14 0 -2
BITMAP 
6c
38
00
fe
c0
c0
c0
fc
c0
c0
c0
fe
00
00
ENDCHAR
STARTCHAR U+011B
ENCODING 283
SWIDTH 500 0
DWIDTH 7 0
BBX 7 14 0 -2
BITMAP 
00
00
6c
38
00
7c
c6
c6
fe
c0
c6
7c
00
00
ENDCHAR
STARTCHAR U+011C
ENCODING 284
SWIDTH 500 0
DWIDTH 7 0
BBX 7 14 0 -2
BITMAP 
38
6c
00
7c
c6
c0
c0
de
c6
c6
ce
7a
00
00
ENDCHAR
STARTCHAR U+011D
ENCODING 285
SWIDTH 500 0
DWIDTH 7 0
BBX 7 14 0 -2
BITMAP 
00
00
38
6c
00
7a
ce
cc
cc
78
60
dc
c6
7c
ENDCHAR
STARTCHAR U+011E
ENCODING 286
SWIDTH 500 0
DWIDTH 7 0
BBX 7 14 0 -2
BITMAP 
6c
38
00
7c
c6
c0
c0
de
c6
c6
ce
7a
00
00
ENDCHAR
STARTCHAR U+011F
ENCODING 287
SWIDTH 500 0
DWIDTH 7 0
BBX 7 14 0 -2
BITMAP 
00
00
c6
7c
00
7a
cc
cc
cc
78
60
dc
c6
7c
ENDCHAR
STARTCHAR U+0120
ENCODING 288
SWIDTH 500 0
DWIDTH 7 0
BBX 7 14 0 -2
BITMAP 
30
30
00
7c
c6
c6
c0
c0
de
c6
ce
7a
00
00
ENDCHAR
STARTCHAR U+0121
ENCODING 289
SWIDTH 500 0
DWIDTH 7 0
BBX 7 14 0 -2
BITMAP 
00
00
30
30
00
7a
ce
cc
cc
78
60
dc
c6
7c
ENDCHAR
STARTCHAR U+0122
ENCODING 290
SWIDTH 500 0
DWIDTH 7 0
BBX 7 14 0 -2
BITMAP 
00
00
00
7c
c6
c0
c0
de
c6
c6
ce
7a
18
30
ENDCHAR
STARTCHAR U+0123
ENCODING 291
SWIDTH 500 0
DWIDTH 7 0
BBX 7 14 0 -2
BITMAP 
00
00
18
30
00
7a
cc
cc
cc
78
60
dc
c6
7c
ENDCHAR
STARTCHAR U+0124
ENCODING 292
SWIDTH 500 0
DWIDTH 7 0
BBX 7 14 0 -2
BITMAP 
38
6c
00
c6
c6
c6
c6
fe
c6
c6
c6
c6
00
00
ENDCHAR
STARTCHAR U+0125
ENCODING 293
SWIDTH 500 0
DWIDTH 7 0
BBX 7 14 0 -2
BITMAP 
38
6c
00
c0
c0
dc
e6
c6
c6
c6
c6
c6
00
00
ENDCHAR
STARTCHAR U+0126
ENCODING 294
SWIDTH 500 0
DWIDTH 7 0
BBX 7 14 0 -2
BITMAP 
00
00
00
cc
fe
cc
cc
fc
cc
cc
cc
cc
00
00
ENDCHAR
STARTCHAR U+0127
ENCODING 295
SWIDTH 500 0
DWIDTH 7 0
BBX 7 14 0 -2
BITMAP 
00
00
c0
f0
c0
dc
e6
c6
c6
c6
c6
c6
00
00
ENDCHAR
STARTCHAR U+0128
ENCODING 296
SWIDTH 500 0
DWIDTH 7 0
BBX 7 14 0 -2
BITMAP 
76
dc
00
fc
30
30
30
30
30
30
30
fc
00
00
ENDCHAR
STARTCHAR U+0129
ENCODING 297
SWIDTH 500 0
DWIDTH 7 0
BBX 7 14 0 -2
BITMAP 
00
00
76
dc
00
70
30
30
30
30
30
fc
00
00
ENDCHAR
STARTCHAR U+012A
ENCODING 298
SWIDTH 500 0
DWIDTH 7 0
BBX 7 14 0 -2
BITMAP 
00
78
00
fc
30
30
30
30
30
30
30
fc
00
00
ENDCHAR
STARTCHAR U+012B
ENCODING 299
SWIDTH 500 0
DWIDTH 7 0
BBX 7 14 0 -2
BITMAP 
00
00
00
f8
00
70
30
30
30
30
30
fc
00
00
ENDCHAR
STARTCHAR U+012C
ENCODING 300
SWIDTH 500 0
DWIDTH 7 0
BBX 7 14 0 -2
BITMAP 
cc
78
00
fc
30
30
30
30
30
30
30
fc
00
00
ENDCHAR
STARTCHAR U+012D
ENCODING 301
SWIDTH 500 0
DWIDTH 7 0
BBX 7 14 0 -2
BITMAP 
00
00
cc
78
00
70
30
30
30
30
30
fc
00
00
ENDCHAR
STARTCHAR U+012E
ENCODING 302
SWIDTH 500 0
DWIDTH 7 0
BBX 7 14 0 -2
BITMAP 
00
00
00
fc
30
30
30
30
30
30
30
fc
30
18
ENDCHAR
STARTCHAR U+012F
ENCODING 303
SWIDTH 500 0
DWIDTH 7 0
BBX 7 14 0 -2
BITMAP 
00
00
30
30
00
70
30
30
30
30
30
fc
30
18
ENDCHAR
STARTCHAR U+0130
ENCODING 304
SWIDTH 500 0
DWIDTH 7 0
BBX 7 14 0 -2
BITMAP 
30
30
00
fc
30
30
30
30
30
30
30
fc
00
00
ENDCHAR
STARTCHAR U+0131
ENCODING 305
SWIDTH 500 0
DWIDTH 7 0
BBX 7 14 0 -2
BITMAP 
00
00
00
00
00
70
30
30
30
30
30
fc
00
00
ENDCHAR
STARTCHAR U+0132
ENCODING 306
SWIDTH 500 0
DWIDTH 7 0
BBX 7 14 0 -2
BITMAP 
00
00
00
f6
66
66
66
66
66
66
6a
fc
00
00
ENDCHAR
STARTCHAR U+0133
ENCODING 307
SWIDTH 500 0
DWIDTH 7 0
BBX 7 14 0 -2
BITMAP 
00
00
6c
6c
00
ec
6c
6c
6c
6c
6c
f4
0c
78
ENDCHAR
STARTCHAR U+0134
ENCODING 308
SWIDTH 500 0
DWIDTH 7 0
BBX 7 14 0 -2
BITMAP 
1c
36
00
1e
0c
0c
0c
0c
0c
cc
cc
78
00
00
ENDCHAR
STARTCHAR U+0135
ENCODING 309
SWIDTH 500 0
DWIDTH 7 0
BBX 7 14 0 -2
BITMAP 
00
00
1c
36
00
1c
0c
0c
0c
0c
0c
cc
cc
78
ENDCHAR
STARTCHAR U+0136
ENCODING 310
SWIDTH 500 0
DWIDTH 7 0
BBX 7 14 0 -2
BITMAP 
00
00
00
c6
cc
d8
d0
e0
d0
d8
cc
c6
60
c0
ENDCHAR
STARTCHAR U+0137
ENCODING 311
SWIDTH 500 0
DWIDTH 7 0
BBX 7 14 0 -2
BITMAP 
00
00
00
c0
c0
cc
d8
d0
e0
d0
d8
cc
60
c0
ENDCHAR
STARTCHAR U+0138
ENCODING 312
SWIDTH 500 0
DWIDTH 7 0
BBX 7 14 0 -2
BITMAP 
00
00
00
00
00
cc
d8
d0
e0
d0
d8
cc
00
00
ENDCHAR
STARTCHAR U+0139
ENCODING 313
SWIDTH 500 0
DWIDTH 7 0
BBX 7 14 0 -2
BITMAP 
1c
70
00
c0
c0
c0
c0
c0
c0
c0
c0
fe
00
00
ENDCHAR
STARTCHAR U+013A
ENCODING 314
SWIDTH 500 0
DWIDTH 7 0
BBX 7 14 0 -2
BITMAP 
38
e0
00
70
30
30
30
30
30
30
30
fc
00
00
ENDCHAR
STARTCHAR U+013B
ENCODING 315
SWIDTH 500 0
DWIDTH 7 0
BBX 7 14 0 -2
BITMAP 
00
00
00
c0
c0
c0
c0
c0
c0
c0
c0
fe
18
30
ENDCHAR
STARTCHAR U+013C
ENCODING 316
SWIDTH 500 0
DWIDTH 7 0
BBX 7 14 0 -2
BITMAP 
00
00
00
70
30
30
30
30
30
30
30
fc
30
60
ENDCHAR
STARTCHAR U+013D
ENCODING 317
SWIDTH 500 0
DWIDTH 7 0
BBX 7 14 0 -2
BITMAP 
00
00
38
d8
d8
d0
c0
c0
c0
c0
c0
fe
00
00
ENDCHAR
STARTCHAR U+013E
ENCODING 318
SWIDTH 500 0
DWIDTH 7 0
BBX 7 14 0 -2
BITMAP 
00
00
0e
76
36
34
30
30
30
30
30
fc
00
00
ENDCHAR
STARTCHAR U+013F
ENCODING 319
SWIDTH 500 0
DWIDTH 7 0
BBX 7 14 0 -2
BITMAP 
00
00
00
c0
c0
c0
cc
cc
c0
c0
c0
fe
00
00
ENDCHAR
STARTCHAR U+0140
ENCODING 320
SWIDTH 500 0
DWIDTH 7 0
BBX 7 14 0 -2
BITMAP 
00
00
00
70
30
30
34
34
30
30
30
fc
00
00
ENDCHAR
STARTCHAR U+0141
ENCODING 321
SWIDTH 500 0
DWIDTH 7 0
BBX 7 14 0 -2
BITMAP 
00
00
00
c0
c0
d8
d0
e0
c0
c0
c0
fe
00
00
ENDCHAR
STARTCHAR U+0142
ENCODING 322
SWIDTH 500 0
DWIDTH 7 0
BBX 7 14 0 -2
BITMAP 
00
00
00
70
30
34
38
70
d0
30
30
fc
00
00
ENDCHAR
STARTCHAR U+0143
ENCODING 323
SWIDTH 500 0
DWIDTH 7 0
BBX 7 14 0 -2
BITMAP 
1c
70
00
e6
e6
d6
d6
da
da
da
ce
ce
00
00
ENDCHAR
STARTCHAR U+0144
ENCODING 324
SWIDTH 500 0
DWIDTH 7 0
BBX 7 14 0 -2
BITMAP 
00
00
1c
70
00
dc
e6
c6
c6
c6
c6
c6
00
00
ENDCHAR
STARTCHAR U+0145
ENCODING 325
SWIDTH 500 0
DWIDTH 7 0
BBX 7 14 0 -2
BITMAP 
00
00
00
e6
e6
d6
d6
da
da
da
ce
ce
60
c0
ENDCHAR
STARTCHAR U+0146
ENCODING 326
SWIDTH 500 0
DWIDTH 7 0
BBX 7 14 0 -2
BITMAP 
00
00
00
00
00
dc
e6
c6
c6
c6
c6
c6
60
c0
ENDCHAR
STARTCHAR U+0147
ENCODING 327
SWIDTH 500 0
DWIDTH 7 0
BBX 7 14 0 -2
BITMAP 
6c
38
00
e6
e6
d6
d6
da
da
da
ce
ce
00
00
ENDCHAR
STARTCHAR U+0148
ENCODING 328
SWIDTH 500 0
DWIDTH 7 0
BBX 7 14 0 -2
BITMAP 
00
00
6c
38
00
dc
e6
c6
c6
c6
c6
c6
00
00
ENDCHAR
STARTCHAR U+0149
ENCODING 329
SWIDTH 500 0
DWIDTH 7 0
BBX 7 14 0 -2
BITMAP 
e0
60
60
c0
00
dc
e6
c6
c6
c6
c6
c6
00
00
ENDCHAR
STARTCHAR U+014A
ENCODING 330
SWIDTH 500 0
DWIDTH 7 0
BBX 7 14 0 -2
BITMAP 
00
00
00
dc
e6
c6
c6
c6
c6
c6
c6
dc
00
00
ENDCHAR
STARTCHAR U+014B
ENCODING 331
SWIDTH 500 0
DWIDTH 7 0
BBX 7 14 0 -2
BITMAP 
00
00
00
00
00
dc
e6
c6
c6
c6
c6
c6
06
1c
ENDCHAR
STARTCHAR U+014C
ENCODING 332
SWIDTH 500 0
DWIDTH 7 0
BBX 7 14 0 -2
BITMAP 
00
7c
00
7c
c6
c6
c6
c6
c6
c6
c6
7c
00
00
ENDCHAR
STARTCHAR U+014D
ENCODING 333
SWIDTH 500 0
DWIDTH 7 0
BBX 7 14 0 -2
BITMAP 
00
00
00
7c
00
7c
c6
c6
c6
c6
c6
7c
00
00
ENDCHAR
STARTCHAR U+014E
ENCODING 334
SWIDTH 500 0
DWIDTH 7 0
BBX 7 14 0 -2
BITMAP 
c6
7c
00
7c
c6
c6
c6
c6
c6
c6
c6
7c
00
00
ENDCHAR
STARTCHAR U+014F
ENCODING 335
SWIDTH 500 0
DWIDTH 7 0
BBX 7 14 0 -2
BITMAP 
00
00
c6
7c
00
7c
c6
c6
c6
c6
c6
7c
00
00
ENDCHAR
STARTCHAR U+0150
ENCODING 336
SWIDTH 500 0
DWIDTH 7 0
BBX 7 14 0 -2
BITMAP 
36
6c
00
7c
c6
c6
c6
c6
c6
c6
c6
7c
00
00
ENDCHAR
STARTCHAR U+0151
ENCODING 337
SWIDTH 500 0
DWIDTH 7 0
BBX 7 14 0 -2
BITMAP 
00
00
36
6c
00
7c
c6
c6
c6
c6
c6
7c
00
00
ENDCHAR
STARTCHAR U+0152
ENCODING 338
SWIDTH 500 0
DWIDTH 7 0
BBX 7 14 0 -2
BITMAP 
00
00
00
76
d8
d8
d8
de
d8
d8
d8
76
00
00
ENDCHAR
STARTCHAR U+0153
ENCODING 339
SWIDTH 500 0
DWIDTH 7 0
BBX 7 14 0 -2
BITMAP 
00
00
00
00
00
6c
d6
d6
de
d0
d6
6c
00
00
ENDCHAR
STARTCHAR U+0154
ENCODING 340
SWIDTH 500 0
DWIDTH 7 0
BBX 7 14 0 -2
BITMAP 
1c
70
00
fc
c6
c6
c6
fc
d8
cc
c6
c6
00
00
ENDCHAR
STARTCHAR U+0155
ENCODING 341
SWIDTH 500 0
DWIDTH 7 0
BBX 7 14 0 -2
BITMAP 
00
00
1c
70
00
dc
e6
c6
c0
c0
c0
c0
00
00
ENDCHAR
STARTCHAR U+0156
ENCODING 342
SWIDTH 500 0
DWIDTH 7 0
BBX 7 14 0 -2
BITMAP 
00
00
00
fc
c6
c6
c6
fc
d8
cc
c6
c6
60
c0
ENDCHAR
STARTCHAR U+0157
ENCODING 343
SWIDTH 500 0
DWIDTH 7 0
BBX 7 14 0 -2
BITMAP 
00
00
00
00
00
dc
e6
c6
c0
c0
c0
c0
60
c0
ENDCHAR
STARTCHAR U+0158
ENCODING 344
SWIDTH 500 0
DWIDTH 7 0
BBX 7 14 0 -2
BITMAP 
6c
38
00
fc
c6
c6
c6
fc
d8
cc
c6
c6
00
00
ENDCHAR
STARTCHAR U+0159
ENCODING 345
SWIDTH 500 0
DWIDTH 7 0
BBX 7 14 0 -2
BITMAP 
00
00
6c
38
00
dc
e6
c0
c0
c0
c0
c0
00
00
ENDCHAR
STARTCHAR U+015A
ENCODING 346
SWIDTH 500 0
DWIDTH 7 0
BBX 7 14 0 -2
BITMAP 
1c
70
00
7c
c6
c0
70
1c
06
c6
c6
7c
00
00
ENDCHAR
STARTCHAR U+015B
ENCODING 347
SWIDTH 500 0
DWIDTH 7 0
BBX 7 14 0 -2
BITMAP 
00
00
1c
70
00
7c
c6
c0
7c
06
c6
7c
00
00
ENDCHAR
STARTCHAR U+015C
ENCODING 348
SWIDTH 500 0
DWIDTH 7 0
BBX 7 14 0 -2
BITMAP 
38
6c
00
7c
c6
c0
70
1c
06
c6
c6
7c
00
00
ENDCHAR
STARTCHAR U+015D
ENCODING 349
SWIDTH 500 0
DWIDTH 7 0
BBX 7 14 0 -2
BITMAP 
00
00
38
6c
00
7c
c6
c0
7c
06
c6
7c
00
00
ENDCHAR
STARTCHAR U+015E
ENCODING 350
SWIDTH 500 0
DWIDTH 7 0
BBX 7 14 0 -2
BITMAP 
00
00
00
7c
c6
c0
70
1c
06
c6
c6
7c
18
30
ENDCHAR
STARTCHAR U+015F
ENCODING 351
SWIDTH 500 0
DWIDTH 7 0
BBX 7 14 0 -2
BITMAP 
00
00
00
00
00
7c
c6
c0
7c
06
c6
7c
18
30
ENDCHAR
STARTCHAR U+0160
ENCODING 352
SWIDTH 500 0
DWIDTH 7 0
BBX 7 14 0 -2
BITMAP 
6c
38
00
7c
c6
c0
70
1c
06
c6
c6
7c
00
00
ENDCHAR
STARTCHAR U+0161
ENCODING 353
SWIDTH 500 0
DWIDTH 7 0
BBX 7 14 0 -2
BITMAP 
00
00
6c
38
00
7c
c6
c0
7c
06
c6
7c
00
00
ENDCHAR
STARTCHAR U+0162
ENCODING 354
SWIDTH 500 0
DWIDTH 7 0
BBX 7 14 0 -2
BITMAP 
00
00
00
fe
30
30
30
30
30
30
30
30
18
30
ENDCHAR
STARTCHAR U+0163
ENCODING 355
SWIDTH 500 0
DWIDTH 7 0
BBX 7 14 0 -2
BITMAP 
00
00
00
30
30
fc
30
30
30
30
36
1c
18
30
ENDCHAR
STARTCHAR U+0164
ENCODING 356
SWIDTH 500 0
DWIDTH 7 0
BBX 7 14 0 -2
BITMAP 
6c
38
00
fe
30
30
30
30
30
30
30
00
00
00
ENDCHAR
STARTCHAR U+0165
ENCODING 357
SWIDTH 500 0
DWIDTH 7 0
BBX 7 14 0 -2
BITMAP 
00
0e
06
36
34
30
fc
30
30
30
30
36
1c
00
ENDCHAR
STARTCHAR U+0166
ENCODING 358
SWIDTH 500 0
DWIDTH 7 0
BBX 7 14 0 -2
BITMAP 
00
00
00
fe
30
30
34
38
70
d0
30
30
00
00
ENDCHAR
STARTCHAR U+0167
ENCODING 359
SWIDTH 500 0
DWIDTH 7 0
BBX 7 14 0 -2
BITMAP 
00
00
00
30
30
fc
30
34
38
70
d6
1c
00
00
ENDCHAR
STARTCHAR U+0168
ENCODING 360
SWIDTH 500 0
DWIDTH 7 0
BBX 7 14 0 -2
BITMAP 
76
dc
00
c6
c6
c6
c6
c6
c6
c6
c6
7c
00
00
ENDCHAR
STARTCHAR U+0169
ENCODING 361
SWIDTH 500 0
DWIDTH 7 0
BBX 7 14 0 -2
BITMAP 
00
00
76
dc
00
c6
c6
c6
c6
c6
ce
7a
00
00
ENDCHAR
STARTCHAR U+016A
ENCODING 362
SWIDTH 500 0
DWIDTH 7 0
BBX 7 14 0 -2
BITMAP 
00
7c
00
c6
c6
c6
c6
c6
c6
c6
c6
7c
00
00
ENDCHAR
STARTCHAR U+016B
ENCODING 363
SWIDTH 500 0
DWIDTH 7 0
BBX 7 14 0 -2
BITMAP 
00
00
00
7c
00
c6
c6
c6
c6
c6
ce
7a
00
00
ENDCHAR
STARTCHAR U+016C
ENCODING 364
SWIDTH 500 0
DWIDTH 7 0
BBX 7 14 0 -2
BITMAP 
c6
7c
00
c6
c6
c6
c6
c6
c6
c6
c6
7c
00
00
ENDCHAR
STARTCHAR U+016D
ENCODING 365
SWIDTH 500 0
DWIDTH 7 0
BBX 7 14 0 -2
BITMAP 
00
00
c6
7c
00
c6
c6
c6
c6
c6
ce
7a
00
00
ENDCHAR
STARTCHAR U+016E
ENCODING 366
SWIDTH 500 0
DWIDTH 7 0
BBX 7 14 0 -2
BITMAP 
38
6c
38
c6
c6
c6
c6
c6
c6
c6
c6
7c
00
00
ENDCHAR
STARTCHAR U+016F
ENCODING 367
SWIDTH 500 0
DWIDTH 7 0
BBX 7 14 0 -2
BITMAP 
00
38
6c
38
00
c6
c6
c6
c6
c6
ce
7a
00
00
ENDCHAR
STARTCHAR U+0170
ENCODING 368
SWIDTH 500 0
DWIDTH 7 0
BBX 7 14 0 -2
BITMAP 
36
6c
00
c6
c6
c6
c6
c6
c6
c6
c6
7c
00
00
ENDCHAR
STARTCHAR U+0171
ENCODING 369
SWIDTH 500 0
DWIDTH 7 0
BBX 7 14 0 -2
BITMAP 
00
00
36
6c
00
c6
c6
c6
c6
c6
ce
7a
00
00
ENDCHAR
STARTCHAR U+0172
ENCODING 370
SWIDTH 500 0
DWIDTH 7 0
BBX 7 14 0 -2
BITMAP 
00
00
00
c6
c6
c6
c6
c6
c6
c6
c6
7c
30
18
ENDCHAR
STARTCHAR U+0173
ENCODING 371
SWIDTH 500 0
DWIDTH 7 0
BBX 7 14 0 -2
BITMAP 
00
00
00
00
00
c6
c6
c6
c6
c6
ce
7a
0c
06
ENDCHAR
STARTCHAR U+0174
ENCODING 372
SWIDTH 500 0
DWIDTH 7 0
BBX 7 14 0 -2
BITMAP 
38
6c
00
c6
c6
c6
c6
da
da
ee
ee
c6
00
00
ENDCHAR
STARTCHAR U+0175
ENCODING 373
SWIDTH 500 0
DWIDTH 7 0
BBX 7 14 0 -2
BITMAP 
00
00
70
d8
00
cc
d4
d4
d4
d4
d4
68
00
00
ENDCHAR
STARTCHAR U+0176
ENCODING 374
SWIDTH 500 0
DWIDTH 7 0
BBX 7 14 0 -2
BITMAP 
70
d8
00
cc
cc
cc
cc
68
30
30
30
30
00
00
ENDCHAR
STARTCHAR U+0177
ENCODING 375
SWIDTH 500 0
DWIDTH 7 0
BBX 7 14 0 -2
BITMAP 
00
00
38
6c
00
c6
c6
c6
c6
ce
7a
06
06
7c
ENDCHAR
STARTCHAR U+0178
ENCODING 376
SWIDTH 500 0
DWIDTH 7 0
BBX 7 14 0 -2
BITMAP 
d8
d8
00
cc
cc
cc
cc
68
30
30
30
30
00
00
ENDCHAR
STARTCHAR U+0179
ENCODING 377
SWIDTH 500 0
DWIDTH 7 0
BBX 7 14 0 -2
BITMAP 
1c
70
00
fe
06
0c
18
30
60
c0
c0
fe
00
00
ENDCHAR
STARTCHAR U+017A
ENCODING 378
SWIDTH 500 0
DWIDTH 7 0
BBX 7 14 0 -2
BITMAP 
00
00
1c
70
00
fe
0c
18
30
60
c0
fe
00
00
ENDCHAR
STARTCHAR U+017B
ENCODING 379
SWIDTH 500 0
DWIDTH 7 0
BBX 7 14 0 -2
BITMAP 
30
30
00
fe
06
0c
18
30
60
c0
c0
fe
00
00
ENDCHAR
STARTCHAR U+017C
ENCODING 380
SWIDTH 500 0
DWIDTH 7 0
BBX 7 14 0 -2
BITMAP 
00
00
30
30
00
fe
0c
18
30
60
c0
fe
00
00
ENDCHAR
STARTCHAR U+017D
ENCODING 381
SWIDTH 500 0
DWIDTH 7 0
BBX 7 14 0 -2
BITMAP 
6c
38
00
fe
06
0c
18
30
60
c0
c0
fe
00
00
ENDCHAR
STARTCHAR U+017E
ENCODING 382
SWIDTH 500 0
DWIDTH 7 0
BBX 7 14 0 -2
BITMAP 
00
00
6c
38
00
fe
0c
18
30
60
c0
fe
00
00
ENDCHAR
STARTCHAR U+017F
ENCODING 383
SWIDTH 500 0
DWIDTH 7 0
BBX 7 14 0 -2
BITMAP 
00
00
00
1c
30
30
70
30
30
30
30
30
00
00
ENDCHAR
STARTCHAR U+0181
ENCODING 385
SWIDTH 500 0
DWIDTH 7 0
BBX 7 14 0 -2
BITMAP 
00
00
f8
ac
ac
6c
78
6c
6c
6c
6c
78
00
00
ENDCHAR
STARTCHAR U+0182
ENCODING 386
SWIDTH 500 0
DWIDTH 7 0
BBX 7 14 0 -2
BITMAP 
00
00
f8
c0
c0
c0
f8
cc
cc
cc
cc
f8
00
00
ENDCHAR
STARTCHAR U+0185
ENCODING 389
SWIDTH 500 0
DWIDTH 7 0
BBX 7 14 0 -2
BITMAP 
00
00
60
e0
e0
68
74
6c
6c
6c
74
68
00
00
ENDCHAR
STARTCHAR U+0192
ENCODING 402
SWIDTH 500 0
DWIDTH 7 0
BBX 7 14 0 -2
BITMAP 
00
00
00
1c
30
30
fc
30
30
30
30
30
e0
00
ENDCHAR
STARTCHAR U+0193
ENCODING 403
SWIDTH 500 0
DWIDTH 7 0
BBX 7 14 0 -2
BITMAP 
00
3e
6e
ec
c0
c0
de
cc
cc
ec
6c
38
00
00
ENDCHAR
STARTCHAR U+0194
ENCODING 404
SWIDTH 500 0
DWIDTH 7 0
BBX 7 14 0 -2
BITMAP 
00
00
00
00
00
cc
cc
cc
68
68
30
30
68
30
ENDCHAR
STARTCHAR U+0196
ENCODING 406
SWIDTH 500 0
DWIDTH 7 0
BBX 7 14 0 -2
BITMAP 
00
00
f0
30
30
30
30
30
30
30
30
1c
00
00
ENDCHAR
STARTCHAR U+0197
ENCODING 407
SWIDTH 500 0
DWIDTH 7 0
BBX 7 14 0 -2
BITMAP 
00
00
fc
30
30
30
78
30
30
30
30
fc
00
00
ENDCHAR
STARTCHAR U+019A
ENCODING 410
SWIDTH 500 0
DWIDTH 7 0
BBX 7 14 0 -2
BITMAP 
00
00
70
30
30
30
30
30
30
30
30
fc
00
00
ENDCHAR
STARTCHAR U+019B
ENCODING 411
SWIDTH 500 0
DWIDTH 7 0
BBX 7 14 0 -2
BITMAP 
00
00
60
30
3c
f0
30
30
68
68
cc
cc
00
00
ENDCHAR
STARTCHAR U+019C
ENCODING 412
SWIDTH 500 0
DWIDTH 7 0
BBX 7 14 0 -2
BITMAP 
00
00
00
00
00
cc
d4
d4
d4
d4
d4
6c
00
00
ENDCHAR
STARTCHAR U+01AA
ENCODING 426
SWIDTH 500 0
DWIDTH 7 0
BBX 7 14 0 -2
BITMAP 
00
60
d0
d0
78
30
30
30
30
30
30
34
34
18
ENDCHAR
STARTCHAR U+01B7
ENCODING 439
SWIDTH 500 0
DWIDTH 7 0
BBX 7 14 0 -2
BITMAP 
00
00
00
fe
0c
18
3c
06
06
06
ce
7c
00
00
ENDCHAR
STARTCHAR U+01BE
ENCODING 446
SWIDTH 500 0
DWIDTH 7 0
BBX 7 14 0 -2
BITMAP 
00
00
30
30
30
30
fc
30
18
cc
cc
78
00
00
ENDCHAR
STARTCHAR U+01C0
ENCODING 448
SWIDTH 500 0
DWIDTH 7 0
BBX 7 14 0 -2
BITMAP 
00
00
30
30
30
30
30
30
30
30
30
30
00
00
ENDCHAR
STARTCHAR U+01C1
ENCODING 449
SWIDTH 500 0
DWIDTH 7 0
BBX 7 14 0 -2
BITMAP 
00
00
68
68
68
68
68
68
68
68
68
68
00
00
ENDCHAR
STARTCHAR U+01C2
ENCODING 450
SWIDTH 500 0
DWIDTH 7 0
BBX 7 14 0 -2
BITMAP 
00
00
30
30
30
fc
30
fc
30
30
30
30
00
00
ENDCHAR
STARTCHAR U+01C3
ENCODING 451
SWIDTH 500 0
DWIDTH 7 0
BBX 7 14 0 -2
BITMAP 
00
00
78
78
78
30
30
30
00
30
78
30
00
00
ENDCHAR
STARTCHAR U+01C4
ENCODING 452
SWIDTH 500 0
DWIDTH 7 0
BBX 7 14 0 -2
BITMAP 
1a
0c
00
de
a6
a6
ac
ac
ac
a8
a8
de
00
00
ENDCHAR
STARTCHAR U+01C6
ENCODING 454
SWIDTH 500 0
DWIDTH 7 0
BBX 7 14 0 -2
BITMAP 
00
00
1a
6c
60
ee
a6
a6
ac
a8
a8
ee
00
00
ENDCHAR
STARTCHAR U+01C7
ENCODING 455
SWIDTH 500 0
DWIDTH 7 0
BBX 7 14 0 -2
BITMAP 
00
00
00
ce
c6
c6
c6
c6
c6
c6
da
f4
00
00
ENDCHAR
STARTCHAR U+01C8
ENCODING 456
SWIDTH 500 0
DWIDTH 7 0
BBX 7 14 0 -2
BITMAP 
00
00
c6
c6
c0
ce
c6
c6
c6
c6
c6
f6
06
1c
ENDCHAR
STARTCHAR U+01C9
ENCODING 457
SWIDTH 500 0
DWIDTH 7 0
BBX 7 14 0 -2
BITMAP 
00
00
06
e6
60
6e
66
66
66
66
66
f6
06
1c
ENDCHAR
STARTCHAR U+01CA
ENCODING 458
SWIDTH 500 0
DWIDTH 7 0
BBX 7 14 0 -2
BITMAP 
00
00
00
b6
b6
d6
d6
b6
b6
b6
ba
b4
00
00
ENDCHAR
STARTCHAR U+01CB
ENCODING 459
SWIDTH 500 0
DWIDTH 7 0
BBX 7 14 0 -2
BITMAP 
00
00
b6
b6
b0
d6
b6
b6
b6
b6
b6
b6
06
1c
ENDCHAR
STARTCHAR U+01CC
ENCODING 460
SWIDTH 500 0
DWIDTH 7 0
BBX 7 14 0 -2
BITMAP 
00
00
06
06
00
ee
d6
d6
d6
d6
d6
d6
06
1c
ENDCHAR
STARTCHAR U+01CD
ENCODING 461
SWIDTH 500 0
DWIDTH 7 0
BBX 7 14 0 -2
BITMAP 
68
38
30
38
38
68
68
6c
7c
cc
cc
ee
00
00
ENDCHAR
STARTCHAR U+01CE
ENCODING 462
SWIDTH 500 0
DWIDTH 7 0
BBX 7 14 0 -2
BITMAP 
68
70
30
00
78
68
6c
3c
6c
ec
ec
74
00
00
ENDCHAR
STARTCHAR U+01CF
ENCODING 463
SWIDTH 500 0
DWIDTH 7 0
BBX 7 14 0 -2
BITMAP 
68
30
00
fc
30
30
30
30
30
30
30
fc
00
00
ENDCHAR
STARTCHAR U+01D0
ENCODING 464
SWIDTH 500 0
DWIDTH 7 0
BBX 7 14 0 -2
BITMAP 
00
00
68
30
00
70
30
30
30
30
30
fc
00
00
ENDCHAR
STARTCHAR U+01D1
ENCODING 465
SWIDTH 500 0
DWIDTH 7 0
BBX 7 14 0 -2
BITMAP 
68
38
30
38
6c
ec
ce
ce
ce
ec
6c
38
00
00
ENDCHAR
STARTCHAR U+01D2
ENCODING 466
SWIDTH 500 0
DWIDTH 7 0
BBX 7 14 0 -2
BITMAP 
00
68
38
30
38
6c
ec
ec
ec
ec
6c
38
00
00
ENDCHAR
STARTCHAR U+01D4
ENCODING 468
SWIDTH 500 0
DWIDTH 7 0
BBX 7 14 0 -2
BITMAP 
00
68
38
30
ec
6c
6c
6c
6c
6c
6c
7e
00
00
ENDCHAR
STARTCHAR U+01D6
ENCODING 470
SWIDTH 500 0
DWIDTH 7 0
BBX 7 14 0 -2
BITMAP 
7c
00
6c
6c
00
ec
6c
6c
6c
6c
6c
7e
00
00
ENDCHAR
STARTCHAR U+01D8
ENCODING 472
SWIDTH 500 0
DWIDTH 7 0
BBX 7 14 0 -2
BITMAP 
38
30
7c
6c
00
ec
6c
6c
6c
6c
6c
7e
00
00
ENDCHAR
STARTCHAR U+01DA
ENCODING 474
SWIDTH 500 0
DWIDTH 7 0
BBX 7 14 0 -2
BITMAP 
68
38
7c
6c
00
ec
6c
6c
6c
6c
6c
7e
00
00
ENDCHAR
STARTCHAR U+01DC
ENCODING 476
SWIDTH 500 0
DWIDTH 7 0
BBX 7 14 0 -2
BITMAP 
30
30
6c
6c
00
ec
6c
6c
6c
6c
6c
7e
00
00
ENDCHAR
STARTCHAR U+01DE
ENCODING 478
SWIDTH 500 0
DWIDTH 7 0
BBX 7 14 0 -2
BITMAP 
7c
00
6c
00
38
6c
c6
fe
c6
c6
c6
c6
00
00
ENDCHAR
STARTCHAR U+01DF
ENCODING 479
SWIDTH 500 0
DWIDTH 7 0
BBX 7 14 0 -2
BITMAP 
00
7c
00
6c
00
7c
c6
1e
76
c6
ce
7a
00
00
ENDCHAR
STARTCHAR U+01E4
ENCODING 484
SWIDTH 500 0
DWIDTH 7 0
BBX 7 14 0 -2
BITMAP 
00
00
00
7c
c6
c0
c0
de
c6
de
c6
7e
00
00
ENDCHAR
STARTCHAR U+01E5
ENCODING 485
SWIDTH 500 0
DWIDTH 7 0
BBX 7 14 0 -2
BITMAP 
00
00
00
00
00
7a
cc
cc
cc
78
60
dc
de
7c
ENDCHAR
STARTCHAR U+01E6
ENCODING 486
SWIDTH 500 0
DWIDTH 7 0
BBX 7 14 0 -2
BITMAP 
6c
38
00
7c
c6
c0
c0
de
c6
c6
ce
7a
00
00
ENDCHAR
STARTCHAR U+01E7
ENCODING 487
SWIDTH 500 0
DWIDTH 7 0
BBX 7 14 0 -2
BITMAP 
00
00
6c
38
00
7a
cc
cc
cc
78
60
dc
c6
7c
ENDCHAR
STARTCHAR U+01E8
ENCODING 488
SWIDTH 500 0
DWIDTH 7 0
BBX 7 14 0 -2
BITMAP 
6c
38
00
c6
cc
d8
d0
e0
d0
d8
cc
c6
00
00
ENDCHAR
STARTCHAR U+01E9
ENCODING 489
SWIDTH 500 0
DWIDTH 7 0
BBX 7 14 0 -2
BITMAP 
00
6c
38
c0
c0
cc
d8
d0
e0
d0
d8
cc
00
00
ENDCHAR
STARTCHAR U+01EE
ENCODING 494
SWIDTH 500 0
DWIDTH 7 0
BBX 7 14 0 -2
BITMAP 
6c
38
00
fe
0c
18
3c
06
06
06
ce
7c
00
00
ENDCHAR
STARTCHAR U+01EF
ENCODING 495
SWIDTH 500 0
DWIDTH 7 0
BBX 7 14 0 -2
BITMAP 
00
00
6c
38
00
fc
18
30
78
0c
0c
0c
cc
78
ENDCHAR
STARTCHAR U+01F1
ENCODING 497
SWIDTH 500 0
DWIDTH 7 0
BBX 7 14 0 -2
BITMAP 
00
00
00
de
a6
a6
ac
ac
ac
a8
a8
de
00
00
ENDCHAR
STARTCHAR U+01F3
ENCODING 499
SWIDTH 500 0
DWIDTH 7 0
BBX 7 14 0 -2
BITMAP 
00
00
00
60
60
ee
a6
a6
ac
a8
a8
ee
00
00
ENDCHAR
STARTCHAR U+01F4
ENCODING 500
SWIDTH 500 0
DWIDTH 7 0
BBX 7 14 0 -2
BITMAP 
1c
70
00
7c
c6
c0
c0
c0
de
c6
ce
7a
00
00
ENDCHAR
STARTCHAR U+01F5
ENCODING 501
SWIDTH 500 0
DWIDTH 7 0
BBX 7 14 0 -2
BITMAP 
00
00
1c
70
00
7a
cc
cc
cc
78
60
dc
c6
7c
ENDCHAR
STARTCHAR U+01F8
ENCODING 504
SWIDTH 500 0
DWIDTH 7 0
BBX 7 14 0 -2
BITMAP 
70
fc
f4
ec
f4
f4
d4
dc
dc
dc
dc
ec
00
00
ENDCHAR
STARTCHAR U+01F9
ENCODING 505
SWIDTH 500 0
DWIDTH 7 0
BBX 7 14 0 -2
BITMAP 
30
30
18
00
f8
74
6c
6c
6c
6c
6c
fe
00
00
ENDCHAR
STARTCHAR U+01FA
ENCODING 506
SWIDTH 500 0
DWIDTH 7 0
BBX 7 14 0 -2
BITMAP 
18
30
38
6c
38
38
6c
c6
fe
c6
c6
c6
00
00
ENDCHAR
STARTCHAR U+01FB
ENCODING 507
SWIDTH 500 0
DWIDTH 7 0
BBX 7 14 0 -2
BITMAP 
18
30
38
6c
38
7c
c6
1e
76
c6
ce
7a
00
00
ENDCHAR
STARTCHAR U+01FC
ENCODING 508
SWIDTH 500 0
DWIDTH 7 0
BBX 7 14 0 -2
BITMAP 
1c
70
00
3e
68
d8
d8
fe
d8
d8
d8
de
00
00
ENDCHAR
STARTCHAR U+01FD
ENCODING 509
SWIDTH 500 0
DWIDTH 7 0
BBX 7 14 0 -2
BITMAP 
00
00
1c
70
00
7c
da
1a
7e
d8
d8
7e
00
00
ENDCHAR
STARTCHAR U+01FE
ENCODING 510
SWIDTH 500 0
DWIDTH 7 0
BBX 7 14 0 -2
BITMAP 
1c
70
06
7c
ce
da
da
da
d6
d6
e6
7c
c0
00
ENDCHAR
STARTCHAR U+01FF
ENCODING 511
SWIDTH 500 0
DWIDTH 7 0
BBX 7 14 0 -2
BITMAP 
00
00
1c
70
06
7c
ce
da
da
d6
e6
7c
c0
00
ENDCHAR
STARTCHAR U+0208
ENCODING 520
SWIDTH 500 0
DWIDTH 7 0
BBX 7 14 0 -2
BITMAP 
d8
6c
00
fc
30
30
30
30
30
30
30
fc
00
00
ENDCHAR
STARTCHAR U+0209
ENCODING 521
SWIDTH 500 0
DWIDTH 7 0
BBX 7 14 0 -2
BITMAP 
00
00
d8
6c
00
70
30
30
30
30
30
fc
00
00
ENDCHAR
STARTCHAR U+020A
ENCODING 522
SWIDTH 500 0
DWIDTH 7 0
BBX 7 14 0 -2
BITMAP 
78
cc
00
fc
30
30
30
30
30
30
30
fc
00
00
ENDCHAR
STARTCHAR U+020B
ENCODING 523
SWIDTH 500 0
DWIDTH 7 0
BBX 7 14 0 -2
BITMAP 
00
00
78
cc
00
70
30
30
30
30
30
fc
00
00
ENDCHAR
STARTCHAR U+0223
ENCODING 547
SWIDTH 500 0
DWIDTH 7 0
BBX 7 14 0 -2
BITMAP 
00
00
68
cc
cc
cc
78
cc
cc
cc
cc
78
00
00
ENDCHAR
STARTCHAR U+0232
ENCODING 562
SWIDTH 500 0
DWIDTH 7 0
BBX 7 14 0 -2
BITMAP 
fc
00
cc
cc
cc
68
68
30
30
30
30
30
00
00
ENDCHAR
STARTCHAR U+0250
ENCODING 592
SWIDTH 500 0
DWIDTH 7 0
BBX 7 14 0 -2
BITMAP 
00
00
00
00
d8
ec
ec
e8
f0
e8
68
78
00
00
ENDCHAR
STARTCHAR U+0251
ENCODING 593
SWIDTH 500 0
DWIDTH 7 0
BBX 7 14 0 -2
BITMAP 
00
00
00
00
3c
6c
ec
ec
ec
ec
6c
34
00
00
ENDCHAR
STARTCHAR U+0252
ENCODING 594
SWIDTH 500 0
DWIDTH 7 0
BBX 7 14 0 -2
BITMAP 
00
00
00
00
d0
e8
ec
ec
ec
ec
e8
f0
00
00
ENDCHAR
STARTCHAR U+0253
ENCODING 595
SWIDTH 500 0
DWIDTH 7 0
BBX 7 14 0 -2
BITMAP 
00
38
6c
6c
60
78
7c
6c
6c
6c
7c
f8
00
00
ENDCHAR
STARTCHAR U+0254
ENCODING 596
SWIDTH 500 0
DWIDTH 7 0
BBX 7 14 0 -2
BITMAP 
00
00
00
00
70
e8
dc
1c
1c
dc
e8
f0
00
00
ENDCHAR
STARTCHAR U+0255
ENCODING 597
SWIDTH 500 0
DWIDTH 7 0
BBX 7 14 0 -2
BITMAP 
00
00
00
00
38
6c
ec
e0
e8
ec
74
38
30
60
ENDCHAR
STARTCHAR U+0256
ENCODING 598
SWIDTH 500 0
DWIDTH 7 0
BBX 7 14 0 -2
BITMAP 
00
1c
1c
1c
3c
6c
ec
ec
ec
ec
6c
3c
1e
0e
ENDCHAR
STARTCHAR U+0257
ENCODING 599
SWIDTH 500 0
DWIDTH 7 0
BBX 7 14 0 -2
BITMAP 
00
1e
1a
18
78
f8
d8
d8
d8
d8
f8
7c
00
00
ENDCHAR
STARTCHAR U+0258
ENCODING 600
SWIDTH 500 0
DWIDTH 7 0
BBX 7 14 0 -2
BITMAP 
00
00
00
00
78
6c
ec
fc
0c
cc
ec
78
00
00
ENDCHAR
STARTCHAR U+0259
ENCODING 601
SWIDTH 500 0
DWIDTH 7 0
BBX 7 14 0 -2
BITMAP 
00
00
00
00
78
ec
cc
0c
fc
ec
6c
78
00
00
ENDCHAR
STARTCHAR U+025A
ENCODING 602
SWIDTH 500 0
DWIDTH 7 0
BBX 7 14 0 -2
BITMAP 
00
00
00
00
7a
fe
de
3c
6c
ec
68
78
00
00
ENDCHAR
STARTCHAR U+025C
ENCODING 604
SWIDTH 500 0
DWIDTH 7 0
BBX 7 14 0 -2
BITMAP 
00
00
00
00
78
ec
0c
3c
0c
cc
6c
78
00
00
ENDCHAR
STARTCHAR U+025E
ENCODING 606
SWIDTH 500 0
DWIDTH 7 0
BBX 7 14 0 -2
BITMAP 
00
00
00
00
78
6c
cc
dc
cc
cc
6c
78
00
00
ENDCHAR
STARTCHAR U+025F
ENCODING 607
SWIDTH 500 0
DWIDTH 7 0
BBX 7 14 0 -2
BITMAP 
00
00
00
00
00
7c
38
38
7c
38
38
f8
f0
70
ENDCHAR
STARTCHAR U+0260
ENCODING 608
SWIDTH 500 0
DWIDTH 7 0
BBX 7 14 0 -2
BITMAP 
00
00
00
0e
7a
e8
d8
d8
d8
f8
78
d8
d8
f0
ENDCHAR
STARTCHAR U+0261
ENCODING 609
SWIDTH 500 0
DWIDTH 7 0
BBX 7 14 0 -2
BITMAP 
00
00
00
00
3c
6c
ec
ec
ec
6c
3c
ec
e8
78
ENDCHAR
STARTCHAR U+0263
ENCODING 611
SWIDTH 500 0
DWIDTH 7 0
BBX 7 14 0 -2
BITMAP 
00
00
00
00
00
cc
cc
68
68
30
30
68
68
30
ENDCHAR
STARTCHAR U+0264
ENCODING 612
SWIDTH 500 0
DWIDTH 7 0
BBX 7 14 0 -2
BITMAP 
00
00
00
00
fc
6c
78
38
30
38
38
30
00
00
ENDCHAR
STARTCHAR U+0265
ENCODING 613
SWIDTH 500 0
DWIDTH 7 0
BBX 7 14 0 -2
BITMAP 
00
f4
6c
6c
6c
6c
6c
7c
3c
0c
0c
0e
00
00
ENDCHAR
STARTCHAR U+0266
ENCODING 614
SWIDTH 500 0
DWIDTH 7 0
BBX 7 14 0 -2
BITMAP 
00
38
6c
6c
60
78
7c
6c
6c
6c
6c
fe
00
00
ENDCHAR
STARTCHAR U+0267
ENCODING 615
SWIDTH 500 0
DWIDTH 7 0
BBX 7 14 0 -2
BITMAP 
00
38
6c
6c
60
78
7c
6c
6c
6c
6c
f4
34
38
ENDCHAR
STARTCHAR U+0268
ENCODING 616
SWIDTH 500 0
DWIDTH 7 0
BBX 7 14 0 -2
BITMAP 
00
00
30
30
00
70
30
30
fc
30
30
fc
00
00
ENDCHAR
STARTCHAR U+0269
ENCODING 617
SWIDTH 500 0
DWIDTH 7 0
BBX 7 14 0 -2
BITMAP 
00
00
00
00
00
70
30
30
30
30
30
1c
00
00
ENDCHAR
STARTCHAR U+026A
ENCODING 618
SWIDTH 500 0
DWIDTH 7 0
BBX 7 14 0 -2
BITMAP 
00
00
00
00
00
fc
30
30
30
30
30
fc
00
00
ENDCHAR
STARTCHAR U+026B
ENCODING 619
SWIDTH 500 0
DWIDTH 7 0
BBX 7 14 0 -2
BITMAP 
00
00
70
30
30
30
74
d8
30
30
30
fc
00
00
ENDCHAR
STARTCHAR U+026C
ENCODING 620
SWIDTH 500 0
DWIDTH 7 0
BBX 7 14 0 -2
BITMAP 
00
00
70
30
30
70
d0
78
30
30
30
fc
00
00
ENDCHAR
STARTCHAR U+026D
ENCODING 621
SWIDTH 500 0
DWIDTH 7 0
BBX 7 14 0 -2
BITMAP 
00
00
70
30
30
30
30
30
30
30
30
30
30
1c
ENDCHAR
STARTCHAR U+026E
ENCODING 622
SWIDTH 500 0
DWIDTH 7 0
BBX 7 14 0 -2
BITMAP 
00
e0
60
60
7e
6c
6c
6c
68
7c
6e
f6
74
3c
ENDCHAR
STARTCHAR U+026F
ENCODING 623
SWIDTH 500 0
DWIDTH 7 0
BBX 7 14 0 -2
BITMAP 
00
00
00
00
00
cc
d4
d4
d4
d4
d4
6c
00
00
ENDCHAR
STARTCHAR U+0270
ENCODING 624
SWIDTH 500 0
DWIDTH 7 0
BBX 7 14 0 -2
BITMAP 
00
00
00
00
00
cc
d4
d4
d4
d4
d4
6c
0c
0c
ENDCHAR
STARTCHAR U+0271
ENCODING 625
SWIDTH 500 0
DWIDTH 7 0
BBX 7 14 0 -2
BITMAP 
00
00
00
00
00
e8
d4
d4
d4
d4
d4
cc
0c
38
ENDCHAR
STARTCHAR U+0272
ENCODING 626
SWIDTH 500 0
DWIDTH 7 0
BBX 7 14 0 -2
BITMAP 
00
00
00
00
78
74
74
74
74
74
74
fe
e0
e0
ENDCHAR
STARTCHAR U+0273
ENCODING 627
SWIDTH 500 0
DWIDTH 7 0
BBX 7 14 0 -2
BITMAP 
00
00
00
00
f8
e8
ec
ec
ec
ec
ec
ec
1e
0e
ENDCHAR
STARTCHAR U+0275
ENCODING 629
SWIDTH 500 0
DWIDTH 7 0
BBX 7 14 0 -2
BITMAP 
00
00
00
00
78
6c
ec
fc
ec
ec
6c
38
00
00
ENDCHAR
STARTCHAR U+0277
ENCODING 631
SWIDTH 500 0
DWIDTH 7 0
BBX 7 14 0 -2
BITMAP 
00
00
00
00
00
78
cc
d4
d4
d4
d4
68
00
00
ENDCHAR
STARTCHAR U+0278
ENCODING 632
SWIDTH 500 0
DWIDTH 7 0
BBX 7 14 0 -2
BITMAP 
00
00
00
30
30
78
d4
d4
d4
d4
d4
78
30
30
ENDCHAR
STARTCHAR U+0279
ENCODING 633
SWIDTH 500 0
DWIDTH 7 0
BBX 7 14 0 -2
BITMAP 
00
00
00
00
3c
18
18
18
18
e8
f8
7c
00
00
ENDCHAR
STARTCHAR U+027A
ENCODING 634
SWIDTH 500 0
DWIDTH 7 0
BBX 7 14 0 -2
BITMAP 
00
3c
18
18
18
18
18
18
18
e8
f8
7c
00
00
ENDCHAR
STARTCHAR U+027B
ENCODING 635
SWIDTH 500 0
DWIDTH 7 0
BBX 7 14 0 -2
BITMAP 
00
00
00
00
3c
18
18
18
18
e8
f8
78
1a
1e
ENDCHAR
STARTCHAR U+027C
ENCODING 636
SWIDTH 500 0
DWIDTH 7 0
BBX 7 14 0 -2
BITMAP 
00
00
00
dc
e6
c0
c0
c0
c0
c0
c0
c0
00
00
ENDCHAR
STARTCHAR U+027D
ENCODING 637
SWIDTH 500 0
DWIDTH 7 0
BBX 7 14 0 -2
BITMAP 
00
00
00
00
f8
7c
6c
60
60
60
60
60
68
78
ENDCHAR
STARTCHAR U+027E
ENCODING 638
SWIDTH 500 0
DWIDTH 7 0
BBX 7 14 0 -2
BITMAP 
00
00
00
00
38
34
3c
3c
30
30
30
78
00
00
ENDCHAR
STARTCHAR U+0281
ENCODING 641
SWIDTH 500 0
DWIDTH 7 0
BBX 7 14 0 -2
BITMAP 
00
00
00
00
ec
6c
78
7c
6c
6c
7c
f8
00
00
ENDCHAR
STARTCHAR U+0282
ENCODING 642
SWIDTH 500 0
DWIDTH 7 0
BBX 7 14 0 -2
BITMAP 
00
00
00
00
78
e8
e0
70
38
dc
ec
f8
c0
60
ENDCHAR
STARTCHAR U+0283
ENCODING 643
SWIDTH 500 0
DWIDTH 7 0
BBX 7 14 0 -2
BITMAP 
00
18
34
34
30
30
30
30
30
30
30
d0
d0
60
ENDCHAR
STARTCHAR U+0284
ENCODING 644
SWIDTH 500 0
DWIDTH 7 0
BBX 7 14 0 -2
BITMAP 
00
18
34
34
30
30
30
30
30
78
30
d0
d0
60
ENDCHAR
STARTCHAR U+0285
ENCODING 645
SWIDTH 500 0
DWIDTH 7 0
BBX 7 14 0 -2
BITMAP 
00
00
00
00
60
d0
d0
30
30
34
34
18
00
00
ENDCHAR
STARTCHAR U+0286
ENCODING 646
SWIDTH 500 0
DWIDTH 7 0
BBX 7 14 0 -2
BITMAP 
00
18
34
34
30
30
30
30
30
30
78
d4
d4
60
ENDCHAR
STARTCHAR U+0287
ENCODING 647
SWIDTH 500 0
DWIDTH 7 0
BBX 7 14 0 -2
BITMAP 
00
00
00
00
00
e0
b0
30
30
30
fc
30
30
30
ENDCHAR
STARTCHAR U+0288
ENCODING 648
SWIDTH 500 0
DWIDTH 7 0
BBX 7 14 0 -2
BITMAP 
00
00
30
70
70
fc
70
70
70
70
70
70
78
38
ENDCHAR
STARTCHAR U+0289
ENCODING 649
SWIDTH 500 0
DWIDTH 7 0
BBX 7 14 0 -2
BITMAP 
00
00
00
00
ec
6c
6c
fe
6c
6c
6c
7e
00
00
ENDCHAR
STARTCHAR U+028A
ENCODING 650
SWIDTH 500 0
DWIDTH 7 0
BBX 7 14 0 -2
BITMAP 
00
00
00
00
fc
dc
68
6c
ec
ec
6c
78
00
00
ENDCHAR
STARTCHAR U+028B
ENCODING 651
SWIDTH 500 0
DWIDTH 7 0
BBX 7 14 0 -2
BITMAP 
00
00
00
00
ec
6c
6c
6c
6c
6c
6c
78
00
00
ENDCHAR
STARTCHAR U+028C
ENCODING 652
SWIDTH 500 0
DWIDTH 7 0
BBX 7 14 0 -2
BITMAP 
00
00
00
00
00
30
30
68
68
cc
cc
cc
00
00
ENDCHAR
STARTCHAR U+028D
ENCODING 653
SWIDTH 500 0
DWIDTH 7 0
BBX 7 14 0 -2
BITMAP 
00
00
00
00
00
68
d4
d4
d4
d4
cc
cc
00
00
ENDCHAR
STARTCHAR U+028E
ENCODING 654
SWIDTH 500 0
DWIDTH 7 0
BBX 7 14 0 -2
BITMAP 
00
00
1c
34
34
30
38
78
68
68
6c
fc
00
00
ENDCHAR
STARTCHAR U+0290
ENCODING 656
SWIDTH 500 0
DWIDTH 7 0
BBX 7 14 0 -2
BITMAP 
00
00
00
00
fc
d8
38
30
70
60
ec
fc
0e
0e
ENDCHAR
STARTCHAR U+0291
ENCODING 657
SWIDTH 500 0
DWIDTH 7 0
BBX 7 14 0 -2
BITMAP 
00
00
00
00
fc
d8
38
30
78
6c
f4
fc
30
60
ENDCHAR
STARTCHAR U+0292
ENCODING 658
SWIDTH 500 0
DWIDTH 7 0
BBX 7 14 0 -2
BITMAP 
00
00
00
00
00
fc
18
30
78
0c
0c
0c
cc
78
ENDCHAR
STARTCHAR U+0294
ENCODING 660
SWIDTH 500 0
DWIDTH 7 0
BBX 7 14 0 -2
BITMAP 
00
00
78
cc
cc
18
30
30
30
30
30
30
00
00
ENDCHAR
STARTCHAR U+0295
ENCODING 661
SWIDTH 500 0
DWIDTH 7 0
BBX 7 14 0 -2
BITMAP 
00
00
78
cc
cc
60
30
30
30
30
30
30
00
00
ENDCHAR
STARTCHAR U+0296
ENCODING 662
SWIDTH 500 0
DWIDTH 7 0
BBX 7 14 0 -2
BITMAP 
00
00
30
30
30
30
30
30
18
cc
cc
78
00
00
ENDCHAR
STARTCHAR U+0298
ENCODING 664
SWIDTH 500 0
DWIDTH 7 0
BBX 7 14 0 -2
BITMAP 
00
00
78
ec
cc
cc
d4
d4
cc
cc
ec
78
00
00
ENDCHAR
STARTCHAR U+029D
ENCODING 669
SWIDTH 500 0
DWIDTH 7 0
BBX 7 14 0 -2
BITMAP 
00
30
38
30
00
78
30
30
30
30
30
f8
d0
70
ENDCHAR
STARTCHAR U+02A1
ENCODING 673
SWIDTH 500 0
DWIDTH 7 0
BBX 7 14 0 -2
BITMAP 
00
00
78
cc
cc
18
30
30
fc
30
30
30
00
00
ENDCHAR
STARTCHAR U+02A2
ENCODING 674
SWIDTH 500 0
DWIDTH 7 0
BBX 7 14 0 -2
BITMAP 
00
00
78
cc
cc
60
30
30
fc
30
30
30
00
00
ENDCHAR
STARTCHAR U+02AC
ENCODING 684
SWIDTH 500 0
DWIDTH 7 0
BBX 7 14 0 -2
BITMAP 
00
00
00
d4
d4
68
68
00
d4
d4
68
68
00
00
ENDCHAR
STARTCHAR U+02AD
ENCODING 685
SWIDTH 500 0
DWIDTH 7 0
BBX 7 14 0 -2
BITMAP 
00
00
00
00
fc
cc
cc
00
fc
cc
cc
00
00
00
ENDCHAR
STARTCHAR U+02B0
ENCODING 688
SWIDTH 500 0
DWIDTH 7 0
BBX 7 14 0 -2
BITMAP 
00
c0
c0
e0
d0
d0
00
00
00
00
00
00
00
00
ENDCHAR
STARTCHAR U+02B1
ENCODING 689
SWIDTH 500 0
DWIDTH 7 0
BBX 7 14 0 -2
BITMAP 
00
60
c0
e0
d0
d0
00
00
00
00
00
00
00
00
ENDCHAR
STARTCHAR U+02B2
ENCODING 690
SWIDTH 500 0
DWIDTH 7 0
BBX 7 14 0 -2
BITMAP 
00
30
00
30
30
30
d0
60
00
00
00
00
00
00
ENDCHAR
STARTCHAR U+02B3
ENCODING 691
SWIDTH 500 0
DWIDTH 7 0
BBX 7 14 0 -2
BITMAP 
00
00
e0
d0
c0
c0
00
00
00
00
00
00
00
00
ENDCHAR
STARTCHAR U+02B4
ENCODING 692
SWIDTH 500 0
DWIDTH 7 0
BBX 7 14 0 -2
BITMAP 
00
00
30
30
d0
70
00
00
00
00
00
00
00
00
ENDCHAR
STARTCHAR U+02B5
ENCODING 693
SWIDTH 500 0
DWIDTH 7 0
BBX 7 14 0 -2
BITMAP 
00
00
30
30
d0
70
38
00
00
00
00
00
00
00
ENDCHAR
STARTCHAR U+02B6
ENCODING 694
SWIDTH 500 0
DWIDTH 7 0
BBX 7 14 0 -2
BITMAP 
00
00
d0
e0
d0
e0
00
00
00
00
00
00
00
00
ENDCHAR
STARTCHAR U+02B7
ENCODING 695
SWIDTH 500 0
DWIDTH 7 0
BBX 7 14 0 -2
BITMAP 
00
00
d4
d4
68
68
00
00
00
00
00
00
00
00
ENDCHAR
STARTCHAR U+02B8
ENCODING 696
SWIDTH 500 0
DWIDTH 7 0
BBX 7 14 0 -2
BITMAP 
00
00
d0
d0
60
60
c0
00
00
00
00
00
00
00
ENDCHAR
STARTCHAR U+02B9
ENCODING 697
SWIDTH 500 0
DWIDTH 7 0
BBX 7 14 0 -2
BITMAP 
00
60
60
c0
c0
00
00
00
00
00
00
00
00
00
ENDCHAR
STARTCHAR U+02BA
ENCODING 698
SWIDTH 500 0
DWIDTH 7 0
BBX 7 14 0 -2
BITMAP 
00
6c
6c
d8
d8
00
00
00
00
00
00
00
00
00
ENDCHAR
STARTCHAR U+02BB
ENCODING 699
SWIDTH 500 0
DWIDTH 7 0
BBX 7 14 0 -2
BITMAP 
00
30
60
60
70
00
00
00
00
00
00
00
00
00
ENDCHAR
STARTCHAR U+02BC
ENCODING 700
SWIDTH 500 0
DWIDTH 7 0
BBX 7 14 0 -2
BITMAP 
00
00
70
30
30
60
00
00
00
00
00
00
00
00
ENDCHAR
STARTCHAR U+02BD
ENCODING 701
SWIDTH 500 0
DWIDTH 7 0
BBX 7 14 0 -2
BITMAP 
00
00
38
30
30
18
00
00
00
00
00
00
00
00
ENDCHAR
STARTCHAR U+02BE
ENCODING 702
SWIDTH 500 0
DWIDTH 7 0
BBX 7 14 0 -2
BITMAP 
00
60
30
30
60
00
00
00
00
00
00
00
00
00
ENDCHAR
STARTCHAR U+02BF
ENCODING 703
SWIDTH 500 0
DWIDTH 7 0
BBX 7 14 0 -2
BITMAP 
00
30
60
60
30
00
00
00
00
00
00
00
00
00
ENDCHAR
STARTCHAR U+02C0
ENCODING 704
SWIDTH 500 0
DWIDTH 7 0
BBX 7 14 0 -2
BITMAP 
00
e0
30
60
60
60
00
00
00
00
00
00
00
00
ENDCHAR
STARTCHAR U+02C1
ENCODING 705
SWIDTH 500 0
DWIDTH 7 0
BBX 7 14 0 -2
BITMAP 
00
70
c0
60
60
60
00
00
00
00
00
00
00
00
ENDCHAR
STARTCHAR U+02C2
ENCODING 706
SWIDTH 500 0
DWIDTH 7 0
BBX 7 14 0 -2
BITMAP 
00
38
e0
38
00
00
00
00
00
00
00
00
00
00
ENDCHAR
STARTCHAR U+02C3
ENCODING 707
SWIDTH 500 0
DWIDTH 7 0
BBX 7 14 0 -2
BITMAP 
00
e0
38
e0
00
00
00
00
00
00
00
00
00
00
ENDCHAR
STARTCHAR U+02C4
ENCODING 708
SWIDTH 500 0
DWIDTH 7 0
BBX 7 14 0 -2
BITMAP 
00
30
68
cc
00
00
00
00
00
00
00
00
00
00
ENDCHAR
STARTCHAR U+02C5
ENCODING 709
SWIDTH 500 0
DWIDTH 7 0
BBX 7 14 0 -2
BITMAP 
00
cc
68
30
00
00
00
00
00
00
00
00
00
00
ENDCHAR
STARTCHAR U+02C6
ENCODING 710
SWIDTH 500 0
DWIDTH 7 0
BBX 7 14 0 -2
BITMAP 
38
6c
00
00
00
00
00
00
00
00
00
00
00
00
ENDCHAR
STARTCHAR U+02C7
ENCODING 711
SWIDTH 500 0
DWIDTH 7 0
BBX 7 14 0 -2
BITMAP 
6c
38
00
00
00
00
00
00
00
00
00
00
00
00
ENDCHAR
STARTCHAR U+02C8
ENCODING 712
SWIDTH 500 0
DWIDTH 7 0
BBX 7 14 0 -2
BITMAP 
00
30
30
30
00
00
00
00
00
00
00
00
00
00
ENDCHAR
STARTCHAR U+02C9
ENCODING 713
SWIDTH 500 0
DWIDTH 7 0
BBX 7 14 0 -2
BITMAP 
00
7c
00
00
00
00
00
00
00
00
00
00
00
00
ENDCHAR
STARTCHAR U+02CA
ENCODING 714
SWIDTH 500 0
DWIDTH 7 0
BBX 7 14 0 -2
BITMAP 
00
30
60
00
00
00
00
00
00
00
00
00
00
00
ENDCHAR
STARTCHAR U+02CB
ENCODING 715
SWIDTH 500 0
DWIDTH 7 0
BBX 7 14 0 -2
BITMAP 
00
60
30
00
00
00
00
00
00
00
00
00
00
00
ENDCHAR
STARTCHAR U+02CC
ENCODING 716
SWIDTH 500 0
DWIDTH 7 0
BBX 7 14 0 -2
BITMAP 
00
00
00
00
00
00
00
00
00
00
30
30
30
00
ENDCHAR
STARTCHAR U+02CD
ENCODING 717
SWIDTH 500 0
DWIDTH 7 0
BBX 7 14 0 -2
BITMAP 
00
00
00
00
00
00
00
00
00
00
00
00
fc
00
ENDCHAR
STARTCHAR U+02CE
ENCODING 718
SWIDTH 500 0
DWIDTH 7 0
BBX 7 14 0 -2
BITMAP 
00
00
00
00
00
00
00
00
00
00
00
60
30
00
ENDCHAR
STARTCHAR U+02CF
ENCODING 719
SWIDTH 500 0
DWIDTH 7 0
BBX 7 14 0 -2
BITMAP 
00
00
00
00
00
00
00
00
00
00
00
30
60
00
ENDCHAR
STARTCHAR U+02D0
ENCODING 720
SWIDTH 500 0
DWIDTH 7 0
BBX 7 14 0 -2
BITMAP 
00
00
00
00
00
78
30
00
00
00
30
78
00
00
ENDCHAR
STARTCHAR U+02D1
ENCODING 721
SWIDTH 500 0
DWIDTH 7 0
BBX 7 14 0 -2
BITMAP 
00
00
00
00
00
78
30
00
00
00
00
00
00
00
ENDCHAR
STARTCHAR U+02D2
ENCODING 722
SWIDTH 500 0
DWIDTH 7 0
BBX 7 14 0 -2
BITMAP 
00
00
00
00
00
00
60
30
30
60
00
00
00
00
ENDCHAR
STARTCHAR U+02D3
ENCODING 723
SWIDTH 500 0
DWIDTH 7 0
BBX 7 14 0 -2
BITMAP 
00
00
00
00
00
00
30
60
60
30
00
00
00
00
ENDCHAR
STARTCHAR U+02D4
ENCODING 724
SWIDTH 500 0
DWIDTH 7 0
BBX 7 14 0 -2
BITMAP 
30
78
00
00
00
00
00
00
00
00
00
00
00
00
ENDCHAR
STARTCHAR U+02D5
ENCODING 725
SWIDTH 500 0
DWIDTH 7 0
BBX 7 14 0 -2
BITMAP 
00
78
30
00
00
00
00
00
00
00
00
00
00
00
ENDCHAR
STARTCHAR U+02D6
ENCODING 726
SWIDTH 500 0
DWIDTH 7 0
BBX 7 14 0 -2
BITMAP 
30
78
30
00
00
00
00
00
00
00
00
00
00
00
ENDCHAR
STARTCHAR U+02D7
ENCODING 727
SWIDTH 500 0
DWIDTH 7 0
BBX 7 14 0 -2
BITMAP 
00
78
00
00
00
00
00
00
00
00
00
00
00
00
ENDCHAR
STARTCHAR U+02D8
ENCODING 728
SWIDTH 500 0
DWIDTH 7 0
BBX 7 14 0 -2
BITMAP 
cc
78
00
00
00
00
00
00
00
00
00
00
00
00
ENDCHAR
STARTCHAR U+02D9
ENCODING 729
SWIDTH 500 0
DWIDTH 7 0
BBX 7 14 0 -2
BITMAP 
30
30
00
00
00
00
00
00
00
00
00
00
00
00
ENDCHAR
STARTCHAR U+02DA
ENCODING 730
SWIDTH 500 0
DWIDTH 7 0
BBX 7 14 0 -2
BITMAP 
38
6c
38
00
00
00
00
00
00
00
00
00
00
00
ENDCHAR
STARTCHAR U+02DB
ENCODING 731
SWIDTH 500 0
DWIDTH 7 0
BBX 7 14 0 -2
BITMAP 
00
00
00
00
00
00
00
00
00
00
00
00
30
1c
ENDCHAR
STARTCHAR U+02DC
ENCODING 732
SWIDTH 500 0
DWIDTH 7 0
BBX 7 14 0 -2
BITMAP 
76
dc
00
00
00
00
00
00
00
00
00
00
00
00
ENDCHAR
STARTCHAR U+02DD
ENCODING 733
SWIDTH 500 0
DWIDTH 7 0
BBX 7 14 0 -2
BITMAP 
6c
d8
00
00
00
00
00
00
00
00
00
00
00
00
ENDCHAR
STARTCHAR U+02DE
ENCODING 734
SWIDTH 500 0
DWIDTH 7 0
BBX 7 14 0 -2
BITMAP 
00
00
00
00
00
c0
c0
70
00
00
00
00
00
00
ENDCHAR
STARTCHAR U+02DF
ENCODING 735
SWIDTH 500 0
DWIDTH 7 0
BBX 7 14 0 -2
BITMAP 
00
00
00
00
00
66
34
18
34
66
00
00
00
00
ENDCHAR
STARTCHAR U+02E0
ENCODING 736
SWIDTH 500 0
DWIDTH 7 0
BBX 7 14 0 -2
BITMAP 
00
00
d0
d0
60
70
00
00
00
00
00
00
00
00
ENDCHAR
STARTCHAR U+02E1
ENCODING 737
SWIDTH 500 0
DWIDTH 7 0
BBX 7 14 0 -2
BITMAP 
00
00
60
60
60
30
00
00
00
00
00
00
00
00
ENDCHAR
STARTCHAR U+02E2
ENCODING 738
SWIDTH 500 0
DWIDTH 7 0
BBX 7 14 0 -2
BITMAP 
00
00
60
c0
60
c0
00
00
00
00
00
00
00
00
ENDCHAR
STARTCHAR U+02E3
ENCODING 739
SWIDTH 500 0
DWIDTH 7 0
BBX 7 14 0 -2
BITMAP 
00
00
d0
60
d0
d0
00
00
00
00
00
00
00
00
ENDCHAR
STARTCHAR U+02E4
ENCODING 740
SWIDTH 500 0
DWIDTH 7 0
BBX 7 14 0 -2
BITMAP 
00
60
c0
60
60
00
00
00
00
00
00
00
00
00
ENDCHAR
STARTCHAR U+02E5
ENCODING 741
SWIDTH 500 0
DWIDTH 7 0
BBX 7 14 0 -2
BITMAP 
00
00
00
f0
30
30
30
30
30
30
30
30
00
00
ENDCHAR
STARTCHAR U+02E6
ENCODING 742
SWIDTH 500 0
DWIDTH 7 0
BBX 7 14 0 -2
BITMAP 
00
00
00
30
30
f0
30
30
30
30
30
30
00
00
ENDCHAR
STARTCHAR U+02E7
ENCODING 743
SWIDTH 500 0
DWIDTH 7 0
BBX 7 14 0 -2
BITMAP 
00
00
00
30
30
30
30
f0
30
30
30
30
00
00
ENDCHAR
STARTCHAR U+02E8
ENCODING 744
SWIDTH 500 0
DWIDTH 7 0
BBX 7 14 0 -2
BITMAP 
00
00
00
30
30
30
30
30
30
f0
30
30
00
00
ENDCHAR
STARTCHAR U+02E9
ENCODING 745
SWIDTH 500 0
DWIDTH 7 0
BBX 7 14 0 -2
BITMAP 
00
00
00
30
30
30
30
30
30
30
30
f0
00
00
ENDCHAR
STARTCHAR U+02EA
ENCODING 746
SWIDTH 500 0
DWIDTH 7 0
BBX 7 14 0 -2
BITMAP 
00
00
00
00
00
00
00
c0
c0
c0
c0
f0
00
00
ENDCHAR
STARTCHAR U+02EB
ENCODING 747
SWIDTH 500 0
DWIDTH 7 0
BBX 7 14 0 -2
BITMAP 
00
00
00
00
00
00
00
c0
c0
f0
c0
c0
00
00
ENDCHAR
STARTCHAR U+02EC
ENCODING 748
SWIDTH 500 0
DWIDTH 7 0
BBX 7 14 0 -2
BITMAP 
00
00
00
00
00
00
00
00
00
00
cc
68
30
00
ENDCHAR
STARTCHAR U+02ED
ENCODING 749
SWIDTH 500 0
DWIDTH 7 0
BBX 7 14 0 -2
BITMAP 
00
fc
00
fc
00
00
00
00
00
00
00
00
00
00
ENDCHAR
STARTCHAR U+02EE
ENCODING 750
SWIDTH 500 0
DWIDTH 7 0
BBX 7 14 0 -2
BITMAP 
00
00
ec
6c
6c
d8
00
00
00
00
00
00
00
00
ENDCHAR
STARTCHAR U+0300
ENCODING 768
SWIDTH 500 0
DWIDTH 7 0
BBX 7 14 0 -2
BITMAP 
e0
38
00
00
00
00
00
00
00
00
00
00
00
00
ENDCHAR
STARTCHAR U+0301
ENCODING 769
SWIDTH 500 0
DWIDTH 7 0
BBX 7 14 0 -2
BITMAP 
00
1c
70
00
00
00
00
00
00
00
00
00
00
00
ENDCHAR
STARTCHAR U+0302
ENCODING 770
SWIDTH 500 0
DWIDTH 7 0
BBX 7 14 0 -2
BITMAP 
00
38
6c
c6
00
00
00
00
00
00
00
00
00
00
ENDCHAR
STARTCHAR U+0303
ENCODING 771
SWIDTH 500 0
DWIDTH 7 0
BBX 7 14 0 -2
BITMAP 
76
dc
00
00
00
00
00
00
00
00
00
00
00
00
ENDCHAR
STARTCHAR U+0304
ENCODING 772
SWIDTH 500 0
DWIDTH 7 0
BBX 7 14 0 -2
BITMAP 
7c
00
00
00
00
00
00
00
00
00
00
00
00
00
ENDCHAR
STARTCHAR U+0305
ENCODING 773
SWIDTH 500 0
DWIDTH 7 0
BBX 7 14 0 -2
BITMAP 
fc
00
00
00
00
00
00
00
00
00
00
00
00
00
ENDCHAR
STARTCHAR U+0306
ENCODING 774
SWIDTH 500 0
DWIDTH 7 0
BBX 7 14 0 -2
BITMAP 
00
c6
7c
00
00
00
00
00
00
00
00
00
00
00
ENDCHAR
STARTCHAR U+0307
ENCODING 775
SWIDTH 500 0
DWIDTH 7 0
BBX 7 14 0 -2
BITMAP 
00
30
30
00
00
00
00
00
00
00
00
00
00
00
ENDCHAR
STARTCHAR U+0308
ENCODING 776
SWIDTH 500 0
DWIDTH 7 0
BBX 7 14 0 -2
BITMAP 
00
6c
6c
00
00
00
00
00
00
00
00
00
00
00
ENDCHAR
STARTCHAR U+0309
ENCODING 777
SWIDTH 500 0
DWIDTH 7 0
BBX 7 14 0 -2
BITMAP 
70
30
00
00
00
00
00
00
00
00
00
00
00
00
ENDCHAR
STARTCHAR U+030A
ENCODING 778
SWIDTH 500 0
DWIDTH 7 0
BBX 7 14 0 -2
BITMAP 
38
6c
38
00
00
00
00
00
00
00
00
00
00
00
ENDCHAR
STARTCHAR U+030B
ENCODING 779
SWIDTH 500 0
DWIDTH 7 0
BBX 7 14 0 -2
BITMAP 
6c
d8
00
00
00
00
00
00
00
00
00
00
00
00
ENDCHAR
STARTCHAR U+030C
ENCODING 780
SWIDTH 500 0
DWIDTH 7 0
BBX 7 14 0 -2
BITMAP 
cc
68
30
00
00
00
00
00
00
00
00
00
00
00
ENDCHAR
STARTCHAR U+030D
ENCODING 781
SWIDTH 500 0
DWIDTH 7 0
BBX 7 14 0 -2
BITMAP 
30
30
30
30
00
00
00
00
00
00
00
00
00
00
ENDCHAR
STARTCHAR U+030E
ENCODING 782
SWIDTH 500 0
DWIDTH 7 0
BBX 7 14 0 -2
BITMAP 
68
68
68
68
00
00
00
00
00
00
00
00
00
00
ENDCHAR
STARTCHAR U+030F
ENCODING 783
SWIDTH 500 0
DWIDTH 7 0
BBX 7 14 0 -2
BITMAP 
dc
66
00
00
00
00
00
00
00
00
00
00
00
00
ENDCHAR
STARTCHAR U+0310
ENCODING 784
SWIDTH 500 0
DWIDTH 7 0
BBX 7 14 0 -2
BITMAP 
38
c6
7c
00
00
00
00
00
00
00
00
00
00
00
ENDCHAR
STARTCHAR U+0311
ENCODING 785
SWIDTH 500 0
DWIDTH 7 0
BBX 7 14 0 -2
BITMAP 
78
cc
cc
00
00
00
00
00
00
00
00
00
00
00
ENDCHAR
STARTCHAR U+0312
ENCODING 786
SWIDTH 500 0
DWIDTH 7 0
BBX 7 14 0 -2
BITMAP 
00
30
60
70
00
00
00
00
00
00
00
00
00
00
ENDCHAR
STARTCHAR U+0313
ENCODING 787
SWIDTH 500 0
DWIDTH 7 0
BBX 7 14 0 -2
BITMAP 
00
70
30
60
00
00
00
00
00
00
00
00
00
00
ENDCHAR
STARTCHAR U+0314
ENCODING 788
SWIDTH 500 0
DWIDTH 7 0
BBX 7 14 0 -2
BITMAP 
00
70
60
30
00
00
00
00
00
00
00
00
00
00
ENDCHAR
STARTCHAR U+0315
ENCODING 789
SWIDTH 500 0
DWIDTH 7 0
BBX 7 14 0 -2
BITMAP 
00
00
1c
0c
18
00
00
00
00
00
00
00
00
00
ENDCHAR
STARTCHAR U+0316
ENCODING 790
SWIDTH 500 0
DWIDTH 7 0
BBX 7 14 0 -2
BITMAP 
00
00
00
00
00
00
00
00
00
00
00
00
e0
38
ENDCHAR
STARTCHAR U+0317
ENCODING 791
SWIDTH 500 0
DWIDTH 7 0
BBX 7 14 0 -2
BITMAP 
00
00
00
00
00
00
00
00
00
00
00
00
1c
70
ENDCHAR
STARTCHAR U+0318
ENCODING 792
SWIDTH 500 0
DWIDTH 7 0
BBX 7 14 0 -2
BITMAP 
00
00
00
00
00
00
00
00
00
00
18
78
18
00
ENDCHAR
STARTCHAR U+0319
ENCODING 793
SWIDTH 500 0
DWIDTH 7 0
BBX 7 14 0 -2
BITMAP 
00
00
00
00
00
00
00
00
00
00
60
78
60
00
ENDCHAR
STARTCHAR U+031A
ENCODING 794
SWIDTH 500 0
DWIDTH 7 0
BBX 7 14 0 -2
BITMAP 
00
fc
0c
0c
00
00
00
00
00
00
00
00
00
00
ENDCHAR
STARTCHAR U+031B
ENCODING 795
SWIDTH 500 0
DWIDTH 7 0
BBX 7 14 0 -2
BITMAP 
00
00
06
06
0c
00
00
00
00
00
00
00
00
00
ENDCHAR
STARTCHAR U+031C
ENCODING 796
SWIDTH 500 0
DWIDTH 7 0
BBX 7 14 0 -2
BITMAP 
00
00
00
00
00
00
00
00
00
00
00
38
60
38
ENDCHAR
STARTCHAR U+031D
ENCODING 797
SWIDTH 500 0
DWIDTH 7 0
BBX 7 14 0 -2
BITMAP 
00
00
00
00
00
00
00
00
00
00
30
30
78
00
ENDCHAR
STARTCHAR U+031E
ENCODING 798
SWIDTH 500 0
DWIDTH 7 0
BBX 7 14 0 -2
BITMAP 
00
00
00
00
00
00
00
00
00
00
00
78
30
30
ENDCHAR
STARTCHAR U+031F
ENCODING 799
SWIDTH 500 0
DWIDTH 7 0
BBX 7 14 0 -2
BITMAP 
00
00
00
00
00
00
00
00
00
30
30
fc
30
30
ENDCHAR
STARTCHAR U+0320
ENCODING 800
SWIDTH 500 0
DWIDTH 7 0
BBX 7 14 0 -2
BITMAP 
00
00
00
00
00
00
00
00
00
00
00
00
78
00
ENDCHAR
STARTCHAR U+0321
ENCODING 801
SWIDTH 500 0
DWIDTH 7 0
BBX 7 14 0 -2
BITMAP 
00
00
00
00
00
00
00
00
00
00
00
0c
34
1c
ENDCHAR
STARTCHAR U+0322
ENCODING 802
SWIDTH 500 0
DWIDTH 7 0
BBX 7 14 0 -2
BITMAP 
00
00
00
00
00
00
00
00
00
00
00
18
1a
1c
ENDCHAR
STARTCHAR U+0323
ENCODING 803
SWIDTH 500 0
DWIDTH 7 0
BBX 7 14 0 -2
BITMAP 
00
00
00
00
00
00
00
00
00
00
00
00
00
30
ENDCHAR
STARTCHAR U+0324
ENCODING 804
SWIDTH 500 0
DWIDTH 7 0
BBX 7 14 0 -2
BITMAP 
00
00
00
00
00
00
00
00
00
00
00
00
00
68
ENDCHAR
STARTCHAR U+0325
ENCODING 805
SWIDTH 500 0
DWIDTH 7 0
BBX 7 14 0 -2
BITMAP 
00
00
00
00
00
00
00
00
00
00
00
30
68
30
ENDCHAR
STARTCHAR U+0326
ENCODING 806
SWIDTH 500 0
DWIDTH 7 0
BBX 7 14 0 -2
BITMAP 
00
00
00
00
00
00
00
00
00
00
00
70
30
60
ENDCHAR
STARTCHAR U+0327
ENCODING 807
SWIDTH 500 0
DWIDTH 7 0
BBX 7 14 0 -2
BITMAP 
00
00
00
00
00
00
00
00
00
00
00
30
18
70
ENDCHAR
STARTCHAR U+0328
ENCODING 808
SWIDTH 500 0
DWIDTH 7 0
BBX 7 14 0 -2
BITMAP 
00
00
00
00
00
00
00
00
00
00
00
18
36
1c
ENDCHAR
STARTCHAR U+0329
ENCODING 809
SWIDTH 500 0
DWIDTH 7 0
BBX 7 14 0 -2
BITMAP 
00
00
00
00
00
00
00
00
00
00
00
30
30
30
ENDCHAR
STARTCHAR U+032A
ENCODING 810
SWIDTH 500 0
DWIDTH 7 0
BBX 7 14 0 -2
BITMAP 
00
00
00
00
00
00
00
00
00
00
00
fc
cc
00
ENDCHAR
STARTCHAR U+032B
ENCODING 811
SWIDTH 500 0
DWIDTH 7 0
BBX 7 14 0 -2
BITMAP 
00
00
00
00
00
00
00
00
00
00
00
d4
d4
68
ENDCHAR
STARTCHAR U+032C
ENCODING 812
SWIDTH 500 0
DWIDTH 7 0
BBX 7 14 0 -2
BITMAP 
00
00
00
00
00
00
00
00
00
00
00
cc
68
30
ENDCHAR
STARTCHAR U+032D
ENCODING 813
SWIDTH 500 0
DWIDTH 7 0
BBX 7 14 0 -2
BITMAP 
00
00
00
00
00
00
00
00
00
00
00
38
6c
c6
ENDCHAR
STARTCHAR U+032E
ENCODING 814
SWIDTH 500 0
DWIDTH 7 0
BBX 7 14 0 -2
BITMAP 
00
00
00
00
00
00
00
00
00
00
00
c6
c6
7c
ENDCHAR
STARTCHAR U+032F
ENCODING 815
SWIDTH 500 0
DWIDTH 7 0
BBX 7 14 0 -2
BITMAP 
00
00
00
00
00
00
00
00
00
00
00
78
cc
cc
ENDCHAR
STARTCHAR U+0330
ENCODING 816
SWIDTH 500 0
DWIDTH 7 0
BBX 7 14 0 -2
BITMAP 
00
00
00
00
00
00
00
00
00
00
00
00
76
dc
ENDCHAR
STARTCHAR U+0331
ENCODING 817
SWIDTH 500 0
DWIDTH 7 0
BBX 7 14 0 -2
BITMAP 
00
00
00
00
00
00
00
00
00
00
00
00
fc
00
ENDCHAR
STARTCHAR U+0332
ENCODING 818
SWIDTH 500 0
DWIDTH 7 0
BBX 7 14 0 -2
BITMAP 
00
00
00
00
00
00
00
00
00
00
00
00
fe
00
ENDCHAR
STARTCHAR U+0333
ENCODING 819
SWIDTH 500 0
DWIDTH 7 0
BBX 7 14 0 -2
BITMAP 
00
00
00
00
00
00
00
00
00
00
00
fe
00
fe
ENDCHAR
STARTCHAR U+0334
ENCODING 820
SWIDTH 500 0
DWIDTH 7 0
BBX 7 14 0 -2
BITMAP 
00
00
00
00
00
00
6c
d4
d8
00
00
00
00
00
ENDCHAR
STARTCHAR U+0335
ENCODING 821
SWIDTH 500 0
DWIDTH 7 0
BBX 7 14 0 -2
BITMAP 
00
00
00
00
00
00
fc
00
00
00
00
00
00
00
ENDCHAR
STARTCHAR U+0336
ENCODING 822
SWIDTH 500 0
DWIDTH 7 0
BBX 7 14 0 -2
BITMAP 
00
00
00
00
00
00
fe
00
00
00
00
00
00
00
ENDCHAR
STARTCHAR U+0337
ENCODING 823
SWIDTH 500 0
DWIDTH 7 0
BBX 7 14 0 -2
BITMAP 
00
00
00
00
00
00
0c
18
30
60
c0
00
00
00
ENDCHAR
STARTCHAR U+0338
ENCODING 824
SWIDTH 500 0
DWIDTH 7 0
BBX 7 14 0 -2
BITMAP 
00
00
00
0c
0c
18
18
30
30
60
60
c0
c0
00
ENDCHAR
STARTCHAR U+0339
ENCODING 825
SWIDTH 500 0
DWIDTH 7 0
BBX 7 14 0 -2
BITMAP 
00
00
00
00
00
00
00
00
00
00
00
38
0c
38
ENDCHAR
STARTCHAR U+033A
ENCODING 826
SWIDTH 500 0
DWIDTH 7 0
BBX 7 14 0 -2
BITMAP 
00
00
00
00
00
00
00
00
00
00
00
cc
fc
00
ENDCHAR
STARTCHAR U+033B
ENCODING 827
SWIDTH 500 0
DWIDTH 7 0
BBX 7 14 0 -2
BITMAP 
00
00
00
00
00
00
00
00
00
00
00
78
68
78
ENDCHAR
STARTCHAR U+033C
ENCODING 828
SWIDTH 500 0
DWIDTH 7 0
BBX 7 14 0 -2
BITMAP 
00
00
00
00
00
00
00
00
00
00
00
ec
b6
00
ENDCHAR
STARTCHAR U+033D
ENCODING 829
SWIDTH 500 0
DWIDTH 7 0
BBX 7 14 0 -2
BITMAP 
00
ec
30
ec
00
00
00
00
00
00
00
00
00
00
ENDCHAR
STARTCHAR U+033E
ENCODING 830
SWIDTH 500 0
DWIDTH 7 0
BBX 7 14 0 -2
BITMAP 
38
70
38
70
00
00
00
00
00
00
00
00
00
00
ENDCHAR
STARTCHAR U+033F
ENCODING 831
SWIDTH 500 0
DWIDTH 7 0
BBX 7 14 0 -2
BITMAP 
fc
00
fc
00
00
00
00
00
00
00
00
00
00
00
ENDCHAR
STARTCHAR U+0340
ENCODING 832
SWIDTH 500 0
DWIDTH 7 0
BBX 7 14 0 -2
BITMAP 
e0
38
00
00
00
00
00
00
00
00
00
00
00
00
ENDCHAR
STARTCHAR U+0341
ENCODING 833
SWIDTH 500 0
DWIDTH 7 0
BBX 7 14 0 -2
BITMAP 
00
1c
70
00
00
00
00
00
00
00
00
00
00
00
ENDCHAR
STARTCHAR U+0342
ENCODING 834
SWIDTH 500 0
DWIDTH 7 0
BBX 7 14 0 -2
BITMAP 
ec
b8
00
00
00
00
00
00
00
00
00
00
00
00
ENDCHAR
STARTCHAR U+0343
ENCODING 835
SWIDTH 500 0
DWIDTH 7 0
BBX 7 14 0 -2
BITMAP 
00
70
30
60
00
00
00
00
00
00
00
00
00
00
ENDCHAR
STARTCHAR U+0344
ENCODING 836
SWIDTH 500 0
DWIDTH 7 0
BBX 7 14 0 -2
BITMAP 
30
d4
d4
30
00
00
00
00
00
00
00
00
00
00
ENDCHAR
STARTCHAR U+0345
ENCODING 837
SWIDTH 500 0
DWIDTH 7 0
BBX 7 14 0 -2
BITMAP 
00
00
00
00
00
00
00
00
00
00
00
00
30
38
ENDCHAR
STARTCHAR U+0346
ENCODING 838
SWIDTH 500 0
DWIDTH 7 0
BBX 7 14 0 -2
BITMAP 
78
68
00
00
00
00
00
00
00
00
00
00
00
00
ENDCHAR
STARTCHAR U+0347
ENCODING 839
SWIDTH 500 0
DWIDTH 7 0
BBX 7 14 0 -2
BITMAP 
00
00
00
00
00
00
00
00
00
00
00
78
00
78
ENDCHAR
STARTCHAR U+0348
ENCODING 840
SWIDTH 500 0
DWIDTH 7 0
BBX 7 14 0 -2
BITMAP 
00
00
00
00
00
00
00
00
00
00
00
68
68
68
ENDCHAR
STARTCHAR U+0349
ENCODING 841
SWIDTH 500 0
DWIDTH 7 0
BBX 7 14 0 -2
BITMAP 
00
00
00
00
00
00
00
00
00
00
00
7c
0c
0c
ENDCHAR
STARTCHAR U+034A
ENCODING 842
SWIDTH 500 0
DWIDTH 7 0
BBX 7 14 0 -2
BITMAP 
18
f6
bc
60
00
00
00
00
00
00
00
00
00
00
ENDCHAR
STARTCHAR U+034B
ENCODING 843
SWIDTH 500 0
DWIDTH 7 0
BBX 7 14 0 -2
BITMAP 
18
e6
bc
00
60
00
00
00
00
00
00
00
00
00
ENDCHAR
STARTCHAR U+034C
ENCODING 844
SWIDTH 500 0
DWIDTH 7 0
BBX 7 14 0 -2
BITMAP 
76
dc
76
dc
00
00
00
00
00
00
00
00
00
00
ENDCHAR
STARTCHAR U+034D
ENCODING 845
SWIDTH 500 0
DWIDTH 7 0
BBX 7 14 0 -2
BITMAP 
00
00
00
00
00
00
00
00
00
00
00
cc
fe
cc
ENDCHAR
STARTCHAR U+034E
ENCODING 846
SWIDTH 500 0
DWIDTH 7 0
BBX 7 14 0 -2
BITMAP 
00
00
00
00
00
00
00
00
00
00
30
78
d4
30
ENDCHAR
STARTCHAR U+0360
ENCODING 864
SWIDTH 500 0
DWIDTH 7 0
BBX 7 14 0 -2
BITMAP 
00
3a
6c
00
00
00
00
00
00
00
00
00
00
00
ENDCHAR
STARTCHAR U+0361
ENCODING 865
SWIDTH 500 0
DWIDTH 7 0
BBX 7 14 0 -2
BITMAP 
00
3c
66
00
00
00
00
00
00
00
00
00
00
00
ENDCHAR
STARTCHAR U+0362
ENCODING 866
SWIDTH 500 0
DWIDTH 7 0
BBX 7 14 0 -2
BITMAP 
00
00
00
00
00
00
00
00
00
00
00
0c
7e
0c
ENDCHAR
STARTCHAR U+0374
ENCODING 884
SWIDTH 500 0
DWIDTH 7 0
BBX 7 14 0 -2
BITMAP 
00
00
00
38
30
60
00
00
00
00
00
00
00
00
ENDCHAR
STARTCHAR U+0375
ENCODING 885
SWIDTH 500 0
DWIDTH 7 0
BBX 7 14 0 -2
BITMAP 
00
00
00
00
00
00
00
00
00
00
00
38
30
60
ENDCHAR
STARTCHAR U+037A
ENCODING 890
SWIDTH 500 0
DWIDTH 7 0
BBX 7 14 0 -2
BITMAP 
00
00
00
00
00
00
00
00
00
00
00
00
30
38
ENDCHAR
STARTCHAR U+037E
ENCODING 894
SWIDTH 500 0
DWIDTH 7 0
BBX 7 14 0 -2
BITMAP 
00
00
00
00
00
00
38
38
00
00
70
30
30
60
ENDCHAR
STARTCHAR U+0384
ENCODING 900
SWIDTH 500 0
DWIDTH 7 0
BBX 7 14 0 -2
BITMAP 
30
30
30
00
00
00
00
00
00
00
00
00
00
00
ENDCHAR
STARTCHAR U+0385
ENCODING 901
SWIDTH 500 0
DWIDTH 7 0
BBX 7 14 0 -2
BITMAP 
30
30
30
cc
cc
00
00
00
00
00
00
00
00
00
ENDCHAR
STARTCHAR U+0386
ENCODING 902
SWIDTH 500 0
DWIDTH 7 0
BBX 7 14 0 -2
BITMAP 
80
80
80
38
38
6c
6c
7c
c6
c6
c6
c6
00
00
ENDCHAR
STARTCHAR U+0387
ENCODING 903
SWIDTH 500 0
DWIDTH 7 0
BBX 7 14 0 -2
BITMAP 
00
00
00
00
00
00
30
78
30
00
00
00
00
00
ENDCHAR
STARTCHAR U+0388
ENCODING 904
SWIDTH 500 0
DWIDTH 7 0
BBX 7 14 0 -2
BITMAP 
80
80
80
fe
c0
c0
c0
fc
c0
c0
c0
fe
00
00
ENDCHAR
STARTCHAR U+0389
ENCODING 905
SWIDTH 500 0
DWIDTH 7 0
BBX 7 14 0 -2
BITMAP 
80
80
80
c6
c6
c6
c6
fe
c6
c6
c6
c6
00
00
ENDCHAR
STARTCHAR U+038A
ENCODING 906
SWIDTH 500 0
DWIDTH 7 0
BBX 7 14 0 -2
BITMAP 
80
80
80
fc
30
30
30
30
30
30
30
fc
00
00
ENDCHAR
STARTCHAR U+038C
ENCODING 908
SWIDTH 500 0
DWIDTH 7 0
BBX 7 14 0 -2
BITMAP 
80
80
80
7c
c6
c6
c6
c6
c6
c6
c6
7c
00
00
ENDCHAR
STARTCHAR U+038E
ENCODING 910
SWIDTH 500 0
DWIDTH 7 0
BBX 7 14 0 -2
BITMAP 
80
80
80
cc
cc
cc
cc
68
30
30
30
30
00
00
ENDCHAR
STARTCHAR U+038F
ENCODING 911
SWIDTH 500 0
DWIDTH 7 0
BBX 7 14 0 -2
BITMAP 
80
80
80
7c
c6
c6
c6
c6
c6
6c
38
fe
00
00
ENDCHAR
STARTCHAR U+0390
ENCODING 912
SWIDTH 500 0
DWIDTH 7 0
BBX 7 14 0 -2
BITMAP 
30
30
30
cc
cc
30
30
30
30
30
1c
00
00
00
ENDCHAR
STARTCHAR U+0391
ENCODING 913
SWIDTH 500 0
DWIDTH 7 0
BBX 7 14 0 -2
BITMAP 
00
00
00
38
38
6c
6c
7c
c6
c6
c6
c6
00
00
ENDCHAR
STARTCHAR U+0392
ENCODING 914
SWIDTH 500 0
DWIDTH 7 0
BBX 7 14 0 -2
BITMAP 
00
00
00
fc
66
66
66
7c
66
66
66
fc
00
00
ENDCHAR
STARTCHAR U+0393
ENCODING 915
SWIDTH 500 0
DWIDTH 7 0
BBX 7 14 0 -2
BITMAP 
00
00
00
fe
c0
c0
c0
c0
c0
c0
c0
c0
00
00
ENDCHAR
STARTCHAR U+0394
ENCODING 916
SWIDTH 500 0
DWIDTH 7 0
BBX 7 14 0 -2
BITMAP 
00
00
00
38
38
6c
6c
6c
c6
c6
c6
fe
00
00
ENDCHAR
STARTCHAR U+0395
ENCODING 917
SWIDTH 500 0
DWIDTH 7 0
BBX 7 14 0 -2
BITMAP 
00
00
00
fe
c0
c0
c0
fc
c0
c0
c0
fe
00
00
ENDCHAR
STARTCHAR U+0396
ENCODING 918
SWIDTH 500 0
DWIDTH 7 0
BBX 7 14 0 -2
BITMAP 
00
00
00
fe
06
0c
18
30
60
c0
c0
fe
00
00
ENDCHAR
STARTCHAR U+0397
ENCODING 919
SWIDTH 500 0
DWIDTH 7 0
BBX 7 14 0 -2
BITMAP 
00
00
00
c6
c6
c6
c6
fe
c6
c6
c6
c6
00
00
ENDCHAR
STARTCHAR U+0398
ENCODING 920
SWIDTH 500 0
DWIDTH 7 0
BBX 7 14 0 -2
BITMAP 
00
00
00
7c
c6
c6
c6
fe
c6
c6
c6
7c
00
00
ENDCHAR
STARTCHAR U+0399
ENCODING 921
SWIDTH 500 0
DWIDTH 7 0
BBX 7 14 0 -2
BITMAP 
00
00
00
fc
30
30
30
30
30
30
30
fc
00
00
ENDCHAR
STARTCHAR U+039A
ENCODING 922
SWIDTH 500 0
DWIDTH 7 0
BBX 7 14 0 -2
BITMAP 
00
00
00
c6
cc
d8
d0
e0
d0
d8
cc
c6
00
00
ENDCHAR
STARTCHAR U+039B
ENCODING 923
SWIDTH 500 0
DWIDTH 7 0
BBX 7 14 0 -2
BITMAP 
00
00
00
38
38
6c
6c
6c
c6
c6
c6
c6
00
00
ENDCHAR
STARTCHAR U+039C
ENCODING 924
SWIDTH 500 0
DWIDTH 7 0
BBX 7 14 0 -2
BITMAP 
00
00
00
c6
ee
ee
da
da
c6
c6
c6
c6
00
00
ENDCHAR
STARTCHAR U+039D
ENCODING 925
SWIDTH 500 0
DWIDTH 7 0
BBX 7 14 0 -2
BITMAP 
00
00
00
e6
e6
d6
d6
da
da
ce
ce
c6
00
00
ENDCHAR
STARTCHAR U+039E
ENCODING 926
SWIDTH 500 0
DWIDTH 7 0
BBX 7 14 0 -2
BITMAP 
00
00
00
fe
00
00
00
7c
00
00
00
fe
00
00
ENDCHAR
STARTCHAR U+039F
ENCODING 927
SWIDTH 500 0
DWIDTH 7 0
BBX 7 14 0 -2
BITMAP 
00
00
00
7c
c6
c6
c6
c6
c6
c6
c6
7c
00
00
ENDCHAR
STARTCHAR U+03A0
ENCODING 928
SWIDTH 500 0
DWIDTH 7 0
BBX 7 14 0 -2
BITMAP 
00
00
00
fe
cc
cc
cc
cc
cc
cc
cc
cc
00
00
ENDCHAR
STARTCHAR U+03A1
ENCODING 929
SWIDTH 500 0
DWIDTH 7 0
BBX 7 14 0 -2
BITMAP 
00
00
00
fc
c6
c6
c6
fc
c0
c0
c0
c0
00
00
ENDCHAR
STARTCHAR U+03A3
ENCODING 931
SWIDTH 500 0
DWIDTH 7 0
BBX 7 14 0 -2
BITMAP 
00
00
00
fe
c0
60
30
18
30
60
c0
fe
00
00
ENDCHAR
STARTCHAR U+03A4
ENCODING 932
SWIDTH 500 0
DWIDTH 7 0
BBX 7 14 0 -2
BITMAP 
00
00
00
fe
30
30
30
30
30
30
30
30
00
00
ENDCHAR
STARTCHAR U+03A5
ENCODING 933
SWIDTH 500 0
DWIDTH 7 0
BBX 7 14 0 -2
BITMAP 
00
00
00
cc
cc
cc
cc
68
30
30
30
30
00
00
ENDCHAR
STARTCHAR U+03A6
ENCODING 934
SWIDTH 500 0
DWIDTH 7 0
BBX 7 14 0 -2
BITMAP 
00
00
00
fc
30
78
d4
d4
d4
78
30
fc
00
00
ENDCHAR
STARTCHAR U+03A7
ENCODING 935
SWIDTH 500 0
DWIDTH 7 0
BBX 7 14 0 -2
BITMAP 
00
00
00
c6
c6
6c
6c
38
6c
6c
c6
c6
00
00
ENDCHAR
STARTCHAR U+03A8
ENCODING 936
SWIDTH 500 0
DWIDTH 7 0
BBX 7 14 0 -2
BITMAP 
00
00
00
d4
d4
d4
d4
78
30
30
30
30
00
00
ENDCHAR
STARTCHAR U+03A9
ENCODING 937
SWIDTH 500 0
DWIDTH 7 0
BBX 7 14 0 -2
BITMAP 
00
00
00
7c
c6
c6
c6
c6
c6
6c
38
fe
00
00
ENDCHAR
STARTCHAR U+03AA
ENCODING 938
SWIDTH 500 0
DWIDTH 7 0
BBX 7 14 0 -2
BITMAP 
68
68
00
fc
30
30
30
30
30
30
30
fc
00
00
ENDCHAR
STARTCHAR U+03AB
ENCODING 939
SWIDTH 500 0
DWIDTH 7 0
BBX 7 14 0 -2
BITMAP 
68
68
00
cc
cc
cc
cc
68
30
30
30
30
00
00
ENDCHAR
STARTCHAR U+03AC
ENCODING 940
SWIDTH 500 0
DWIDTH 7 0
BBX 7 14 0 -2
BITMAP 
00
30
30
30
00
76
da
cc
cc
cc
da
76
00
00
ENDCHAR
STARTCHAR U+03AD
ENCODING 941
SWIDTH 500 0
DWIDTH 7 0
BBX 7 14 0 -2
BITMAP 
00
30
30
30
00
7c
c0
c0
f8
c0
c0
7c
00
00
ENDCHAR
STARTCHAR U+03AE
ENCODING 942
SWIDTH 500 0
DWIDTH 7 0
BBX 7 14 0 -2
BITMAP 
00
30
30
30
00
dc
e6
c6
c6
c6
c6
c6
06
06
ENDCHAR
STARTCHAR U+03AF
ENCODING 943
SWIDTH 500 0
DWIDTH 7 0
BBX 7 14 0 -2
BITMAP 
00
30
30
30
00
30
30
30
30
30
30
1c
00
00
ENDCHAR
STARTCHAR U+03B0
ENCODING 944
SWIDTH 500 0
DWIDTH 7 0
BBX 7 14 0 -2
BITMAP 
30
30
30
cc
cc
00
c6
c6
c6
c6
c6
7c
00
00
ENDCHAR
STARTCHAR U+03B1
ENCODING 945
SWIDTH 500 0
DWIDTH 7 0
BBX 7 14 0 -2
BITMAP 
00
00
00
00
00
76
da
cc
cc
cc
da
76
00
00
ENDCHAR
STARTCHAR U+03B2
ENCODING 946
SWIDTH 500 0
DWIDTH 7 0
BBX 7 14 0 -2
BITMAP 
00
00
00
78
cc
cc
cc
fc
c6
c6
c6
fc
c0
c0
ENDCHAR
STARTCHAR U+03B3
ENCODING 947
SWIDTH 500 0
DWIDTH 7 0
BBX 7 14 0 -2
BITMAP 
00
00
00
00
00
e6
36
34
1c
18
18
30
30
00
ENDCHAR
STARTCHAR U+03B4
ENCODING 948
SWIDTH 500 0
DWIDTH 7 0
BBX 7 14 0 -2
BITMAP 
00
00
00
3c
60
60
38
6c
c6
c6
c6
7c
00
00
ENDCHAR
STARTCHAR U+03B5
ENCODING 949
SWIDTH 500 0
DWIDTH 7 0
BBX 7 14 0 -2
BITMAP 
00
00
00
00
00
7c
c0
c0
f8
c0
c0
7c
00
00
ENDCHAR
STARTCHAR U+03B6
ENCODING 950
SWIDTH 500 0
DWIDTH 7 0
BBX 7 14 0 -2
BITMAP 
00
00
00
c0
c0
78
30
60
60
c0
c0
78
0c
78
ENDCHAR
STARTCHAR U+03B7
ENCODING 951
SWIDTH 500 0
DWIDTH 7 0
BBX 7 14 0 -2
BITMAP 
00
00
00
00
00
dc
e6
c6
c6
c6
c6
c6
06
06
ENDCHAR
STARTCHAR U+03B8
ENCODING 952
SWIDTH 500 0
DWIDTH 7 0
BBX 7 14 0 -2
BITMAP 
00
00
00
38
6c
c6
c6
fe
c6
c6
6c
38
00
00
ENDCHAR
STARTCHAR U+03B9
ENCODING 953
SWIDTH 500 0
DWIDTH 7 0
BBX 7 14 0 -2
BITMAP 
00
00
00
00
00
30
30
30
30
30
30
1c
00
00
ENDCHAR
STARTCHAR U+03BA
ENCODING 954
SWIDTH 500 0
DWIDTH 7 0
BBX 7 14 0 -2
BITMAP 
00
00
00
00
00
cc
d8
d0
e0
d0
d8
cc
00
00
ENDCHAR
STARTCHAR U+03BB
ENCODING 955
SWIDTH 500 0
DWIDTH 7 0
BBX 7 14 0 -2
BITMAP 
00
00
00
e0
30
30
18
18
34
6c
66
c6
00
00
ENDCHAR
STARTCHAR U+03BC
ENCODING 956
SWIDTH 500 0
DWIDTH 7 0
BBX 7 14 0 -2
BITMAP 
00
00
00
00
00
c6
c6
c6
c6
ee
da
c6
c0
c0
ENDCHAR
STARTCHAR U+03BD
ENCODING 957
SWIDTH 500 0
DWIDTH 7 0
BBX 7 14 0 -2
BITMAP 
00
00
00
00
00
c6
c6
cc
cc
d8
d0
e0
00
00
ENDCHAR
STARTCHAR U+03BE
ENCODING 958
SWIDTH 500 0
DWIDTH 7 0
BBX 7 14 0 -2
BITMAP 
00
00
00
c0
c0
7c
c0
c0
7c
c0
c0
7c
06
3c
ENDCHAR
STARTCHAR U+03BF
ENCODING 959
SWIDTH 500 0
DWIDTH 7 0
BBX 7 14 0 -2
BITMAP 
00
00
00
00
00
7c
c6
c6
c6
c6
c6
7c
00
00
ENDCHAR
STARTCHAR U+03C0
ENCODING 960
SWIDTH 500 0
DWIDTH 7 0
BBX 7 14 0 -2
BITMAP 
00
00
00
00
00
fe
6c
6c
6c
6c
6c
6c
00
00
ENDCHAR
STARTCHAR U+03C1
ENCODING 961
SWIDTH 500 0
DWIDTH 7 0
BBX 7 14 0 -2
BITMAP 
00
00
00
00
00
7c
c6
c6
c6
c6
e6
dc
c0
c0
ENDCHAR
STARTCHAR U+03C2
ENCODING 962
SWIDTH 500 0
DWIDTH 7 0
BBX 7 14 0 -2
BITMAP 
00
00
00
00
00
3c
60
c0
c0
c0
60
3c
06
7c
ENDCHAR
STARTCHAR U+03C3
ENCODING 963
SWIDTH 500 0
DWIDTH 7 0
BBX 7 14 0 -2
BITMAP 
00
00
00
00
00
7e
cc
cc
cc
cc
cc
78
00
00
ENDCHAR
STARTCHAR U+03C4
ENCODING 964
SWIDTH 500 0
DWIDTH 7 0
BBX 7 14 0 -2
BITMAP 
00
00
00
00
00
fe
30
30
30
30
30
1c
00
00
ENDCHAR
STARTCHAR U+03C5
ENCODING 965
SWIDTH 500 0
DWIDTH 7 0
BBX 7 14 0 -2
BITMAP 
00
00
00
00
00
c6
c6
c6
c6
c6
c6
7c
00
00
ENDCHAR
STARTCHAR U+03C6
ENCODING 966
SWIDTH 500 0
DWIDTH 7 0
BBX 7 14 0 -2
BITMAP 
00
00
00
00
00
78
d4
d4
d4
d4
d4
78
30
30
ENDCHAR
STARTCHAR U+03C7
ENCODING 967
SWIDTH 500 0
DWIDTH 7 0
BBX 7 14 0 -2
BITMAP 
00
00
00
00
00
cc
cc
68
68
30
68
68
cc
cc
ENDCHAR
STARTCHAR U+03C8
ENCODING 968
SWIDTH 500 0
DWIDTH 7 0
BBX 7 14 0 -2
BITMAP 
00
00
00
30
30
d4
d4
d4
d4
d4
d4
78
30
30
ENDCHAR
STARTCHAR U+03C9
ENCODING 969
SWIDTH 500 0
DWIDTH 7 0
BBX 7 14 0 -2
BITMAP 
00
00
00
00
00
6c
c6
c6
c6
da
da
74
00
00
ENDCHAR
STARTCHAR U+03CA
ENCODING 970
SWIDTH 500 0
DWIDTH 7 0
BBX 7 14 0 -2
BITMAP 
00
00
68
68
00
30
30
30
30
30
30
1c
00
00
ENDCHAR
STARTCHAR U+03CB
ENCODING 971
SWIDTH 500 0
DWIDTH 7 0
BBX 7 14 0 -2
BITMAP 
00
00
6c
6c
00
c6
c6
c6
c6
c6
c6
7c
00
00
ENDCHAR
STARTCHAR U+03CC
ENCODING 972
SWIDTH 500 0
DWIDTH 7 0
BBX 7 14 0 -2
BITMAP 
00
30
30
30
00
7c
c6
c6
c6
c6
c6
7c
00
00
ENDCHAR
STARTCHAR U+03CD
ENCODING 973
SWIDTH 500 0
DWIDTH 7 0
BBX 7 14 0 -2
BITMAP 
00
30
30
30
00
c6
c6
c6
c6
c6
c6
7c
00
00
ENDCHAR
STARTCHAR U+03CE
ENCODING 974
SWIDTH 500 0
DWIDTH 7 0
BBX 7 14 0 -2
BITMAP 
00
30
30
30
00
6c
c6
c6
c6
da
da
74
00
00
ENDCHAR
STARTCHAR U+03D5
ENCODING 981
SWIDTH 500 0
DWIDTH 7 0
BBX 7 14 0 -2
BITMAP 
00
00
00
30
30
78
d4
d4
d4
d4
d4
78
30
30
ENDCHAR
STARTCHAR U+03DD
ENCODING 989
SWIDTH 500 0
DWIDTH 7 0
BBX 7 14 0 -2
BITMAP 
00
00
00
00
00
fc
c0
c0
f8
c0
c0
c0
c0
c0
ENDCHAR
STARTCHAR U+03E2
ENCODING 994
SWIDTH 500 0
DWIDTH 7 0
BBX 7 14 0 -2
BITMAP 
00
00
00
d4
d4
d4
d4
d4
d4
6c
0c
78
00
00
ENDCHAR
STARTCHAR U+03E3
ENCODING 995
SWIDTH 500 0
DWIDTH 7 0
BBX 7 14 0 -2
BITMAP 
00
00
00
00
00
d4
d4
d4
d4
d4
d4
6c
0c
78
ENDCHAR
STARTCHAR U+03E5
ENCODING 997
SWIDTH 500 0
DWIDTH 7 0
BBX 7 14 0 -2
BITMAP 
00
00
68
d8
d8
d8
78
18
18
18
18
18
00
00
ENDCHAR
STARTCHAR U+03EA
ENCODING 1002
SWIDTH 500 0
DWIDTH 7 0
BBX 7 14 0 -2
BITMAP 
00
00
ec
30
30
68
68
68
cc
cc
cc
fc
00
00
ENDCHAR
STARTCHAR U+03EB
ENCODING 1003
SWIDTH 500 0
DWIDTH 7 0
BBX 7 14 0 -2
BITMAP 
00
00
00
00
00
ec
30
68
68
cc
cc
fc
00
00
ENDCHAR
STARTCHAR U+03EE
ENCODING 1006
SWIDTH 500 0
DWIDTH 7 0
BBX 7 14 0 -2
BITMAP 
00
00
78
30
fc
d4
30
30
30
30
30
30
00
00
ENDCHAR
STARTCHAR U+03EF
ENCODING 1007
SWIDTH 500 0
DWIDTH 7 0
BBX 7 14 0 -2
BITMAP 
00
00
00
00
30
34
fc
d0
30
30
30
00
00
00
ENDCHAR
STARTCHAR U+03F3
ENCODING 1011
SWIDTH 500 0
DWIDTH 7 0
BBX 7 14 0 -2
BITMAP 
00
00
0c
0c
00
1c
0c
0c
0c
0c
0c
cc
cc
78
ENDCHAR
STARTCHAR U+03F4
ENCODING 1012
SWIDTH 500 0
DWIDTH 7 0
BBX 7 14 0 -2
BITMAP 
00
00
7c
c6
c6
c6
fe
c6
c6
c6
c6
7c
00
00
ENDCHAR
STARTCHAR U+0401
ENCODING 1025
SWIDTH 500 0
DWIDTH 7 0
BBX 7 14 0 -2
BITMAP 
6c
6c
00
fe
c0
c0
c0
fe
c0
c0
c0
fe
00
00
ENDCHAR
STARTCHAR U+0402
ENCODING 1026
SWIDTH 500 0
DWIDTH 7 0
BBX 7 14 0 -2
BITMAP 
00
00
00
fe
30
30
3c
36
36
36
36
3c
00
00
ENDCHAR
STARTCHAR U+0403
ENCODING 1027
SWIDTH 500 0
DWIDTH 7 0
BBX 7 14 0 -2
BITMAP 
1c
70
00
fe
c0
c0
c0
c0
c0
c0
c0
c0
00
00
ENDCHAR
STARTCHAR U+0404
ENCODING 1028
SWIDTH 500 0
DWIDTH 7 0
BBX 7 14 0 -2
BITMAP 
00
00
00
3c
66
c0
c0
fc
c0
c0
66
3c
00
00
ENDCHAR
STARTCHAR U+0405
ENCODING 1029
SWIDTH 500 0
DWIDTH 7 0
BBX 7 14 0 -2
BITMAP 
00
00
00
7c
c6
c0
70
1c
06
c6
c6
7c
00
00
ENDCHAR
STARTCHAR U+0406
ENCODING 1030
SWIDTH 500 0
DWIDTH 7 0
BBX 7 14 0 -2
BITMAP 
00
00
00
fc
30
30
30
30
30
30
30
fc
00
00
ENDCHAR
STARTCHAR U+0407
ENCODING 1031
SWIDTH 500 0
DWIDTH 7 0
BBX 7 14 0 -2
BITMAP 
68
68
00
fc
30
30
30
30
30
30
30
fc
00
00
ENDCHAR
STARTCHAR U+0408
ENCODING 1032
SWIDTH 500 0
DWIDTH 7 0
BBX 7 14 0 -2
BITMAP 
00
00
00
1e
0c
0c
0c
0c
0c
cc
cc
78
00
00
ENDCHAR
STARTCHAR U+0409
ENCODING 1033
SWIDTH 500 0
DWIDTH 7 0
BBX 7 14 0 -2
BITMAP 
00
00
00
f8
d8
d8
dc
da
da
da
da
9c
00
00
ENDCHAR
STARTCHAR U+040A
ENCODING 1034
SWIDTH 500 0
DWIDTH 7 0
BBX 7 14 0 -2
BITMAP 
00
00
00
d8
d8
d8
dc
fa
da
da
da
dc
00
00
ENDCHAR
STARTCHAR U+040B
ENCODING 1035
SWIDTH 500 0
DWIDTH 7 0
BBX 7 14 0 -2
BITMAP 
00
00
00
fc
30
30
3c
36
36
36
36
36
00
00
ENDCHAR
STARTCHAR U+040C
ENCODING 1036
SWIDTH 500 0
DWIDTH 7 0
BBX 7 14 0 -2
BITMAP 
1c
70
00
c6
cc
d8
d0
e0
d0
d8
cc
c6
00
00
ENDCHAR
STARTCHAR U+040E
ENCODING 1038
SWIDTH 500 0
DWIDTH 7 0
BBX 7 14 0 -2
BITMAP 
6c
38
00
c6
c6
6c
6c
38
18
30
30
e0
00
00
ENDCHAR
STARTCHAR U+040F
ENCODING 1039
SWIDTH 500 0
DWIDTH 7 0
BBX 7 14 0 -2
BITMAP 
00
00
00
cc
cc
cc
cc
cc
fc
30
30
30
00
00
ENDCHAR
STARTCHAR U+0410
ENCODING 1040
SWIDTH 500 0
DWIDTH 7 0
BBX 7 14 0 -2
BITMAP 
00
00
00
38
38
6c
6c
7c
c6
c6
c6
c6
00
00
ENDCHAR
STARTCHAR U+0411
ENCODING 1041
SWIDTH 500 0
DWIDTH 7 0
BBX 7 14 0 -2
BITMAP 
00
00
00
fc
c0
c0
c0
fc
c6
c6
c6
fc
00
00
ENDCHAR
STARTCHAR U+0412
ENCODING 1042
SWIDTH 500 0
DWIDTH 7 0
BBX 7 14 0 -2
BITMAP 
00
00
00
fc
c6
c6
c6
fc
c6
c6
c6
fc
00
00
ENDCHAR
STARTCHAR U+0413
ENCODING 1043
SWIDTH 500 0
DWIDTH 7 0
BBX 7 14 0 -2
BITMAP 
00
00
00
fe
c0
c0
c0
c0
c0
c0
c0
c0
00
00
ENDCHAR
STARTCHAR U+0414
ENCODING 1044
SWIDTH 500 0
DWIDTH 7 0
BBX 7 14 0 -2
BITMAP 
00
00
00
3c
34
34
6c
6c
6c
cc
cc
fc
86
00
ENDCHAR
STARTCHAR U+0415
ENCODING 1045
SWIDTH 500 0
DWIDTH 7 0
BBX 7 14 0 -2
BITMAP 
00
00
00
fe
c0
c0
c0
fc
c0
c0
c0
fe
00
00
ENDCHAR
STARTCHAR U+0416
ENCODING 1046
SWIDTH 500 0
DWIDTH 7 0
BBX 7 14 0 -2
BITMAP 
00
00
00
b6
b6
d4
d4
78
d4
d4
b6
b6
00
00
ENDCHAR
STARTCHAR U+0417
ENCODING 1047
SWIDTH 500 0
DWIDTH 7 0
BBX 7 14 0 -2
BITMAP 
00
00
00
7c
c6
06
06
3c
06
06
c6
7c
00
00
ENDCHAR
STARTCHAR U+0418
ENCODING 1048
SWIDTH 500 0
DWIDTH 7 0
BBX 7 14 0 -2
BITMAP 
00
00
00
ce
ce
da
da
d6
d6
e6
e6
c6
00
00
ENDCHAR
STARTCHAR U+0419
ENCODING 1049
SWIDTH 500 0
DWIDTH 7 0
BBX 7 14 0 -2
BITMAP 
6c
38
00
ce
ce
da
da
d6
d6
e6
e6
c6
00
00
ENDCHAR
STARTCHAR U+041A
ENCODING 1050
SWIDTH 500 0
DWIDTH 7 0
BBX 7 14 0 -2
BITMAP 
00
00
00
c6
cc
d8
d0
e0
d0
d8
cc
c6
00
00
ENDCHAR
STARTCHAR U+041B
ENCODING 1051
SWIDTH 500 0
DWIDTH 7 0
BBX 7 14 0 -2
BITMAP 
00
00
00
3e
36
36
36
36
36
36
36
e6
00
00
ENDCHAR
STARTCHAR U+041C
ENCODING 1052
SWIDTH 500 0
DWIDTH 7 0
BBX 7 14 0 -2
BITMAP 
00
00
00
c6
ee
ee
da
da
c6
c6
c6
c6
00
00
ENDCHAR
STARTCHAR U+041D
ENCODING 1053
SWIDTH 500 0
DWIDTH 7 0
BBX 7 14 0 -2
BITMAP 
00
00
00
c6
c6
c6
c6
fe
c6
c6
c6
c6
00
00
ENDCHAR
STARTCHAR U+041E
ENCODING 1054
SWIDTH 500 0
DWIDTH 7 0
BBX 7 14 0 -2
BITMAP 
00
00
00
7c
c6
c6
c6
c6
c6
c6
c6
7c
00
00
ENDCHAR
STARTCHAR U+041F
ENCODING 1055
SWIDTH 500 0
DWIDTH 7 0
BBX 7 14 0 -2
BITMAP 
00
00
00
fe
c6
c6
c6
c6
c6
c6
c6
c6
00
00
ENDCHAR
STARTCHAR U+0420
ENCODING 1056
SWIDTH 500 0
DWIDTH 7 0
BBX 7 14 0 -2
BITMAP 
00
00
00
fc
c6
c6
c6
fc
c0
c0
c0
c0
00
00
ENDCHAR
STARTCHAR U+0421
ENCODING 1057
SWIDTH 500 0
DWIDTH 7 0
BBX 7 14 0 -2
BITMAP 
00
00
00
7c
c6
c6
c0
c0
c0
c6
c6
7c
00
00
ENDCHAR
STARTCHAR U+0422
ENCODING 1058
SWIDTH 500 0
DWIDTH 7 0
BBX 7 14 0 -2
BITMAP 
00
00
00
fe
30
30
30
30
30
30
30
30
00
00
ENDCHAR
STARTCHAR U+0423
ENCODING 1059
SWIDTH 500 0
DWIDTH 7 0
BBX 7 14 0 -2
BITMAP 
00
00
00
c6
c6
6c
6c
38
18
30
30
e0
00
00
ENDCHAR
STARTCHAR U+0424
ENCODING 1060
SWIDTH 500 0
DWIDTH 7 0
BBX 7 14 0 -2
BITMAP 
00
00
00
30
fc
b6
b6
b6
b6
fc
30
30
00
00
ENDCHAR
STARTCHAR U+0425
ENCODING 1061
SWIDTH 500 0
DWIDTH 7 0
BBX 7 14 0 -2
BITMAP 
00
00
00
c6
c6
6c
6c
38
6c
6c
c6
c6
00
00
ENDCHAR
STARTCHAR U+0426
ENCODING 1062
SWIDTH 500 0
DWIDTH 7 0
BBX 7 14 0 -2
BITMAP 
00
00
00
c6
c6
c6
c6
c6
c6
c6
c6
fe
06
0c
ENDCHAR
STARTCHAR U+0427
ENCODING 1063
SWIDTH 500 0
DWIDTH 7 0
BBX 7 14 0 -2
BITMAP 
00
00
00
c6
c6
c6
c6
7e
06
06
06
06
00
00
ENDCHAR
STARTCHAR U+0428
ENCODING 1064
SWIDTH 500 0
DWIDTH 7 0
BBX 7 14 0 -2
BITMAP 
00
00
00
da
da
da
da
da
da
da
da
fe
00
00
ENDCHAR
STARTCHAR U+0429
ENCODING 1065
SWIDTH 500 0
DWIDTH 7 0
BBX 7 14 0 -2
BITMAP 
00
00
00
da
da
da
da
da
da
da
da
fe
06
0c
ENDCHAR
STARTCHAR U+042A
ENCODING 1066
SWIDTH 500 0
DWIDTH 7 0
BBX 7 14 0 -2
BITMAP 
00
00
00
e0
60
60
60
7c
66
66
66
7c
00
00
ENDCHAR
STARTCHAR U+042B
ENCODING 1067
SWIDTH 500 0
DWIDTH 7 0
BBX 7 14 0 -2
BITMAP 
00
00
00
c6
c6
c6
c6
f6
da
da
da
f6
00
00
ENDCHAR
STARTCHAR U+042C
ENCODING 1068
SWIDTH 500 0
DWIDTH 7 0
BBX 7 14 0 -2
BITMAP 
00
00
00
c0
c0
c0
c0
fc
c6
c6
c6
fc
00
00
ENDCHAR
STARTCHAR U+042D
ENCODING 1069
SWIDTH 500 0
DWIDTH 7 0
BBX 7 14 0 -2
BITMAP 
00
00
00
78
cc
06
06
7e
06
06
cc
78
00
00
ENDCHAR
STARTCHAR U+042E
ENCODING 1070
SWIDTH 500 0
DWIDTH 7 0
BBX 7 14 0 -2
BITMAP 
00
00
00
dc
d6
d6
d6
f6
d6
d6
d6
dc
00
00
ENDCHAR
STARTCHAR U+042F
ENCODING 1071
SWIDTH 500 0
DWIDTH 7 0
BBX 7 14 0 -2
BITMAP 
00
00
00
7e
c6
c6
c6
7e
36
66
c6
c6
00
00
ENDCHAR
STARTCHAR U+0430
ENCODING 1072
SWIDTH 500 0
DWIDTH 7 0
BBX 7 14 0 -2
BITMAP 
00
00
00
00
00
7c
c6
1e
76
c6
ce
7a
00
00
ENDCHAR
STARTCHAR U+0431
ENCODING 1073
SWIDTH 500 0
DWIDTH 7 0
BBX 7 14 0 -2
BITMAP 
00
00
00
00
00
fc
c0
c0
fc
c6
c6
fc
00
00
ENDCHAR
STARTCHAR U+0432
ENCODING 1074
SWIDTH 500 0
DWIDTH 7 0
BBX 7 14 0 -2
BITMAP 
00
00
00
00
00
fc
c6
c6
fc
c6
c6
fc
00
00
ENDCHAR
STARTCHAR U+0433
ENCODING 1075
SWIDTH 500 0
DWIDTH 7 0
BBX 7 14 0 -2
BITMAP 
00
00
00
00
00
fe
c0
c0
c0
c0
c0
c0
00
00
ENDCHAR
STARTCHAR U+0434
ENCODING 1076
SWIDTH 500 0
DWIDTH 7 0
BBX 7 14 0 -2
BITMAP 
00
00
00
00
00
3c
34
6c
6c
cc
cc
fc
86
00
ENDCHAR
STARTCHAR U+0435
ENCODING 1077
SWIDTH 500 0
DWIDTH 7 0
BBX 7 14 0 -2
BITMAP 
00
00
00
00
00
7c
c6
c6
fe
c0
c6
7c
00
00
ENDCHAR
STARTCHAR U+0436
ENCODING 1078
SWIDTH 500 0
DWIDTH 7 0
BBX 7 14 0 -2
BITMAP 
00
00
00
00
00
d4
d4
d4
78
d4
d4
d4
00
00
ENDCHAR
STARTCHAR U+0437
ENCODING 1079
SWIDTH 500 0
DWIDTH 7 0
BBX 7 14 0 -2
BITMAP 
00
00
00
00
00
7c
c6
06
1c
06
c6
7c
00
00
ENDCHAR
STARTCHAR U+0438
ENCODING 1080
SWIDTH 500 0
DWIDTH 7 0
BBX 7 14 0 -2
BITMAP 
00
00
00
00
00
ce
ce
da
da
d6
d6
e6
00
00
ENDCHAR
STARTCHAR U+0439
ENCODING 1081
SWIDTH 500 0
DWIDTH 7 0
BBX 7 14 0 -2
BITMAP 
00
00
6c
38
00
ce
ce
da
da
d6
d6
e6
00
00
ENDCHAR
STARTCHAR U+043A
ENCODING 1082
SWIDTH 500 0
DWIDTH 7 0
BBX 7 14 0 -2
BITMAP 
00
00
00
00
00
ce
d8
d0
f0
d8
cc
c6
00
00
ENDCHAR
STARTCHAR U+043B
ENCODING 1083
SWIDTH 500 0
DWIDTH 7 0
BBX 7 14 0 -2
BITMAP 
00
00
00
00
00
3e
36
36
36
36
36
e6
00
00
ENDCHAR
STARTCHAR U+043C
ENCODING 1084
SWIDTH 500 0
DWIDTH 7 0
BBX 7 14 0 -2
BITMAP 
00
00
00
00
00
c6
ee
ee
da
da
c6
c6
00
00
ENDCHAR
STARTCHAR U+043D
ENCODING 1085
SWIDTH 500 0
DWIDTH 7 0
BBX 7 14 0 -2
BITMAP 
00
00
00
00
00
c6
c6
c6
fe
c6
c6
c6
00
00
ENDCHAR
STARTCHAR U+043E
ENCODING 1086
SWIDTH 500 0
DWIDTH 7 0
BBX 7 14 0 -2
BITMAP 
00
00
00
00
00
7c
c6
c6
c6
c6
c6
7c
00
00
ENDCHAR
STARTCHAR U+043F
ENCODING 1087
SWIDTH 500 0
DWIDTH 7 0
BBX 7 14 0 -2
BITMAP 
00
00
00
00
00
fe
c6
c6
c6
c6
c6
c6
00
00
ENDCHAR
STARTCHAR U+0440
ENCODING 1088
SWIDTH 500 0
DWIDTH 7 0
BBX 7 14 0 -2
BITMAP 
00
00
00
00
00
dc
e6
c6
c6
c6
e6
dc
c0
c0
ENDCHAR
STARTCHAR U+0441
ENCODING 1089
SWIDTH 500 0
DWIDTH 7 0
BBX 7 14 0 -2
BITMAP 
00
00
00
00
00
7c
c6
c0
c0
c0
c6
7c
00
00
ENDCHAR
STARTCHAR U+0442
ENCODING 1090
SWIDTH 500 0
DWIDTH 7 0
BBX 7 14 0 -2
BITMAP 
00
00
00
00
00
fe
30
30
30
30
30
30
00
00
ENDCHAR
STARTCHAR U+0443
ENCODING 1091
SWIDTH 500 0
DWIDTH 7 0
BBX 7 14 0 -2
BITMAP 
00
00
00
00
00
c6
c6
6c
6c
38
18
30
30
e0
ENDCHAR
STARTCHAR U+0444
ENCODING 1092
SWIDTH 500 0
DWIDTH 7 0
BBX 7 14 0 -2
BITMAP 
00
00
00
30
30
78
d4
d4
d4
d4
d4
78
30
30
ENDCHAR
STARTCHAR U+0445
ENCODING 1093
SWIDTH 500 0
DWIDTH 7 0
BBX 7 14 0 -2
BITMAP 
00
00
00
00
00
c6
c6
6c
38
6c
c6
c6
00
00
ENDCHAR
STARTCHAR U+0446
ENCODING 1094
SWIDTH 500 0
DWIDTH 7 0
BBX 7 14 0 -2
BITMAP 
00
00
00
00
00
cc
cc
cc
cc
cc
cc
fe
0c
18
ENDCHAR
STARTCHAR U+0447
ENCODING 1095
SWIDTH 500 0
DWIDTH 7 0
BBX 7 14 0 -2
BITMAP 
00
00
00
00
00
c6
c6
c6
7e
06
06
06
00
00
ENDCHAR
STARTCHAR U+0448
ENCODING 1096
SWIDTH 500 0
DWIDTH 7 0
BBX 7 14 0 -2
BITMAP 
00
00
00
00
00
d4
d4
d4
d4
d4
d4
fc
00
00
ENDCHAR
STARTCHAR U+0449
ENCODING 1097
SWIDTH 500 0
DWIDTH 7 0
BBX 7 14 0 -2
BITMAP 
00
00
00
00
00
d4
d4
d4
d4
d4
d4
fe
0c
18
ENDCHAR
STARTCHAR U+044A
ENCODING 1098
SWIDTH 500 0
DWIDTH 7 0
BBX 7 14 0 -2
BITMAP 
00
00
00
00
00
e0
60
60
7c
66
66
7c
00
00
ENDCHAR
STARTCHAR U+044B
ENCODING 1099
SWIDTH 500 0
DWIDTH 7 0
BBX 7 14 0 -2
BITMAP 
00
00
00
00
00
cc
cc
cc
ec
d4
d4
ec
00
00
ENDCHAR
STARTCHAR U+044C
ENCODING 1100
SWIDTH 500 0
DWIDTH 7 0
BBX 7 14 0 -2
BITMAP 
00
00
00
00
00
c0
c0
c0
fc
c6
c6
fc
00
00
ENDCHAR
STARTCHAR U+044D
ENCODING 1101
SWIDTH 500 0
DWIDTH 7 0
BBX 7 14 0 -2
BITMAP 
00
00
00
00
00
78
cc
06
3e
06
cc
78
00
00
ENDCHAR
STARTCHAR U+044E
ENCODING 1102
SWIDTH 500 0
DWIDTH 7 0
BBX 7 14 0 -2
BITMAP 
00
00
00
00
00
dc
d6
d6
f6
d6
d6
dc
00
00
ENDCHAR
STARTCHAR U+044F
ENCODING 1103
SWIDTH 500 0
DWIDTH 7 0
BBX 7 14 0 -2
BITMAP 
00
00
00
00
00
7e
c6
c6
7e
36
66
c6
00
00
ENDCHAR
STARTCHAR U+0451
ENCODING 1105
SWIDTH 500 0
DWIDTH 7 0
BBX 7 14 0 -2
BITMAP 
00
00
6c
6c
00
7c
c6
c6
fe
c0
c6
7c
00
00
ENDCHAR
STARTCHAR U+0452
ENCODING 1106
SWIDTH 500 0
DWIDTH 7 0
BBX 7 14 0 -2
BITMAP 
00
00
00
60
60
f8
60
7c
66
66
66
7c
00
00
ENDCHAR
STARTCHAR U+0453
ENCODING 1107
SWIDTH 500 0
DWIDTH 7 0
BBX 7 14 0 -2
BITMAP 
00
00
1c
70
00
fe
c0
c0
c0
c0
c0
c0
00
00
ENDCHAR
STARTCHAR U+0454
ENCODING 1108
SWIDTH 500 0
DWIDTH 7 0
BBX 7 14 0 -2
BITMAP 
00
00
00
00
00
3c
66
c0
f8
c0
66
3c
00
00
ENDCHAR
STARTCHAR U+0455
ENCODING 1109
SWIDTH 500 0
DWIDTH 7 0
BBX 7 14 0 -2
BITMAP 
00
00
00
00
00
7c
c6
c0
7c
06
c6
7c
00
00
ENDCHAR
STARTCHAR U+0456
ENCODING 1110
SWIDTH 500 0
DWIDTH 7 0
BBX 7 14 0 -2
BITMAP 
00
00
30
30
00
70
30
30
30
30
30
fc
00
00
ENDCHAR
STARTCHAR U+0457
ENCODING 1111
SWIDTH 500 0
DWIDTH 7 0
BBX 7 14 0 -2
BITMAP 
00
00
d8
d8
00
70
30
30
30
30
30
fc
00
00
ENDCHAR
STARTCHAR U+0458
ENCODING 1112
SWIDTH 500 0
DWIDTH 7 0
BBX 7 14 0 -2
BITMAP 
00
00
0c
0c
00
1c
0c
0c
0c
0c
0c
0c
cc
78
ENDCHAR
STARTCHAR U+0459
ENCODING 1113
SWIDTH 500 0
DWIDTH 7 0
BBX 7 14 0 -2
BITMAP 
00
00
00
00
00
78
68
68
6c
6a
6a
dc
00
00
ENDCHAR
STARTCHAR U+045A
ENCODING 1114
SWIDTH 500 0
DWIDTH 7 0
BBX 7 14 0 -2
BITMAP 
00
00
00
00
00
d0
d0
d0
fc
d6
d6
dc
00
00
ENDCHAR
STARTCHAR U+045B
ENCODING 1115
SWIDTH 500 0
DWIDTH 7 0
BBX 7 14 0 -2
BITMAP 
00
00
00
60
60
f8
60
6c
76
66
66
66
00
00
ENDCHAR
STARTCHAR U+045C
ENCODING 1116
SWIDTH 500 0
DWIDTH 7 0
BBX 7 14 0 -2
BITMAP 
00
00
1c
70
00
ce
d8
d0
f0
d8
cc
c6
00
00
ENDCHAR
STARTCHAR U+045E
ENCODING 1118
SWIDTH 500 0
DWIDTH 7 0
BBX 7 14 0 -2
BITMAP 
00
00
6c
38
00
c6
c6
6c
6c
38
18
30
30
e0
ENDCHAR
STARTCHAR U+045F
ENCODING 1119
SWIDTH 500 0
DWIDTH 7 0
BBX 7 14 0 -2
BITMAP 
00
00
00
00
00
cc
cc
cc
cc
cc
fc
30
30
30
ENDCHAR
STARTCHAR U+0460
ENCODING 1120
SWIDTH 500 0
DWIDTH 7 0
BBX 7 14 0 -2
BITMAP 
00
00
68
cc
cc
cc
cc
cc
d4
d4
d4
68
00
00
ENDCHAR
STARTCHAR U+0461
ENCODING 1121
SWIDTH 500 0
DWIDTH 7 0
BBX 7 14 0 -2
BITMAP 
00
00
00
00
00
68
cc
d4
d4
d4
d4
68
00
00
ENDCHAR
STARTCHAR U+0462
ENCODING 1122
SWIDTH 500 0
DWIDTH 7 0
BBX 7 14 0 -2
BITMAP 
00
00
60
f8
60
60
78
6c
6c
6c
6c
78
00
00
ENDCHAR
STARTCHAR U+0463
ENCODING 1123
SWIDTH 500 0
DWIDTH 7 0
BBX 7 14 0 -2
BITMAP 
00
00
00
60
60
f8
60
60
78
6c
6c
78
00
00
ENDCHAR
STARTCHAR U+0466
ENCODING 1126
SWIDTH 500 0
DWIDTH 7 0
BBX 7 14 0 -2
BITMAP 
00
00
30
68
68
68
68
d4
d4
d4
d4
d4
00
00
ENDCHAR
STARTCHAR U+0467
ENCODING 1127
SWIDTH 500 0
DWIDTH 7 0
BBX 7 14 0 -2
BITMAP 
00
00
00
00
00
30
68
68
68
d4
d4
d4
00
00
ENDCHAR
STARTCHAR U+046A
ENCODING 1130
SWIDTH 500 0
DWIDTH 7 0
BBX 7 14 0 -2
BITMAP 
00
00
fc
cc
cc
68
30
78
d4
d4
d4
d4
00
00
ENDCHAR
STARTCHAR U+046B
ENCODING 1131
SWIDTH 500 0
DWIDTH 7 0
BBX 7 14 0 -2
BITMAP 
00
00
00
00
00
78
68
68
78
d4
d4
d4
00
00
ENDCHAR
STARTCHAR U+0470
ENCODING 1136
SWIDTH 500 0
DWIDTH 7 0
BBX 7 14 0 -2
BITMAP 
00
00
d4
d4
d4
d4
d4
d4
78
30
30
30
00
00
ENDCHAR
STARTCHAR U+0471
ENCODING 1137
SWIDTH 500 0
DWIDTH 7 0
BBX 7 14 0 -2
BITMAP 
00
00
00
00
00
d4
d4
d4
d4
d4
d4
78
30
30
ENDCHAR
STARTCHAR U+047A
ENCODING 1146
SWIDTH 500 0
DWIDTH 7 0
BBX 7 14 0 -2
BITMAP 
00
30
78
d4
cc
cc
cc
cc
cc
cc
d4
78
30
00
ENDCHAR
STARTCHAR U+047B
ENCODING 1147
SWIDTH 500 0
DWIDTH 7 0
BBX 7 14 0 -2
BITMAP 
00
00
00
00
30
78
d4
cc
cc
cc
d4
78
30
00
ENDCHAR
STARTCHAR U+047C
ENCODING 1148
SWIDTH 500 0
DWIDTH 7 0
BBX 7 14 0 -2
BITMAP 
0c
fc
c0
00
68
cc
cc
cc
d4
d4
d4
68
00
00
ENDCHAR
STARTCHAR U+047D
ENCODING 1149
SWIDTH 500 0
DWIDTH 7 0
BBX 7 14 0 -2
BITMAP 
00
0c
fc
c0
00
68
cc
d4
d4
d4
d4
68
00
00
ENDCHAR
STARTCHAR U+047E
ENCODING 1150
SWIDTH 500 0
DWIDTH 7 0
BBX 7 14 0 -2
BITMAP 
fc
30
00
68
cc
cc
cc
cc
d4
d4
d4
68
00
00
ENDCHAR
STARTCHAR U+047F
ENCODING 1151
SWIDTH 500 0
DWIDTH 7 0
BBX 7 14 0 -2
BITMAP 
00
00
fc
30
00
cc
cc
d4
d4
d4
d4
68
00
00
ENDCHAR
STARTCHAR U+0482
ENCODING 1154
SWIDTH 500 0
DWIDTH 7 0
BBX 7 14 0 -2
BITMAP 
00
00
00
00
34
18
d4
60
d0
00
00
00
00
00
ENDCHAR
STARTCHAR U+048C
ENCODING 1164
SWIDTH 500 0
DWIDTH 7 0
BBX 7 14 0 -2
BITMAP 
00
00
c0
f0
c0
c0
f8
cc
cc
cc
cc
f8
00
00
ENDCHAR
STARTCHAR U+048D
ENCODING 1165
SWIDTH 500 0
DWIDTH 7 0
BBX 7 14 0 -2
BITMAP 
00
00
00
00
00
c0
f0
c0
f8
cc
cc
f8
00
00
ENDCHAR
STARTCHAR U+0490
ENCODING 1168
SWIDTH 500 0
DWIDTH 7 0
BBX 7 14 0 -2
BITMAP 
00
06
06
fe
c0
c0
c0
c0
c0
c0
c0
c0
00
00
ENDCHAR
STARTCHAR U+0491
ENCODING 1169
SWIDTH 500 0
DWIDTH 7 0
BBX 7 14 0 -2
BITMAP 
00
00
00
06
06
fe
c0
c0
c0
c0
c0
c0
00
00
ENDCHAR
STARTCHAR U+04AD
ENCODING 1197
SWIDTH 500 0
DWIDTH 7 0
BBX 7 14 0 -2
BITMAP 
00
00
00
00
00
fc
d4
30
30
30
30
38
18
18
ENDCHAR
STARTCHAR U+04AE
ENCODING 1198
SWIDTH 500 0
DWIDTH 7 0
BBX 7 14 0 -2
BITMAP 
00
00
cc
cc
cc
68
68
30
30
30
30
30
00
00
ENDCHAR
STARTCHAR U+04AF
ENCODING 1199
SWIDTH 500 0
DWIDTH 7 0
BBX 7 14 0 -2
BITMAP 
00
00
00
00
00
cc
cc
cc
68
68
30
30
30
30
ENDCHAR
STARTCHAR U+04B0
ENCODING 1200
SWIDTH 500 0
DWIDTH 7 0
BBX 7 14 0 -2
BITMAP 
00
00
cc
cc
cc
68
68
fc
30
30
30
30
00
00
ENDCHAR
STARTCHAR U+04B1
ENCODING 1201
SWIDTH 500 0
DWIDTH 7 0
BBX 7 14 0 -2
BITMAP 
00
00
00
00
00
cc
cc
cc
68
68
fc
30
30
30
ENDCHAR
STARTCHAR U+04BB
ENCODING 1211
SWIDTH 500 0
DWIDTH 7 0
BBX 7 14 0 -2
BITMAP 
00
00
c0
c0
c0
c0
d8
ec
cc
cc
cc
cc
00
00
ENDCHAR
STARTCHAR U+04C0
ENCODING 1216
SWIDTH 500 0
DWIDTH 7 0
BBX 7 14 0 -2
BITMAP 
00
00
78
30
30
30
30
30
30
30
30
78
00
00
ENDCHAR
STARTCHAR U+04C1
ENCODING 1217
SWIDTH 500 0
DWIDTH 7 0
BBX 7 14 0 -2
BITMAP 
cc
78
00
d4
d4
d4
d4
78
d4
d4
d4
d4
00
00
ENDCHAR
STARTCHAR U+04C2
ENCODING 1218
SWIDTH 500 0
DWIDTH 7 0
BBX 7 14 0 -2
BITMAP 
00
00
cc
78
00
d4
d4
d4
78
d4
d4
d4
00
00
ENDCHAR
STARTCHAR U+04D5
ENCODING 1237
SWIDTH 500 0
DWIDTH 7 0
BBX 7 14 0 -2
BITMAP 
00
00
00
00
00
7c
da
1a
7e
d8
d8
7e
00
00
ENDCHAR
STARTCHAR U+04DC
ENCODING 1244
SWIDTH 500 0
DWIDTH 7 0
BBX 7 14 0 -2
BITMAP 
68
68
00
d4
d4
d4
d4
78
d4
d4
d4
d4
00
00
ENDCHAR
STARTCHAR U+04DD
ENCODING 1245
SWIDTH 500 0
DWIDTH 7 0
BBX 7 14 0 -2
BITMAP 
00
00
68
68
00
d4
d4
d4
78
d4
d4
d4
00
00
ENDCHAR
STARTCHAR U+0531
ENCODING 1329
SWIDTH 500 0
DWIDTH 7 0
BBX 7 14 0 -2
BITMAP 
00
00
00
d8
d8
d8
d8
d8
d8
d8
de
76
00
00
ENDCHAR
STARTCHAR U+0532
ENCODING 1330
SWIDTH 500 0
DWIDTH 7 0
BBX 7 14 0 -2
BITMAP 
00
00
00
7c
c6
c6
c0
fc
c6
c0
c0
c0
00
00
ENDCHAR
STARTCHAR U+0533
ENCODING 1331
SWIDTH 500 0
DWIDTH 7 0
BBX 7 14 0 -2
BITMAP 
00
00
00
70
d8
d8
d8
7c
1a
18
18
18
00
00
ENDCHAR
STARTCHAR U+0534
ENCODING 1332
SWIDTH 500 0
DWIDTH 7 0
BBX 7 14 0 -2
BITMAP 
00
00
00
70
d8
d8
18
1c
1a
18
18
18
00
00
ENDCHAR
STARTCHAR U+0535
ENCODING 1333
SWIDTH 500 0
DWIDTH 7 0
BBX 7 14 0 -2
BITMAP 
00
00
00
c0
c0
fc
c6
c0
c0
c6
c6
7c
00
00
ENDCHAR
STARTCHAR U+0536
ENCODING 1334
SWIDTH 500 0
DWIDTH 7 0
BBX 7 14 0 -2
BITMAP 
00
00
00
38
6c
6c
6c
3c
0c
d8
fc
c6
00
00
ENDCHAR
STARTCHAR U+0537
ENCODING 1335
SWIDTH 500 0
DWIDTH 7 0
BBX 7 14 0 -2
BITMAP 
00
00
00
c0
c0
c0
fc
c6
c0
c0
c0
7c
06
00
ENDCHAR
STARTCHAR U+0538
ENCODING 1336
SWIDTH 500 0
DWIDTH 7 0
BBX 7 14 0 -2
BITMAP 
00
00
00
78
cc
cc
c0
c0
c0
c0
c0
fc
06
00
ENDCHAR
STARTCHAR U+0539
ENCODING 1337
SWIDTH 500 0
DWIDTH 7 0
BBX 7 14 0 -2
BITMAP 
00
00
00
78
cc
cc
de
d4
d4
d8
c0
c0
00
00
ENDCHAR
STARTCHAR U+053A
ENCODING 1338
SWIDTH 500 0
DWIDTH 7 0
BBX 7 14 0 -2
BITMAP 
00
00
00
0c
0c
0c
0c
7e
cc
cc
cc
78
00
00
ENDCHAR
STARTCHAR U+053B
ENCODING 1339
SWIDTH 500 0
DWIDTH 7 0
BBX 7 14 0 -2
BITMAP 
00
00
00
c0
c0
c0
fc
c6
c6
c0
c0
c0
00
00
ENDCHAR
STARTCHAR U+053C
ENCODING 1340
SWIDTH 500 0
DWIDTH 7 0
BBX 7 14 0 -2
BITMAP 
00
00
00
c0
c0
c0
c0
c0
c0
c0
c0
7c
06
00
ENDCHAR
STARTCHAR U+053D
ENCODING 1341
SWIDTH 500 0
DWIDTH 7 0
BBX 7 14 0 -2
BITMAP 
00
00
00
c0
c0
f6
d6
d6
dc
c0
c0
c0
00
00
ENDCHAR
STARTCHAR U+053E
ENCODING 1342
SWIDTH 500 0
DWIDTH 7 0
BBX 7 14 0 -2
BITMAP 
00
00
00
fe
7c
c6
c6
c6
c6
c6
c6
7c
00
00
ENDCHAR
STARTCHAR U+053F
ENCODING 1343
SWIDTH 500 0
DWIDTH 7 0
BBX 7 14 0 -2
BITMAP 
00
00
00
c6
c6
c6
c6
c6
c6
7e
06
06
00
00
ENDCHAR
STARTCHAR U+0540
ENCODING 1344
SWIDTH 500 0
DWIDTH 7 0
BBX 7 14 0 -2
BITMAP 
00
00
00
18
30
18
30
60
c0
e0
38
0e
00
00
ENDCHAR
STARTCHAR U+0541
ENCODING 1345
SWIDTH 500 0
DWIDTH 7 0
BBX 7 14 0 -2
BITMAP 
00
00
00
38
6c
6c
6c
3c
0c
78
d8
74
00
00
ENDCHAR
STARTCHAR U+0542
ENCODING 1346
SWIDTH 500 0
DWIDTH 7 0
BBX 7 14 0 -2
BITMAP 
00
00
00
70
d8
d8
18
18
18
18
18
1c
06
00
ENDCHAR
STARTCHAR U+0543
ENCODING 1347
SWIDTH 500 0
DWIDTH 7 0
BBX 7 14 0 -2
BITMAP 
00
00
00
0c
0c
f8
38
6c
6c
6c
6c
fe
00
00
ENDCHAR
STARTCHAR U+0544
ENCODING 1348
SWIDTH 500 0
DWIDTH 7 0
BBX 7 14 0 -2
BITMAP 
00
00
00
de
da
d8
d8
d8
d8
d8
d8
70
00
00
ENDCHAR
STARTCHAR U+0545
ENCODING 1349
SWIDTH 500 0
DWIDTH 7 0
BBX 7 14 0 -2
BITMAP 
00
00
00
7c
c6
c6
36
3c
36
c6
c6
7c
00
00
ENDCHAR
STARTCHAR U+0546
ENCODING 1350
SWIDTH 500 0
DWIDTH 7 0
BBX 7 14 0 -2
BITMAP 
00
00
00
60
c0
e0
60
60
60
60
66
3c
00
00
ENDCHAR
STARTCHAR U+0547
ENCODING 1351
SWIDTH 500 0
DWIDTH 7 0
BBX 7 14 0 -2
BITMAP 
00
00
00
06
fc
60
c0
c6
c6
c6
c6
7c
00
00
ENDCHAR
STARTCHAR U+0548
ENCODING 1352
SWIDTH 500 0
DWIDTH 7 0
BBX 7 14 0 -2
BITMAP 
00
00
00
7c
c6
c6
c6
c6
c6
c6
c6
c6
00
00
ENDCHAR
STARTCHAR U+0549
ENCODING 1353
SWIDTH 500 0
DWIDTH 7 0
BBX 7 14 0 -2
BITMAP 
00
00
00
38
6c
6c
6c
3c
0c
18
f8
1e
00
00
ENDCHAR
STARTCHAR U+054A
ENCODING 1354
SWIDTH 500 0
DWIDTH 7 0
BBX 7 14 0 -2
BITMAP 
00
00
00
78
d4
d4
d4
34
34
0c
0c
0c
00
00
ENDCHAR
STARTCHAR U+054B
ENCODING 1355
SWIDTH 500 0
DWIDTH 7 0
BBX 7 14 0 -2
BITMAP 
00
00
00
78
cc
cc
cc
74
18
d8
fc
c6
00
00
ENDCHAR
STARTCHAR U+054C
ENCODING 1356
SWIDTH 500 0
DWIDTH 7 0
BBX 7 14 0 -2
BITMAP 
00
00
00
70
d8
d8
de
da
d8
d8
d8
d8
00
00
ENDCHAR
STARTCHAR U+054D
ENCODING 1357
SWIDTH 500 0
DWIDTH 7 0
BBX 7 14 0 -2
BITMAP 
00
00
00
c6
c6
c6
c6
c6
c6
c6
c6
7c
00
00
ENDCHAR
STARTCHAR U+054E
ENCODING 1358
SWIDTH 500 0
DWIDTH 7 0
BBX 7 14 0 -2
BITMAP 
00
00
00
d8
d8
d8
d8
d8
d8
78
18
1c
06
00
ENDCHAR
STARTCHAR U+054F
ENCODING 1359
SWIDTH 500 0
DWIDTH 7 0
BBX 7 14 0 -2
BITMAP 
00
00
00
7c
c6
c0
70
1c
06
c6
c6
7c
00
00
ENDCHAR
STARTCHAR U+0550
ENCODING 1360
SWIDTH 500 0
DWIDTH 7 0
BBX 7 14 0 -2
BITMAP 
00
00
00
7c
c6
c6
c0
c0
c0
c0
c0
c0
00
00
ENDCHAR
STARTCHAR U+0551
ENCODING 1361
SWIDTH 500 0
DWIDTH 7 0
BBX 7 14 0 -2
BITMAP 
00
00
00
7c
c6
c6
7c
c6
06
06
c6
7c
00
00
ENDCHAR
STARTCHAR U+0552
ENCODING 1362
SWIDTH 500 0
DWIDTH 7 0
BBX 7 14 0 -2
BITMAP 
00
00
00
c0
c0
c0
f8
cc
cc
c6
c0
c0
00
00
ENDCHAR
STARTCHAR U+0553
ENCODING 1363
SWIDTH 500 0
DWIDTH 7 0
BBX 7 14 0 -2
BITMAP 
00
00
00
30
78
d4
d4
d4
d4
78
30
00
00
00
ENDCHAR
STARTCHAR U+0554
ENCODING 1364
SWIDTH 500 0
DWIDTH 7 0
BBX 7 14 0 -2
BITMAP 
00
00
00
1c
36
3a
d4
fc
34
30
30
30
00
00
ENDCHAR
STARTCHAR U+0555
ENCODING 1365
SWIDTH 500 0
DWIDTH 7 0
BBX 7 14 0 -2
BITMAP 
00
00
00
7c
c6
c6
c6
c6
c6
c6
c6
7c
00
00
ENDCHAR
STARTCHAR U+0556
ENCODING 1366
SWIDTH 500 0
DWIDTH 7 0
BBX 7 14 0 -2
BITMAP 
00
00
00
78
d8
d8
7c
1a
1a
da
da
7c
00
00
ENDCHAR
STARTCHAR U+0559
ENCODING 1369
SWIDTH 500 0
DWIDTH 7 0
BBX 7 14 0 -2
BITMAP 
c0
80
c0
00
00
00
00
00
00
00
00
00
00
00
ENDCHAR
STARTCHAR U+055A
ENCODING 1370
SWIDTH 500 0
DWIDTH 7 0
BBX 7 14 0 -2
BITMAP 
80
c0
80
00
00
00
00
00
00
00
00
00
00
00
ENDCHAR
STARTCHAR U+055B
ENCODING 1371
SWIDTH 500 0
DWIDTH 7 0
BBX 7 14 0 -2
BITMAP 
00
30
70
60
00
00
00
00
00
00
00
00
00
00
ENDCHAR
STARTCHAR U+055C
ENCODING 1372
SWIDTH 500 0
DWIDTH 7 0
BBX 7 14 0 -2
BITMAP 
00
1c
70
00
00
00
00
00
00
00
00
00
00
00
ENDCHAR
STARTCHAR U+055D
ENCODING 1373
SWIDTH 500 0
DWIDTH 7 0
BBX 7 14 0 -2
BITMAP 
00
30
38
18
00
00
00
00
00
00
00
00
00
00
ENDCHAR
STARTCHAR U+055E
ENCODING 1374
SWIDTH 500 0
DWIDTH 7 0
BBX 7 14 0 -2
BITMAP 
78
d4
d8
00
00
00
00
00
00
00
00
00
00
00
ENDCHAR
STARTCHAR U+055F
ENCODING 1375
SWIDTH 500 0
DWIDTH 7 0
BBX 7 14 0 -2
BITMAP 
70
d0
7c
00
00
00
00
00
00
00
00
00
00
00
ENDCHAR
STARTCHAR U+0561
ENCODING 1377
SWIDTH 500 0
DWIDTH 7 0
BBX 7 14 0 -2
BITMAP 
00
00
00
00
00
cc
d4
d4
d4
d4
d4
68
00
00
ENDCHAR
STARTCHAR U+0562
ENCODING 1378
SWIDTH 500 0
DWIDTH 7 0
BBX 7 14 0 -2
BITMAP 
00
00
00
00
00
00
78
cc
cc
c0
c0
fc
c0
c0
ENDCHAR
STARTCHAR U+0563
ENCODING 1379
SWIDTH 500 0
DWIDTH 7 0
BBX 7 14 0 -2
BITMAP 
00
00
00
00
00
00
78
d8
d8
d8
d8
7e
18
18
ENDCHAR
STARTCHAR U+0564
ENCODING 1380
SWIDTH 500 0
DWIDTH 7 0
BBX 7 14 0 -2
BITMAP 
00
00
00
00
00
d0
e8
d8
d8
d8
d8
de
18
18
ENDCHAR
STARTCHAR U+0565
ENCODING 1381
SWIDTH 500 0
DWIDTH 7 0
BBX 7 14 0 -2
BITMAP 
00
00
00
c0
c0
c0
fc
c0
cc
cc
ec
dc
00
00
ENDCHAR
STARTCHAR U+0566
ENCODING 1382
SWIDTH 500 0
DWIDTH 7 0
BBX 7 14 0 -2
BITMAP 
00
00
00
00
00
00
78
d8
d8
d8
d8
78
18
1e
ENDCHAR
STARTCHAR U+0567
ENCODING 1383
SWIDTH 500 0
DWIDTH 7 0
BBX 7 14 0 -2
BITMAP 
00
00
00
c0
c0
fc
c0
c0
c0
c0
c0
78
0c
00
ENDCHAR
STARTCHAR U+0568
ENCODING 1384
SWIDTH 500 0
DWIDTH 7 0
BBX 7 14 0 -2
BITMAP 
00
00
00
00
00
dc
e6
c6
c6
c6
c6
c6
c0
fe
ENDCHAR
STARTCHAR U+0569
ENCODING 1385
SWIDTH 500 0
DWIDTH 7 0
BBX 7 14 0 -2
BITMAP 
00
00
00
00
00
d8
ec
cc
cc
de
ec
d8
c0
c0
ENDCHAR
STARTCHAR U+056A
ENCODING 1386
SWIDTH 500 0
DWIDTH 7 0
BBX 7 14 0 -2
BITMAP 
00
00
00
0c
0c
0c
7e
cc
cc
cc
cc
78
00
00
ENDCHAR
STARTCHAR U+056B
ENCODING 1387
SWIDTH 500 0
DWIDTH 7 0
BBX 7 14 0 -2
BITMAP 
00
00
00
c0
c0
c0
d8
ec
cc
cc
cc
cc
c0
c0
ENDCHAR
STARTCHAR U+056C
ENCODING 1388
SWIDTH 500 0
DWIDTH 7 0
BBX 7 14 0 -2
BITMAP 
00
00
00
00
00
c0
c0
c0
c0
c0
c0
c0
c0
fe
ENDCHAR
STARTCHAR U+056D
ENCODING 1389
SWIDTH 500 0
DWIDTH 7 0
BBX 7 14 0 -2
BITMAP 
00
00
00
c0
c0
c0
f6
d6
d6
d6
d6
dc
c0
c0
ENDCHAR
STARTCHAR U+056E
ENCODING 1390
SWIDTH 500 0
DWIDTH 7 0
BBX 7 14 0 -2
BITMAP 
00
00
00
00
c0
60
30
7e
d8
cc
cc
78
00
00
ENDCHAR
STARTCHAR U+056F
ENCODING 1391
SWIDTH 500 0
DWIDTH 7 0
BBX 7 14 0 -2
BITMAP 
00
00
00
c0
c0
c0
c0
cc
cc
cc
cc
7c
0c
0c
ENDCHAR
STARTCHAR U+0570
ENCODING 1392
SWIDTH 500 0
DWIDTH 7 0
BBX 7 14 0 -2
BITMAP 
00
00
00
c0
c0
c0
d8
ec
cc
cc
cc
cc
00
00
ENDCHAR
STARTCHAR U+0571
ENCODING 1393
SWIDTH 500 0
DWIDTH 7 0
BBX 7 14 0 -2
BITMAP 
00
00
00
30
60
30
7c
cc
cc
cc
cc
7c
00
00
ENDCHAR
STARTCHAR U+0572
ENCODING 1394
SWIDTH 500 0
DWIDTH 7 0
BBX 7 14 0 -2
BITMAP 
00
00
00
00
00
d0
e8
d8
d8
d8
d8
d8
18
1e
ENDCHAR
STARTCHAR U+0573
ENCODING 1395
SWIDTH 500 0
DWIDTH 7 0
BBX 7 14 0 -2
BITMAP 
00
00
00
3c
66
60
fe
66
66
66
6e
3a
00
00
ENDCHAR
STARTCHAR U+0574
ENCODING 1396
SWIDTH 500 0
DWIDTH 7 0
BBX 7 14 0 -2
BITMAP 
00
00
00
0e
18
18
d8
d8
d8
d8
d8
68
00
00
ENDCHAR
STARTCHAR U+0575
ENCODING 1397
SWIDTH 500 0
DWIDTH 7 0
BBX 7 14 0 -2
BITMAP 
00
00
00
00
00
1c
0c
0c
0c
0c
0c
cc
cc
78
ENDCHAR
STARTCHAR U+0576
ENCODING 1398
SWIDTH 500 0
DWIDTH 7 0
BBX 7 14 0 -2
BITMAP 
00
00
00
78
cc
c0
cc
cc
cc
cc
dc
74
00
00
ENDCHAR
STARTCHAR U+0577
ENCODING 1399
SWIDTH 500 0
DWIDTH 7 0
BBX 7 14 0 -2
BITMAP 
00
00
00
70
d8
18
18
30
30
60
60
7e
00
00
ENDCHAR
STARTCHAR U+0578
ENCODING 1400
SWIDTH 500 0
DWIDTH 7 0
BBX 7 14 0 -2
BITMAP 
00
00
00
00
00
dc
e6
c6
c6
c6
c6
c6
00
00
ENDCHAR
STARTCHAR U+0579
ENCODING 1401
SWIDTH 500 0
DWIDTH 7 0
BBX 7 14 0 -2
BITMAP 
00
00
00
18
30
18
18
30
30
60
60
7e
00
00
ENDCHAR
STARTCHAR U+057A
ENCODING 1402
SWIDTH 500 0
DWIDTH 7 0
BBX 7 14 0 -2
BITMAP 
00
00
00
00
00
cc
d4
d4
d4
d4
d4
6c
0c
0c
ENDCHAR
STARTCHAR U+057B
ENCODING 1403
SWIDTH 500 0
DWIDTH 7 0
BBX 7 14 0 -2
BITMAP 
00
00
00
70
d8
d8
d8
70
30
60
60
7e
00
00
ENDCHAR
STARTCHAR U+057C
ENCODING 1404
SWIDTH 500 0
DWIDTH 7 0
BBX 7 14 0 -2
BITMAP 
00
00
00
00
00
d0
e8
d8
d8
d8
d8
de
00
00
ENDCHAR
STARTCHAR U+057D
ENCODING 1405
SWIDTH 500 0
DWIDTH 7 0
BBX 7 14 0 -2
BITMAP 
00
00
00
00
00
cc
cc
cc
cc
cc
dc
74
00
00
ENDCHAR
STARTCHAR U+057E
ENCODING 1406
SWIDTH 500 0
DWIDTH 7 0
BBX 7 14 0 -2
BITMAP 
00
00
00
18
18
18
d8
d8
d8
d8
d8
78
18
1e
ENDCHAR
STARTCHAR U+057F
ENCODING 1407
SWIDTH 500 0
DWIDTH 7 0
BBX 7 14 0 -2
BITMAP 
00
00
00
00
00
d8
de
da
da
da
da
6a
00
00
ENDCHAR
STARTCHAR U+0580
ENCODING 1408
SWIDTH 500 0
DWIDTH 7 0
BBX 7 14 0 -2
BITMAP 
00
00
00
00
00
dc
e6
c6
c6
c6
c6
c6
c0
c0
ENDCHAR
STARTCHAR U+0581
ENCODING 1409
SWIDTH 500 0
DWIDTH 7 0
BBX 7 14 0 -2
BITMAP 
00
00
00
00
00
3c
66
c6
c6
c6
7e
06
c6
7c
ENDCHAR
STARTCHAR U+0582
ENCODING 1410
SWIDTH 500 0
DWIDTH 7 0
BBX 7 14 0 -2
BITMAP 
00
00
00
00
00
e0
60
60
60
60
60
78
00
00
ENDCHAR
STARTCHAR U+0583
ENCODING 1411
SWIDTH 500 0
DWIDTH 7 0
BBX 7 14 0 -2
BITMAP 
00
00
00
18
18
18
d8
de
da
da
da
6a
18
18
ENDCHAR
STARTCHAR U+0584
ENCODING 1412
SWIDTH 500 0
DWIDTH 7 0
BBX 7 14 0 -2
BITMAP 
00
00
00
1c
30
30
fc
30
30
30
30
30
00
00
ENDCHAR
STARTCHAR U+0585
ENCODING 1413
SWIDTH 500 0
DWIDTH 7 0
BBX 7 14 0 -2
BITMAP 
00
00
00
00
00
7c
c6
c6
c6
c6
c6
7c
00
00
ENDCHAR
STARTCHAR U+0586
ENCODING 1414
SWIDTH 500 0
DWIDTH 7 0
BBX 7 14 0 -2
BITMAP 
00
00
00
78
d8
d8
7c
1a
1a
da
da
7c
18
18
ENDCHAR
STARTCHAR U+0587
ENCODING 1415
SWIDTH 500 0
DWIDTH 7 0
BBX 7 14 0 -2
BITMAP 
00
00
00
c0
c0
c0
d8
d8
d8
d8
d8
76
00
00
ENDCHAR
STARTCHAR U+0589
ENCODING 1417
SWIDTH 500 0
DWIDTH 7 0
BBX 7 14 0 -2
BITMAP 
00
00
00
00
00
38
38
00
00
00
38
38
00
00
ENDCHAR
STARTCHAR U+058A
ENCODING 1418
SWIDTH 500 0
DWIDTH 7 0
BBX 7 14 0 -2
BITMAP 
00
00
00
00
00
00
00
e0
cc
78
00
00
00
00
ENDCHAR
STARTCHAR U+05BE
ENCODING 1470
SWIDTH 500 0
DWIDTH 7 0
BBX 7 14 0 -2
BITMAP 
00
7c
f8
00
00
00
00
00
00
00
00
00
00
00
ENDCHAR
STARTCHAR U+05C0
ENCODING 1472
SWIDTH 500 0
DWIDTH 7 0
BBX 7 14 0 -2
BITMAP 
00
00
00
00
00
30
30
30
30
30
30
30
00
00
ENDCHAR
STARTCHAR U+05C3
ENCODING 1475
SWIDTH 500 0
DWIDTH 7 0
BBX 7 14 0 -2
BITMAP 
00
00
00
00
00
30
30
00
00
30
30
00
00
00
ENDCHAR
STARTCHAR U+05D0
ENCODING 1488
SWIDTH 500 0
DWIDTH 7 0
BBX 7 14 0 -2
BITMAP 
00
00
00
00
c6
c6
66
34
68
cc
c6
c6
00
00
ENDCHAR
STARTCHAR U+05D1
ENCODING 1489
SWIDTH 500 0
DWIDTH 7 0
BBX 7 14 0 -2
BITMAP 
00
00
00
00
fc
0c
0c
0c
0c
0c
0c
fe
00
00
ENDCHAR
STARTCHAR U+05D2
ENCODING 1490
SWIDTH 500 0
DWIDTH 7 0
BBX 7 14 0 -2
BITMAP 
00
00
00
00
70
18
18
0c
1c
34
66
c6
00
00
ENDCHAR
STARTCHAR U+05D3
ENCODING 1491
SWIDTH 500 0
DWIDTH 7 0
BBX 7 14 0 -2
BITMAP 
00
00
00
00
fe
0c
0c
0c
0c
0c
0c
0c
00
00
ENDCHAR
STARTCHAR U+05D4
ENCODING 1492
SWIDTH 500 0
DWIDTH 7 0
BBX 7 14 0 -2
BITMAP 
00
00
00
00
fe
06
06
66
66
66
66
66
00
00
ENDCHAR
STARTCHAR U+05D5
ENCODING 1493
SWIDTH 500 0
DWIDTH 7 0
BBX 7 14 0 -2
BITMAP 
00
00
00
00
78
18
18
18
18
18
18
18
00
00
ENDCHAR
STARTCHAR U+05D6
ENCODING 1494
SWIDTH 500 0
DWIDTH 7 0
BBX 7 14 0 -2
BITMAP 
00
00
00
00
70
1c
1a
18
18
18
18
18
00
00
ENDCHAR
STARTCHAR U+05D7
ENCODING 1495
SWIDTH 500 0
DWIDTH 7 0
BBX 7 14 0 -2
BITMAP 
00
00
00
00
fe
66
66
66
66
66
66
66
00
00
ENDCHAR
STARTCHAR U+05D8
ENCODING 1496
SWIDTH 500 0
DWIDTH 7 0
BBX 7 14 0 -2
BITMAP 
00
00
00
00
ce
da
c6
c6
c6
c6
c6
fe
00
00
ENDCHAR
STARTCHAR U+05D9
ENCODING 1497
SWIDTH 500 0
DWIDTH 7 0
BBX 7 14 0 -2
BITMAP 
00
00
00
00
78
18
18
18
00
00
00
00
00
00
ENDCHAR
STARTCHAR U+05DA
ENCODING 1498
SWIDTH 500 0
DWIDTH 7 0
BBX 7 14 0 -2
BITMAP 
00
00
00
00
fe
06
06
06
06
06
06
06
06
06
ENDCHAR
STARTCHAR U+05DB
ENCODING 1499
SWIDTH 500 0
DWIDTH 7 0
BBX 7 14 0 -2
BITMAP 
00
00
00
00
fe
06
06
06
06
06
06
fc
00
00
ENDCHAR
STARTCHAR U+05DC
ENCODING 1500
SWIDTH 500 0
DWIDTH 7 0
BBX 7 14 0 -2
BITMAP 
00
00
60
60
7e
06
06
06
0c
0c
18
70
00
00
ENDCHAR
STARTCHAR U+05DD
ENCODING 1501
SWIDTH 500 0
DWIDTH 7 0
BBX 7 14 0 -2
BITMAP 
00
00
00
00
fe
66
66
66
66
66
66
7e
00
00
ENDCHAR
STARTCHAR U+05DE
ENCODING 1502
SWIDTH 500 0
DWIDTH 7 0
BBX 7 14 0 -2
BITMAP 
00
00
00
00
d8
d8
6c
6c
6c
c6
c6
de
00
00
ENDCHAR
STARTCHAR U+05DF
ENCODING 1503
SWIDTH 500 0
DWIDTH 7 0
BBX 7 14 0 -2
BITMAP 
00
00
00
00
78
18
18
18
18
18
18
18
18
18
ENDCHAR
STARTCHAR U+05E0
ENCODING 1504
SWIDTH 500 0
DWIDTH 7 0
BBX 7 14 0 -2
BITMAP 
00
00
00
00
3c
0c
0c
0c
0c
0c
0c
7c
00
00
ENDCHAR
STARTCHAR U+05E1
ENCODING 1505
SWIDTH 500 0
DWIDTH 7 0
BBX 7 14 0 -2
BITMAP 
00
00
00
00
fe
c6
c6
c6
c6
c6
cc
f8
00
00
ENDCHAR
STARTCHAR U+05E2
ENCODING 1506
SWIDTH 500 0
DWIDTH 7 0
BBX 7 14 0 -2
BITMAP 
00
00
00
00
36
36
36
36
36
36
36
fe
00
00
ENDCHAR
STARTCHAR U+05E3
ENCODING 1507
SWIDTH 500 0
DWIDTH 7 0
BBX 7 14 0 -2
BITMAP 
00
00
00
00
fe
c6
c6
c6
f6
06
06
06
06
06
ENDCHAR
STARTCHAR U+05E4
ENCODING 1508
SWIDTH 500 0
DWIDTH 7 0
BBX 7 14 0 -2
BITMAP 
00
00
00
00
fe
c6
c6
c6
f6
06
06
fe
00
00
ENDCHAR
STARTCHAR U+05E5
ENCODING 1509
SWIDTH 500 0
DWIDTH 7 0
BBX 7 14 0 -2
BITMAP 
00
00
00
00
6c
6c
68
68
70
60
60
60
60
60
ENDCHAR
STARTCHAR U+05E6
ENCODING 1510
SWIDTH 500 0
DWIDTH 7 0
BBX 7 14 0 -2
BITMAP 
00
00
00
00
c6
c6
6c
38
18
0c
06
fe
00
00
ENDCHAR
STARTCHAR U+05E7
ENCODING 1511
SWIDTH 500 0
DWIDTH 7 0
BBX 7 14 0 -2
BITMAP 
00
00
00
00
fe
66
66
6c
6c
68
60
60
60
60
ENDCHAR
STARTCHAR U+05E8
ENCODING 1512
SWIDTH 500 0
DWIDTH 7 0
BBX 7 14 0 -2
BITMAP 
00
00
00
00
fe
06
06
06
06
06
06
06
00
00
ENDCHAR
STARTCHAR U+05E9
ENCODING 1513
SWIDTH 500 0
DWIDTH 7 0
BBX 7 14 0 -2
BITMAP 
00
00
00
00
d4
d4
d4
d4
d4
d4
d4
fc
00
00
ENDCHAR
STARTCHAR U+05EA
ENCODING 1514
SWIDTH 500 0
DWIDTH 7 0
BBX 7 14 0 -2
BITMAP 
00
00
00
00
7e
66
66
66
66
66
66
e6
00
00
ENDCHAR
STARTCHAR U+05F0
ENCODING 1520
SWIDTH 500 0
DWIDTH 7 0
BBX 7 14 0 -2
BITMAP 
00
00
00
00
00
ec
6c
6c
6c
6c
6c
6c
00
00
ENDCHAR
STARTCHAR U+05F1
ENCODING 1521
SWIDTH 500 0
DWIDTH 7 0
BBX 7 14 0 -2
BITMAP 
00
00
00
00
00
ec
6c
6c
0c
0c
0c
0c
00
00
ENDCHAR
STARTCHAR U+05F2
ENCODING 1522
SWIDTH 500 0
DWIDTH 7 0
BBX 7 14 0 -2
BITMAP 
00
00
00
00
00
ec
6c
6c
00
00
00
00
00
00
ENDCHAR
STARTCHAR U+05F3
ENCODING 1523
SWIDTH 500 0
DWIDTH 7 0
BBX 7 14 0 -2
BITMAP 
00
00
00
00
00
30
60
00
00
00
00
00
00
00
ENDCHAR
STARTCHAR U+05F4
ENCODING 1524
SWIDTH 500 0
DWIDTH 7 0
BBX 7 14 0 -2
BITMAP 
00
00
00
00
00
6c
d8
00
00
00
00
00
00
00
ENDCHAR
STARTCHAR U+0E01
ENCODING 3585
SWIDTH 500 0
DWIDTH 7 0
BBX 7 14 0 -2
BITMAP 
00
00
00
00
00
78
cc
ec
6c
6c
6c
6c
00
00
ENDCHAR
STARTCHAR U+0E02
ENCODING 3586
SWIDTH 500 0
DWIDTH 7 0
BBX 7 14 0 -2
BITMAP 
00
00
00
00
00
74
74
34
6c
6c
6c
38
00
00
ENDCHAR
STARTCHAR U+0E03
ENCODING 3587
SWIDTH 500 0
DWIDTH 7 0
BBX 7 14 0 -2
BITMAP 
00
00
00
00
00
d4
f4
34
6c
6c
6c
38
00
00
ENDCHAR
STARTCHAR U+0E04
ENCODING 3588
SWIDTH 500 0
DWIDTH 7 0
BBX 7 14 0 -2
BITMAP 
00
00
00
00
00
78
cc
cc
f4
f4
ec
6c
00
00
ENDCHAR
STARTCHAR U+0E05
ENCODING 3589
SWIDTH 500 0
DWIDTH 7 0
BBX 7 14 0 -2
BITMAP 
00
00
00
00
00
68
d4
cc
f4
f4
ec
6c
00
00
ENDCHAR
STARTCHAR U+0E06
ENCODING 3590
SWIDTH 500 0
DWIDTH 7 0
BBX 7 14 0 -2
BITMAP 
00
00
00
00
00
d4
f4
34
6c
6c
f4
e8
00
00
ENDCHAR
STARTCHAR U+0E07
ENCODING 3591
SWIDTH 500 0
DWIDTH 7 0
BBX 7 14 0 -2
BITMAP 
00
00
00
00
00
38
38
18
18
d8
68
38
00
00
ENDCHAR
STARTCHAR U+0E08
ENCODING 3592
SWIDTH 500 0
DWIDTH 7 0
BBX 7 14 0 -2
BITMAP 
00
00
00
00
00
78
cc
0c
74
74
34
38
00
00
ENDCHAR
STARTCHAR U+0E09
ENCODING 3593
SWIDTH 500 0
DWIDTH 7 0
BBX 7 14 0 -2
BITMAP 
00
00
00
00
00
78
cc
0c
ec
ec
6e
76
00
00
ENDCHAR
STARTCHAR U+0E0A
ENCODING 3594
SWIDTH 500 0
DWIDTH 7 0
BBX 7 14 0 -2
BITMAP 
00
00
00
18
18
e8
f0
68
d8
d8
d8
70
00
00
ENDCHAR
STARTCHAR U+0E0B
ENCODING 3595
SWIDTH 500 0
DWIDTH 7 0
BBX 7 14 0 -2
BITMAP 
00
00
00
0c
0c
d4
f8
34
6c
6c
6c
38
00
00
ENDCHAR
STARTCHAR U+0E0C
ENCODING 3596
SWIDTH 500 0
DWIDTH 7 0
BBX 7 14 0 -2
BITMAP 
00
00
00
00
00
76
da
6a
da
da
fe
ea
00
00
ENDCHAR
STARTCHAR U+0E0D
ENCODING 3597
SWIDTH 500 0
DWIDTH 7 0
BBX 7 14 0 -2
BITMAP 
00
00
00
00
00
76
da
6a
da
da
ee
e8
1e
00
ENDCHAR
STARTCHAR U+0E0E
ENCODING 3598
SWIDTH 500 0
DWIDTH 7 0
BBX 7 14 0 -2
BITMAP 
00
00
00
00
00
78
cc
6c
6c
6c
ec
ec
3c
6c
ENDCHAR
STARTCHAR U+0E0F
ENCODING 3599
SWIDTH 500 0
DWIDTH 7 0
BBX 7 14 0 -2
BITMAP 
00
00
00
00
00
78
cc
6c
6c
6c
ec
ec
d4
68
ENDCHAR
STARTCHAR U+0E10
ENCODING 3600
SWIDTH 500 0
DWIDTH 7 0
BBX 7 14 0 -2
BITMAP 
00
00
00
00
00
7c
c0
78
0c
74
74
1c
d4
6c
ENDCHAR
STARTCHAR U+0E11
ENCODING 3601
SWIDTH 500 0
DWIDTH 7 0
BBX 7 14 0 -2
BITMAP 
00
00
00
00
00
d4
fc
34
6c
6c
6c
6c
00
00
ENDCHAR
STARTCHAR U+0E12
ENCODING 3602
SWIDTH 500 0
DWIDTH 7 0
BBX 7 14 0 -2
BITMAP 
00
00
00
00
00
6a
da
da
ea
ea
de
da
00
00
ENDCHAR
STARTCHAR U+0E13
ENCODING 3603
SWIDTH 500 0
DWIDTH 7 0
BBX 7 14 0 -2
BITMAP 
00
00
00
00
00
74
d4
74
d4
d4
de
f6
00
00
ENDCHAR
STARTCHAR U+0E14
ENCODING 3604
SWIDTH 500 0
DWIDTH 7 0
BBX 7 14 0 -2
BITMAP 
00
00
00
00
00
78
cc
cc
f4
f4
d4
6c
00
00
ENDCHAR
STARTCHAR U+0E15
ENCODING 3605
SWIDTH 500 0
DWIDTH 7 0
BBX 7 14 0 -2
BITMAP 
00
00
00
00
00
68
d4
cc
f4
f4
d4
6c
00
00
ENDCHAR
STARTCHAR U+0E16
ENCODING 3606
SWIDTH 500 0
DWIDTH 7 0
BBX 7 14 0 -2
BITMAP 
00
00
00
00
00
78
cc
ec
6c
6c
74
74
00
00
ENDCHAR
STARTCHAR U+0E17
ENCODING 3607
SWIDTH 500 0
DWIDTH 7 0
BBX 7 14 0 -2
BITMAP 
00
00
00
00
00
e8
f4
6c
6c
6c
6c
6c
00
00
ENDCHAR
STARTCHAR U+0E18
ENCODING 3608
SWIDTH 500 0
DWIDTH 7 0
BBX 7 14 0 -2
BITMAP 
00
00
00
00
00
7c
c0
f8
6c
6c
6c
38
00
00
ENDCHAR
STARTCHAR U+0E19
ENCODING 3609
SWIDTH 500 0
DWIDTH 7 0
BBX 7 14 0 -2
BITMAP 
00
00
00
00
00
e8
e8
68
d8
d8
dc
6c
00
00
ENDCHAR
STARTCHAR U+0E1A
ENCODING 3610
SWIDTH 500 0
DWIDTH 7 0
BBX 7 14 0 -2
BITMAP 
00
00
00
00
00
ec
ec
6c
6c
6c
6c
38
00
00
ENDCHAR
STARTCHAR U+0E1B
ENCODING 3611
SWIDTH 500 0
DWIDTH 7 0
BBX 7 14 0 -2
BITMAP 
00
00
00
0c
0c
ec
ec
6c
6c
6c
6c
38
00
00
ENDCHAR
STARTCHAR U+0E1C
ENCODING 3612
SWIDTH 500 0
DWIDTH 7 0
BBX 7 14 0 -2
BITMAP 
00
00
00
00
00
ec
ec
cc
d4
d4
d4
68
00
00
ENDCHAR
STARTCHAR U+0E1D
ENCODING 3613
SWIDTH 500 0
DWIDTH 7 0
BBX 7 14 0 -2
BITMAP 
00
00
00
0c
0c
ec
ec
cc
d4
d4
d4
68
00
00
ENDCHAR
STARTCHAR U+0E1E
ENCODING 3614
SWIDTH 500 0
DWIDTH 7 0
BBX 7 14 0 -2
BITMAP 
00
00
00
00
00
ec
ec
6c
d4
d4
d4
6c
00
00
ENDCHAR
STARTCHAR U+0E1F
ENCODING 3615
SWIDTH 500 0
DWIDTH 7 0
BBX 7 14 0 -2
BITMAP 
00
00
00
0c
0c
ec
ec
6c
d4
d4
d4
68
00
00
ENDCHAR
STARTCHAR U+0E20
ENCODING 3616
SWIDTH 500 0
DWIDTH 7 0
BBX 7 14 0 -2
BITMAP 
00
00
00
00
00
78
cc
ec
6c
6c
ec
ec
00
00
ENDCHAR
STARTCHAR U+0E21
ENCODING 3617
SWIDTH 500 0
DWIDTH 7 0
BBX 7 14 0 -2
BITMAP 
00
00
00
00
00
ec
ec
6c
6c
6c
f4
e8
00
00
ENDCHAR
STARTCHAR U+0E22
ENCODING 3618
SWIDTH 500 0
DWIDTH 7 0
BBX 7 14 0 -2
BITMAP 
00
00
00
00
00
ec
ec
cc
74
cc
cc
78
00
00
ENDCHAR
STARTCHAR U+0E23
ENCODING 3619
SWIDTH 500 0
DWIDTH 7 0
BBX 7 14 0 -2
BITMAP 
00
00
00
00
00
7c
c0
f8
0c
0c
1c
1c
00
00
ENDCHAR
STARTCHAR U+0E24
ENCODING 3620
SWIDTH 500 0
DWIDTH 7 0
BBX 7 14 0 -2
BITMAP 
00
00
00
00
00
78
cc
ec
6c
6c
74
74
0c
0c
ENDCHAR
STARTCHAR U+0E25
ENCODING 3621
SWIDTH 500 0
DWIDTH 7 0
BBX 7 14 0 -2
BITMAP 
00
00
00
00
00
78
cc
0c
74
dc
ec
ec
00
00
ENDCHAR
STARTCHAR U+0E26
ENCODING 3622
SWIDTH 500 0
DWIDTH 7 0
BBX 7 14 0 -2
BITMAP 
00
00
00
00
00
78
cc
ec
6c
6c
ec
ec
0c
0c
ENDCHAR
STARTCHAR U+0E27
ENCODING 3623
SWIDTH 500 0
DWIDTH 7 0
BBX 7 14 0 -2
BITMAP 
00
00
00
00
00
78
cc
0c
0c
0c
1c
1c
00
00
ENDCHAR
STARTCHAR U+0E28
ENCODING 3624
SWIDTH 500 0
DWIDTH 7 0
BBX 7 14 0 -2
BITMAP 
00
00
00
0c
0c
78
cc
cc
f4
f4
ec
6c
00
00
ENDCHAR
STARTCHAR U+0E29
ENCODING 3625
SWIDTH 500 0
DWIDTH 7 0
BBX 7 14 0 -2
BITMAP 
00
00
00
00
00
ec
ec
6c
6e
6c
6c
38
00
00
ENDCHAR
STARTCHAR U+0E2A
ENCODING 3626
SWIDTH 500 0
DWIDTH 7 0
BBX 7 14 0 -2
BITMAP 
00
00
00
0c
0c
78
cc
0c
74
dc
ec
ec
00
00
ENDCHAR
STARTCHAR U+0E2B
ENCODING 3627
SWIDTH 500 0
DWIDTH 7 0
BBX 7 14 0 -2
BITMAP 
00
00
00
00
00
ec
ec
68
74
6c
6c
6c
00
00
ENDCHAR
STARTCHAR U+0E2C
ENCODING 3628
SWIDTH 500 0
DWIDTH 7 0
BBX 7 14 0 -2
BITMAP 
00
00
00
0c
0c
e8
ec
6c
d4
d4
d4
68
00
00
ENDCHAR
STARTCHAR U+0E2D
ENCODING 3629
SWIDTH 500 0
DWIDTH 7 0
BBX 7 14 0 -2
BITMAP 
00
00
00
00
00
78
cc
0c
ec
ec
cc
78
00
00
ENDCHAR
STARTCHAR U+0E2E
ENCODING 3630
SWIDTH 500 0
DWIDTH 7 0
BBX 7 14 0 -2
BITMAP 
00
00
00
0c
0c
78
f4
0c
ec
ec
cc
78
00
00
ENDCHAR
STARTCHAR U+0E2F
ENCODING 3631
SWIDTH 500 0
DWIDTH 7 0
BBX 7 14 0 -2
BITMAP 
00
00
00
00
00
ec
f4
0c
0c
0c
0c
18
00
00
ENDCHAR
STARTCHAR U+0E30
ENCODING 3632
SWIDTH 500 0
DWIDTH 7 0
BBX 7 14 0 -2
BITMAP 
00
00
00
00
00
00
74
78
00
74
78
00
00
00
ENDCHAR
STARTCHAR U+0E31
ENCODING 3633
SWIDTH 500 0
DWIDTH 7 0
BBX 7 14 0 -2
BITMAP 
76
7c
00
00
00
00
00
00
00
00
00
00
00
00
ENDCHAR
STARTCHAR U+0E32
ENCODING 3634
SWIDTH 500 0
DWIDTH 7 0
BBX 7 14 0 -2
BITMAP 
00
00
00
00
00
78
cc
0c
0c
0c
0c
0c
00
00
ENDCHAR
STARTCHAR U+0E33
ENCODING 3635
SWIDTH 500 0
DWIDTH 7 0
BBX 7 14 0 -2
BITMAP 
00
00
00
c0
c0
38
6c
0c
0c
0c
0c
0c
00
00
ENDCHAR
STARTCHAR U+0E34
ENCODING 3636
SWIDTH 500 0
DWIDTH 7 0
BBX 7 14 0 -2
BITMAP 
00
fc
00
00
00
00
00
00
00
00
00
00
00
00
ENDCHAR
STARTCHAR U+0E35
ENCODING 3637
SWIDTH 500 0
DWIDTH 7 0
BBX 7 14 0 -2
BITMAP 
0c
fc
00
00
00
00
00
00
00
00
00
00
00
00
ENDCHAR
STARTCHAR U+0E36
ENCODING 3638
SWIDTH 500 0
DWIDTH 7 0
BBX 7 14 0 -2
BITMAP 
1c
fc
00
00
00
00
00
00
00
00
00
00
00
00
ENDCHAR
STARTCHAR U+0E37
ENCODING 3639
SWIDTH 500 0
DWIDTH 7 0
BBX 7 14 0 -2
BITMAP 
34
fc
00
00
00
00
00
00
00
00
00
00
00
00
ENDCHAR
STARTCHAR U+0E38
ENCODING 3640
SWIDTH 500 0
DWIDTH 7 0
BBX 7 14 0 -2
BITMAP 
00
00
00
00
00
00
00
00
00
00
00
00
1c
0c
ENDCHAR
STARTCHAR U+0E39
ENCODING 3641
SWIDTH 500 0
DWIDTH 7 0
BBX 7 14 0 -2
BITMAP 
00
00
00
00
00
00
00
00
00
00
00
00
3c
1c
ENDCHAR
STARTCHAR U+0E3A
ENCODING 3642
SWIDTH 500 0
DWIDTH 7 0
BBX 7 14 0 -2
BITMAP 
00
00
00
00
00
00
00
00
00
00
00
00
1c
1c
ENDCHAR
STARTCHAR U+0E3F
ENCODING 3647
SWIDTH 500 0
DWIDTH 7 0
BBX 7 14 0 -2
BITMAP 
00
00
00
00
38
fc
da
da
fc
da
da
fc
38
00
ENDCHAR
STARTCHAR U+0E40
ENCODING 3648
SWIDTH 500 0
DWIDTH 7 0
BBX 7 14 0 -2
BITMAP 
00
00
00
00
00
30
30
30
30
30
38
38
00
00
ENDCHAR
STARTCHAR U+0E41
ENCODING 3649
SWIDTH 500 0
DWIDTH 7 0
BBX 7 14 0 -2
BITMAP 
00
00
00
00
00
d8
d8
d8
d8
d8
ec
ec
00
00
ENDCHAR
STARTCHAR U+0E42
ENCODING 3650
SWIDTH 500 0
DWIDTH 7 0
BBX 7 14 0 -2
BITMAP 
00
00
7c
c0
f8
18
18
18
18
18
1c
1c
00
00
ENDCHAR
STARTCHAR U+0E43
ENCODING 3651
SWIDTH 500 0
DWIDTH 7 0
BBX 7 14 0 -2
BITMAP 
00
00
78
d8
d8
78
18
18
18
18
1c
1c
00
00
ENDCHAR
STARTCHAR U+0E44
ENCODING 3652
SWIDTH 500 0
DWIDTH 7 0
BBX 7 14 0 -2
BITMAP 
00
00
d8
68
18
18
18
18
18
18
1c
1c
00
00
ENDCHAR
STARTCHAR U+0E45
ENCODING 3653
SWIDTH 500 0
DWIDTH 7 0
BBX 7 14 0 -2
BITMAP 
00
00
00
00
00
78
cc
0c
0c
0c
0c
0c
0c
0c
ENDCHAR
STARTCHAR U+0E46
ENCODING 3654
SWIDTH 500 0
DWIDTH 7 0
BBX 7 14 0 -2
BITMAP 
00
00
00
00
00
f4
ec
0c
0c
0c
0c
0c
18
30
ENDCHAR
STARTCHAR U+0E47
ENCODING 3655
SWIDTH 500 0
DWIDTH 7 0
BBX 7 14 0 -2
BITMAP 
7e
d4
6c
00
00
00
00
00
00
00
00
00
00
00
ENDCHAR
STARTCHAR U+0E48
ENCODING 3656
SWIDTH 500 0
DWIDTH 7 0
BBX 7 14 0 -2
BITMAP 
0c
0c
0c
00
00
00
00
00
00
00
00
00
00
00
ENDCHAR
STARTCHAR U+0E49
ENCODING 3657
SWIDTH 500 0
DWIDTH 7 0
BBX 7 14 0 -2
BITMAP 
70
36
7c
00
00
00
00
00
00
00
00
00
00
00
ENDCHAR
STARTCHAR U+0E4A
ENCODING 3658
SWIDTH 500 0
DWIDTH 7 0
BBX 7 14 0 -2
BITMAP 
68
da
ec
00
00
00
00
00
00
00
00
00
00
00
ENDCHAR
STARTCHAR U+0E4B
ENCODING 3659
SWIDTH 500 0
DWIDTH 7 0
BBX 7 14 0 -2
BITMAP 
0c
1e
0c
00
00
00
00
00
00
00
00
00
00
00
ENDCHAR
STARTCHAR U+0E4C
ENCODING 3660
SWIDTH 500 0
DWIDTH 7 0
BBX 7 14 0 -2
BITMAP 
0e
18
1c
00
00
00
00
00
00
00
00
00
00
00
ENDCHAR
STARTCHAR U+0E4D
ENCODING 3661
SWIDTH 500 0
DWIDTH 7 0
BBX 7 14 0 -2
BITMAP 
00
1c
1c
00
00
00
00
00
00
00
00
00
00
00
ENDCHAR
STARTCHAR U+0E4E
ENCODING 3662
SWIDTH 500 0
DWIDTH 7 0
BBX 7 14 0 -2
BITMAP 
00
1e
3c
38
00
00
00
00
00
00
00
00
00
00
ENDCHAR
STARTCHAR U+0E4F
ENCODING 3663
SWIDTH 500 0
DWIDTH 7 0
BBX 7 14 0 -2
BITMAP 
00
00
00
00
00
00
7c
c6
da
da
c6
7c
00
00
ENDCHAR
STARTCHAR U+0E50
ENCODING 3664
SWIDTH 500 0
DWIDTH 7 0
BBX 7 14 0 -2
BITMAP 
00
00
00
00
00
00
7c
c6
c6
c6
c6
7c
00
00
ENDCHAR
STARTCHAR U+0E51
ENCODING 3665
SWIDTH 500 0
DWIDTH 7 0
BBX 7 14 0 -2
BITMAP 
00
00
00
00
00
00
7c
c6
da
7a
06
7c
00
00
ENDCHAR
STARTCHAR U+0E52
ENCODING 3666
SWIDTH 500 0
DWIDTH 7 0
BBX 7 14 0 -2
BITMAP 
00
00
00
00
c0
c0
da
d6
da
da
c6
7e
00
00
ENDCHAR
STARTCHAR U+0E53
ENCODING 3667
SWIDTH 500 0
DWIDTH 7 0
BBX 7 14 0 -2
BITMAP 
00
00
00
00
00
00
74
da
da
da
e6
e6
00
00
ENDCHAR
STARTCHAR U+0E54
ENCODING 3668
SWIDTH 500 0
DWIDTH 7 0
BBX 7 14 0 -2
BITMAP 
00
00
00
00
06
06
7c
c0
dc
dc
d8
7e
00
00
ENDCHAR
STARTCHAR U+0E55
ENCODING 3669
SWIDTH 500 0
DWIDTH 7 0
BBX 7 14 0 -2
BITMAP 
00
00
00
00
06
3a
7c
c0
dc
dc
d8
7e
00
00
ENDCHAR
STARTCHAR U+0E56
ENCODING 3670
SWIDTH 500 0
DWIDTH 7 0
BBX 7 14 0 -2
BITMAP 
00
00
00
00
00
c0
6c
36
06
76
76
7c
00
00
ENDCHAR
STARTCHAR U+0E57
ENCODING 3671
SWIDTH 500 0
DWIDTH 7 0
BBX 7 14 0 -2
BITMAP 
00
00
00
00
06
06
6a
da
da
da
ea
ec
00
00
ENDCHAR
STARTCHAR U+0E58
ENCODING 3672
SWIDTH 500 0
DWIDTH 7 0
BBX 7 14 0 -2
BITMAP 
00
00
00
00
00
0e
78
c0
c0
dc
d4
ec
00
00
ENDCHAR
STARTCHAR U+0E59
ENCODING 3673
SWIDTH 500 0
DWIDTH 7 0
BBX 7 14 0 -2
BITMAP 
00
00
00
00
06
06
3a
74
d0
d8
e8
ec
00
00
ENDCHAR
STARTCHAR U+0E5A
ENCODING 3674
SWIDTH 500 0
DWIDTH 7 0
BBX 7 14 0 -2
BITMAP 
00
00
00
00
ea
fa
1a
34
34
68
68
d6
00
00
ENDCHAR
STARTCHAR U+0E5B
ENCODING 3675
SWIDTH 500 0
DWIDTH 7 0
BBX 7 14 0 -2
BITMAP 
00
00
00
00
00
60
d0
d8
d6
d0
e0
e0
00
00
ENDCHAR
STARTCHAR U+0E81
ENCODING 3713
SWIDTH 500 0
DWIDTH 7 0
BBX 7 14 0 -2
BITMAP 
00
00
00
00
00
d8
6c
6c
6c
6c
6c
ec
00
00
ENDCHAR
STARTCHAR U+0E82
ENCODING 3714
SWIDTH 500 0
DWIDTH 7 0
BBX 7 14 0 -2
BITMAP 
00
00
00
00
00
78
ec
ec
38
60
d8
6c
00
00
ENDCHAR
STARTCHAR U+0E84
ENCODING 3716
SWIDTH 500 0
DWIDTH 7 0
BBX 7 14 0 -2
BITMAP 
00
00
00
00
00
78
cc
ec
ec
cc
ec
ec
00
00
ENDCHAR
STARTCHAR U+0E87
ENCODING 3719
SWIDTH 500 0
DWIDTH 7 0
BBX 7 14 0 -2
BITMAP 
00
00
00
00
00
78
6c
0c
0c
0c
ec
cc
cc
78
ENDCHAR
STARTCHAR U+0E88
ENCODING 3720
SWIDTH 500 0
DWIDTH 7 0
BBX 7 14 0 -2
BITMAP 
00
00
00
00
00
78
cc
0c
74
7c
0c
0c
00
00
ENDCHAR
STARTCHAR U+0E8A
ENCODING 3722
SWIDTH 500 0
DWIDTH 7 0
BBX 7 14 0 -2
BITMAP 
00
00
00
00
00
78
ec
ec
38
60
d8
6c
0c
0c
ENDCHAR
STARTCHAR U+0E8D
ENCODING 3725
SWIDTH 500 0
DWIDTH 7 0
BBX 7 14 0 -2
BITMAP 
00
00
00
00
00
ec
ec
cc
ec
ec
cc
78
00
00
ENDCHAR
STARTCHAR U+0E94
ENCODING 3732
SWIDTH 500 0
DWIDTH 7 0
BBX 7 14 0 -2
BITMAP 
00
00
00
00
00
78
cc
cc
cc
cc
f4
f4
00
00
ENDCHAR
STARTCHAR U+0E95
ENCODING 3733
SWIDTH 500 0
DWIDTH 7 0
BBX 7 14 0 -2
BITMAP 
00
00
00
00
00
68
d4
d4
cc
cc
f4
f4
00
00
ENDCHAR
STARTCHAR U+0E96
ENCODING 3734
SWIDTH 500 0
DWIDTH 7 0
BBX 7 14 0 -2
BITMAP 
00
00
00
00
00
d8
6c
6c
6c
6c
74
74
0c
0c
ENDCHAR
STARTCHAR U+0E97
ENCODING 3735
SWIDTH 500 0
DWIDTH 7 0
BBX 7 14 0 -2
BITMAP 
00
00
00
00
00
d8
d4
d4
d4
d4
d4
6c
00
00
ENDCHAR
STARTCHAR U+0E99
ENCODING 3737
SWIDTH 500 0
DWIDTH 7 0
BBX 7 14 0 -2
BITMAP 
00
00
00
00
00
ec
ec
6c
6c
6c
74
d8
00
00
ENDCHAR
STARTCHAR U+0E9A
ENCODING 3738
SWIDTH 500 0
DWIDTH 7 0
BBX 7 14 0 -2
BITMAP 
00
00
00
00
00
ec
ec
6c
6c
6c
6c
38
00
00
ENDCHAR
STARTCHAR U+0E9B
ENCODING 3739
SWIDTH 500 0
DWIDTH 7 0
BBX 7 14 0 -2
BITMAP 
00
00
00
0c
0c
ec
ec
6c
6c
6c
6c
38
00
00
ENDCHAR
STARTCHAR U+0E9C
ENCODING 3740
SWIDTH 500 0
DWIDTH 7 0
BBX 7 14 0 -2
BITMAP 
00
00
00
00
00
ec
ee
cc
d4
d4
d4
68
00
00
ENDCHAR
STARTCHAR U+0E9D
ENCODING 3741
SWIDTH 500 0
DWIDTH 7 0
BBX 7 14 0 -2
BITMAP 
00
00
00
0c
0c
ec
ec
cc
d4
d4
d4
68
00
00
ENDCHAR
STARTCHAR U+0E9E
ENCODING 3742
SWIDTH 500 0
DWIDTH 7 0
BBX 7 14 0 -2
BITMAP 
00
00
00
00
00
ec
ec
6c
d4
d4
d4
68
00
00
ENDCHAR
STARTCHAR U+0E9F
ENCODING 3743
SWIDTH 500 0
DWIDTH 7 0
BBX 7 14 0 -2
BITMAP 
00
00
00
0c
0c
ec
ec
6c
d4
d4
d4
68
00
00
ENDCHAR
STARTCHAR U+0EA1
ENCODING 3745
SWIDTH 500 0
DWIDTH 7 0
BBX 7 14 0 -2
BITMAP 
00
00
00
00
00
cc
6c
6c
6c
6c
f4
e8
00
00
ENDCHAR
STARTCHAR U+0EA2
ENCODING 3746
SWIDTH 500 0
DWIDTH 7 0
BBX 7 14 0 -2
BITMAP 
00
00
00
0c
0c
ec
ec
cc
ec
ec
cc
78
00
00
ENDCHAR
STARTCHAR U+0EA3
ENCODING 3747
SWIDTH 500 0
DWIDTH 7 0
BBX 7 14 0 -2
BITMAP 
00
00
00
00
00
78
cc
e0
38
ec
ec
78
00
00
ENDCHAR
STARTCHAR U+0EA5
ENCODING 3749
SWIDTH 500 0
DWIDTH 7 0
BBX 7 14 0 -2
BITMAP 
00
00
00
00
00
78
cc
0c
6c
d4
ec
ec
00
00
ENDCHAR
STARTCHAR U+0EA7
ENCODING 3751
SWIDTH 500 0
DWIDTH 7 0
BBX 7 14 0 -2
BITMAP 
00
00
00
00
00
78
cc
0c
0c
ec
ec
78
00
00
ENDCHAR
STARTCHAR U+0EAA
ENCODING 3754
SWIDTH 500 0
DWIDTH 7 0
BBX 7 14 0 -2
BITMAP 
00
00
00
00
0c
f8
dc
f4
6c
d4
ec
ec
00
00
ENDCHAR
STARTCHAR U+0EAB
ENCODING 3755
SWIDTH 500 0
DWIDTH 7 0
BBX 7 14 0 -2
BITMAP 
00
00
00
00
00
f8
d4
d4
d4
d4
d4
6c
00
00
ENDCHAR
STARTCHAR U+0EAD
ENCODING 3757
SWIDTH 500 0
DWIDTH 7 0
BBX 7 14 0 -2
BITMAP 
00
00
00
00
00
78
cc
cc
7c
ec
ec
78
00
00
ENDCHAR
STARTCHAR U+0EAE
ENCODING 3758
SWIDTH 500 0
DWIDTH 7 0
BBX 7 14 0 -2
BITMAP 
00
00
00
00
00
74
d8
e0
38
ec
ec
78
00
00
ENDCHAR
STARTCHAR U+0EAF
ENCODING 3759
SWIDTH 500 0
DWIDTH 7 0
BBX 7 14 0 -2
BITMAP 
00
00
00
00
00
ec
ec
d4
6c
18
38
70
60
00
ENDCHAR
STARTCHAR U+0EB0
ENCODING 3760
SWIDTH 500 0
DWIDTH 7 0
BBX 7 14 0 -2
BITMAP 
00
00
00
00
00
00
74
78
00
74
78
00
00
00
ENDCHAR
STARTCHAR U+0EB1
ENCODING 3761
SWIDTH 500 0
DWIDTH 7 0
BBX 7 14 0 -2
BITMAP 
ec
f8
00
00
00
00
00
00
00
00
00
00
00
00
ENDCHAR
STARTCHAR U+0EB2
ENCODING 3762
SWIDTH 500 0
DWIDTH 7 0
BBX 7 14 0 -2
BITMAP 
00
00
00
00
00
78
ec
ec
0c
0c
0c
0c
00
00
ENDCHAR
STARTCHAR U+0EB3
ENCODING 3763
SWIDTH 500 0
DWIDTH 7 0
BBX 7 14 0 -2
BITMAP 
00
00
00
c0
c0
3c
76
76
06
06
06
06
00
00
ENDCHAR
STARTCHAR U+0EB4
ENCODING 3764
SWIDTH 500 0
DWIDTH 7 0
BBX 7 14 0 -2
BITMAP 
f8
98
00
00
00
00
00
00
00
00
00
00
00
00
ENDCHAR
STARTCHAR U+0EB5
ENCODING 3765
SWIDTH 500 0
DWIDTH 7 0
BBX 7 14 0 -2
BITMAP 
f8
9c
00
00
00
00
00
00
00
00
00
00
00
00
ENDCHAR
STARTCHAR U+0EB6
ENCODING 3766
SWIDTH 500 0
DWIDTH 7 0
BBX 7 14 0 -2
BITMAP 
f8
a8
00
00
00
00
00
00
00
00
00
00
00
00
ENDCHAR
STARTCHAR U+0EB7
ENCODING 3767
SWIDTH 500 0
DWIDTH 7 0
BBX 7 14 0 -2
BITMAP 
f8
ac
00
00
00
00
00
00
00
00
00
00
00
00
ENDCHAR
STARTCHAR U+0EB8
ENCODING 3768
SWIDTH 500 0
DWIDTH 7 0
BBX 7 14 0 -2
BITMAP 
00
00
00
00
00
00
00
00
00
00
00
00
38
18
ENDCHAR
STARTCHAR U+0EB9
ENCODING 3769
SWIDTH 500 0
DWIDTH 7 0
BBX 7 14 0 -2
BITMAP 
00
00
00
00
00
00
00
00
00
00
00
00
78
38
ENDCHAR
STARTCHAR U+0EBB
ENCODING 3771
SWIDTH 500 0
DWIDTH 7 0
BBX 7 14 0 -2
BITMAP 
f8
ec
00
00
00
00
00
00
00
00
00
00
00
00
ENDCHAR
STARTCHAR U+0EBC
ENCODING 3772
SWIDTH 500 0
DWIDTH 7 0
BBX 7 14 0 -2
BITMAP 
00
00
00
00
00
00
00
00
00
00
00
00
ec
d8
ENDCHAR
STARTCHAR U+0EBD
ENCODING 3773
SWIDTH 500 0
DWIDTH 7 0
BBX 7 14 0 -2
BITMAP 
00
00
00
00
00
74
68
38
0c
0c
ec
cc
cc
78
ENDCHAR
STARTCHAR U+0EC0
ENCODING 3776
SWIDTH 500 0
DWIDTH 7 0
BBX 7 14 0 -2
BITMAP 
00
00
00
00
00
30
30
30
30
30
38
38
00
00
ENDCHAR
STARTCHAR U+0EC1
ENCODING 3777
SWIDTH 500 0
DWIDTH 7 0
BBX 7 14 0 -2
BITMAP 
00
00
00
00
00
d8
d8
d8
d8
d8
ec
ec
00
00
ENDCHAR
STARTCHAR U+0EC2
ENCODING 3778
SWIDTH 500 0
DWIDTH 7 0
BBX 7 14 0 -2
BITMAP 
00
00
e0
b0
d8
60
30
30
30
30
38
38
00
00
ENDCHAR
STARTCHAR U+0EC3
ENCODING 3779
SWIDTH 500 0
DWIDTH 7 0
BBX 7 14 0 -2
BITMAP 
00
00
70
d8
d8
78
18
18
18
18
1c
1c
00
00
ENDCHAR
STARTCHAR U+0EC4
ENCODING 3780
SWIDTH 500 0
DWIDTH 7 0
BBX 7 14 0 -2
BITMAP 
00
00
d8
d8
68
18
18
18
18
18
1c
1c
00
00
ENDCHAR
STARTCHAR U+0EC6
ENCODING 3782
SWIDTH 500 0
DWIDTH 7 0
BBX 7 14 0 -2
BITMAP 
00
00
00
00
00
ec
d4
f4
0c
0c
0c
0c
cc
78
ENDCHAR
STARTCHAR U+0EC7
ENCODING 3783
SWIDTH 500 0
DWIDTH 7 0
BBX 7 14 0 -2
BITMAP 
00
00
00
00
00
00
00
00
00
00
00
00
00
00
ENDCHAR
STARTCHAR U+0EC8
ENCODING 3784
SWIDTH 500 0
DWIDTH 7 0
BBX 7 14 0 -2
BITMAP 
18
18
18
00
00
00
00
00
00
00
00
00
00
00
ENDCHAR
STARTCHAR U+0EC9
ENCODING 3785
SWIDTH 500 0
DWIDTH 7 0
BBX 7 14 0 -2
BITMAP 
70
36
7c
00
00
00
00
00
00
00
00
00
00
00
ENDCHAR
STARTCHAR U+0ECA
ENCODING 3786
SWIDTH 500 0
DWIDTH 7 0
BBX 7 14 0 -2
BITMAP 
68
da
ec
00
00
00
00
00
00
00
00
00
00
00
ENDCHAR
STARTCHAR U+0ECB
ENCODING 3787
SWIDTH 500 0
DWIDTH 7 0
BBX 7 14 0 -2
BITMAP 
18
3c
18
00
00
00
00
00
00
00
00
00
00
00
ENDCHAR
STARTCHAR U+0ECC
ENCODING 3788
SWIDTH 500 0
DWIDTH 7 0
BBX 7 14 0 -2
BITMAP 
1c
78
70
00
00
00
00
00
00
00
00
00
00
00
ENDCHAR
STARTCHAR U+0ECD
ENCODING 3789
SWIDTH 500 0
DWIDTH 7 0
BBX 7 14 0 -2
BITMAP 
00
38
38
00
00
00
00
00
00
00
00
00
00
00
ENDCHAR
STARTCHAR U+0ED0
ENCODING 3792
SWIDTH 500 0
DWIDTH 7 0
BBX 7 14 0 -2
BITMAP 
00
00
00
00
00
00
78
cc
cc
cc
cc
78
00
00
ENDCHAR
STARTCHAR U+0ED1
ENCODING 3793
SWIDTH 500 0
DWIDTH 7 0
BBX 7 14 0 -2
BITMAP 
00
00
00
00
00
00
78
cc
f4
74
0c
78
00
00
ENDCHAR
STARTCHAR U+0ED2
ENCODING 3794
SWIDTH 500 0
DWIDTH 7 0
BBX 7 14 0 -2
BITMAP 
00
00
00
00
00
3c
60
c0
d8
dc
dc
78
00
00
ENDCHAR
STARTCHAR U+0ED3
ENCODING 3795
SWIDTH 500 0
DWIDTH 7 0
BBX 7 14 0 -2
BITMAP 
00
00
00
38
34
18
cc
6c
6c
6c
f4
e8
00
00
ENDCHAR
STARTCHAR U+0ED4
ENCODING 3796
SWIDTH 500 0
DWIDTH 7 0
BBX 7 14 0 -2
BITMAP 
00
00
00
00
00
0c
78
c0
d8
d8
d8
7c
00
00
ENDCHAR
STARTCHAR U+0ED5
ENCODING 3797
SWIDTH 500 0
DWIDTH 7 0
BBX 7 14 0 -2
BITMAP 
00
00
00
00
00
34
78
c0
d8
d8
d8
7c
00
00
ENDCHAR
STARTCHAR U+0ED6
ENCODING 3798
SWIDTH 500 0
DWIDTH 7 0
BBX 7 14 0 -2
BITMAP 
00
00
00
38
34
18
ec
ec
cc
d4
d4
68
00
00
ENDCHAR
STARTCHAR U+0ED7
ENCODING 3799
SWIDTH 500 0
DWIDTH 7 0
BBX 7 14 0 -2
BITMAP 
00
00
00
00
00
d8
6c
6c
6c
6c
ec
ec
0c
0c
ENDCHAR
STARTCHAR U+0ED8
ENCODING 3800
SWIDTH 500 0
DWIDTH 7 0
BBX 7 14 0 -2
BITMAP 
00
00
00
00
00
e8
b4
cc
cc
1c
34
68
dc
ec
ENDCHAR
STARTCHAR U+0ED9
ENCODING 3801
SWIDTH 500 0
DWIDTH 7 0
BBX 7 14 0 -2
BITMAP 
00
00
00
00
00
ec
b4
b4
b4
b4
d4
d8
00
00
ENDCHAR
STARTCHAR U+0EDB
ENCODING 3803
SWIDTH 500 0
DWIDTH 7 0
BBX 7 14 0 -2
BITMAP 
00
00
00
00
00
ba
d6
d6
d6
d6
de
6e
00
00
ENDCHAR
STARTCHAR U+0EDC
ENCODING 3804
SWIDTH 500 0
DWIDTH 7 0
BBX 7 14 0 -2
BITMAP 
00
00
00
00
00
ba
d6
d6
d6
d6
de
6e
00
00
ENDCHAR
STARTCHAR U+10D0
ENCODING 4304
SWIDTH 500 0
DWIDTH 7 0
BBX 7 14 0 -2
BITMAP 
00
00
00
00
00
00
00
60
38
0c
cc
78
00
00
ENDCHAR
STARTCHAR U+10D1
ENCODING 4305
SWIDTH 500 0
DWIDTH 7 0
BBX 7 14 0 -2
BITMAP 
00
00
00
60
70
30
30
78
cc
cc
cc
78
00
00
ENDCHAR
STARTCHAR U+10D2
ENCODING 4306
SWIDTH 500 0
DWIDTH 7 0
BBX 7 14 0 -2
BITMAP 
00
00
00
00
00
60
d0
d0
30
78
cc
cc
cc
78
ENDCHAR
STARTCHAR U+10D3
ENCODING 4307
SWIDTH 500 0
DWIDTH 7 0
BBX 7 14 0 -2
BITMAP 
00
00
00
00
00
00
00
7c
d6
d6
dc
c0
78
0c
ENDCHAR
STARTCHAR U+10D4
ENCODING 4308
SWIDTH 500 0
DWIDTH 7 0
BBX 7 14 0 -2
BITMAP 
00
00
00
00
00
78
cc
cc
0c
0c
0c
cc
cc
78
ENDCHAR
STARTCHAR U+10D5
ENCODING 4309
SWIDTH 500 0
DWIDTH 7 0
BBX 7 14 0 -2
BITMAP 
00
00
00
00
00
78
cc
cc
38
0c
0c
cc
cc
78
ENDCHAR
STARTCHAR U+10D6
ENCODING 4310
SWIDTH 500 0
DWIDTH 7 0
BBX 7 14 0 -2
BITMAP 
00
00
00
60
d0
d4
78
3c
36
36
36
1c
00
00
ENDCHAR
STARTCHAR U+10D7
ENCODING 4311
SWIDTH 500 0
DWIDTH 7 0
BBX 7 14 0 -2
BITMAP 
00
00
00
00
00
00
00
74
da
da
da
76
00
00
ENDCHAR
STARTCHAR U+10D8
ENCODING 4312
SWIDTH 500 0
DWIDTH 7 0
BBX 7 14 0 -2
BITMAP 
00
00
00
00
00
00
00
78
cc
cc
cc
68
00
00
ENDCHAR
STARTCHAR U+10D9
ENCODING 4313
SWIDTH 500 0
DWIDTH 7 0
BBX 7 14 0 -2
BITMAP 
00
00
00
00
00
18
0c
0c
38
0c
0c
cc
cc
78
ENDCHAR
STARTCHAR U+10DA
ENCODING 4314
SWIDTH 500 0
DWIDTH 7 0
BBX 7 14 0 -2
BITMAP 
00
00
00
00
00
00
00
6a
d6
d6
c6
c0
7c
06
ENDCHAR
STARTCHAR U+10DB
ENCODING 4315
SWIDTH 500 0
DWIDTH 7 0
BBX 7 14 0 -2
BITMAP 
00
00
00
78
cc
cc
0c
7c
cc
cc
cc
78
00
00
ENDCHAR
STARTCHAR U+10DC
ENCODING 4316
SWIDTH 500 0
DWIDTH 7 0
BBX 7 14 0 -2
BITMAP 
00
00
00
7c
c0
c0
c0
f8
cc
cc
cc
78
00
00
ENDCHAR
STARTCHAR U+10DD
ENCODING 4317
SWIDTH 500 0
DWIDTH 7 0
BBX 7 14 0 -2
BITMAP 
00
00
00
00
00
00
00
68
d4
d4
d4
cc
00
00
ENDCHAR
STARTCHAR U+10DE
ENCODING 4318
SWIDTH 500 0
DWIDTH 7 0
BBX 7 14 0 -2
BITMAP 
00
00
00
30
18
0c
0c
38
0c
cc
cc
78
00
00
ENDCHAR
STARTCHAR U+10DF
ENCODING 4319
SWIDTH 500 0
DWIDTH 7 0
BBX 7 14 0 -2
BITMAP 
00
00
00
00
00
00
0c
1c
d4
d4
6c
0c
6c
38
ENDCHAR
STARTCHAR U+10E0
ENCODING 4320
SWIDTH 500 0
DWIDTH 7 0
BBX 7 14 0 -2
BITMAP 
00
00
00
00
0c
78
c0
e8
d4
d4
d4
cc
00
00
ENDCHAR
STARTCHAR U+10E1
ENCODING 4321
SWIDTH 500 0
DWIDTH 7 0
BBX 7 14 0 -2
BITMAP 
00
00
00
c0
c0
c0
d0
e0
d8
cc
cc
78
00
00
ENDCHAR
STARTCHAR U+10E2
ENCODING 4322
SWIDTH 500 0
DWIDTH 7 0
BBX 7 14 0 -2
BITMAP 
00
00
00
30
68
68
78
ec
ec
d4
cc
cc
cc
78
ENDCHAR
STARTCHAR U+10E3
ENCODING 4323
SWIDTH 500 0
DWIDTH 7 0
BBX 7 14 0 -2
BITMAP 
00
00
00
00
00
ec
36
36
06
06
06
36
36
1c
ENDCHAR
STARTCHAR U+10E4
ENCODING 4324
SWIDTH 500 0
DWIDTH 7 0
BBX 7 14 0 -2
BITMAP 
00
00
00
00
00
00
00
74
da
da
74
06
36
1c
ENDCHAR
STARTCHAR U+10E5
ENCODING 4325
SWIDTH 500 0
DWIDTH 7 0
BBX 7 14 0 -2
BITMAP 
00
00
00
0c
1c
0c
0c
3c
6c
0c
0c
0c
cc
78
ENDCHAR
STARTCHAR U+10E6
ENCODING 4326
SWIDTH 500 0
DWIDTH 7 0
BBX 7 14 0 -2
BITMAP 
00
00
00
00
00
00
00
68
d4
d4
cc
c0
78
0c
ENDCHAR
STARTCHAR U+10E7
ENCODING 4327
SWIDTH 500 0
DWIDTH 7 0
BBX 7 14 0 -2
BITMAP 
00
00
00
00
00
00
cc
cc
cc
7c
0c
cc
cc
78
ENDCHAR
STARTCHAR U+10E8
ENCODING 4328
SWIDTH 500 0
DWIDTH 7 0
BBX 7 14 0 -2
BITMAP 
00
00
00
68
d4
d4
d4
cc
3c
6c
6c
38
00
00
ENDCHAR
STARTCHAR U+10E9
ENCODING 4329
SWIDTH 500 0
DWIDTH 7 0
BBX 7 14 0 -2
BITMAP 
00
00
00
70
d8
d8
f0
c0
f8
cc
cc
cc
00
00
ENDCHAR
STARTCHAR U+10EA
ENCODING 4330
SWIDTH 500 0
DWIDTH 7 0
BBX 7 14 0 -2
BITMAP 
00
00
00
00
00
d8
cc
cc
d8
cc
cc
cc
cc
78
ENDCHAR
STARTCHAR U+10EB
ENCODING 4331
SWIDTH 500 0
DWIDTH 7 0
BBX 7 14 0 -2
BITMAP 
00
00
00
18
0c
0c
0c
7c
cc
cc
cc
78
00
00
ENDCHAR
STARTCHAR U+10EC
ENCODING 4332
SWIDTH 500 0
DWIDTH 7 0
BBX 7 14 0 -2
BITMAP 
00
00
00
68
d4
d4
c0
c0
fc
cc
68
68
30
30
ENDCHAR
STARTCHAR U+10ED
ENCODING 4333
SWIDTH 500 0
DWIDTH 7 0
BBX 7 14 0 -2
BITMAP 
00
00
00
18
38
68
18
3a
6c
3a
18
18
d8
70
ENDCHAR
STARTCHAR U+10EE
ENCODING 4334
SWIDTH 500 0
DWIDTH 7 0
BBX 7 14 0 -2
BITMAP 
00
00
00
c0
c0
d8
d0
f8
cc
cc
cc
78
00
00
ENDCHAR
STARTCHAR U+10EF
ENCODING 4335
SWIDTH 500 0
DWIDTH 7 0
BBX 7 14 0 -2
BITMAP 
00
00
00
00
00
00
00
66
34
18
34
66
30
e0
ENDCHAR
STARTCHAR U+10F0
ENCODING 4336
SWIDTH 500 0
DWIDTH 7 0
BBX 7 14 0 -2
BITMAP 
00
00
60
38
0c
38
0c
0c
38
cc
cc
78
00
00
ENDCHAR
STARTCHAR U+10F1
ENCODING 4337
SWIDTH 500 0
DWIDTH 7 0
BBX 7 14 0 -2
BITMAP 
00
00
d0
d8
cc
d8
cc
cc
d8
cc
cc
78
00
00
ENDCHAR
STARTCHAR U+10F2
ENCODING 4338
SWIDTH 500 0
DWIDTH 7 0
BBX 7 14 0 -2
BITMAP 
00
00
00
00
00
00
78
cc
cc
cc
68
fc
00
00
ENDCHAR
STARTCHAR U+10F3
ENCODING 4339
SWIDTH 500 0
DWIDTH 7 0
BBX 7 14 0 -2
BITMAP 
00
00
00
00
00
00
7c
0c
18
38
0c
0c
cc
78
ENDCHAR
STARTCHAR U+10F4
ENCODING 4340
SWIDTH 500 0
DWIDTH 7 0
BBX 7 14 0 -2
BITMAP 
00
00
00
30
60
38
0c
0c
38
0c
0c
cc
cc
78
ENDCHAR
STARTCHAR U+10F5
ENCODING 4341
SWIDTH 500 0
DWIDTH 7 0
BBX 7 14 0 -2
BITMAP 
00
00
00
70
d8
d8
7c
18
7c
d8
d8
70
00
00
ENDCHAR
STARTCHAR U+10F6
ENCODING 4342
SWIDTH 500 0
DWIDTH 7 0
BBX 7 14 0 -2
BITMAP 
00
00
00
00
60
30
30
78
d4
d4
78
30
30
18
ENDCHAR
STARTCHAR U+10FB
ENCODING 4347
SWIDTH 500 0
DWIDTH 7 0
BBX 7 14 0 -2
BITMAP 
00
00
00
00
00
60
f0
6c
1e
6c
f0
60
00
00
ENDCHAR
STARTCHAR U+1161
ENCODING 4449
SWIDTH 500 0
DWIDTH 7 0
BBX 7 14 0 -2
BITMAP 
00
0c
0c
0c
0c
0e
0c
0c
00
00
00
00
00
00
ENDCHAR
STARTCHAR U+1162
ENCODING 4450
SWIDTH 500 0
DWIDTH 7 0
BBX 7 14 0 -2
BITMAP 
00
1a
1a
1a
1a
1e
1a
1a
00
00
00
00
00
00
ENDCHAR
STARTCHAR U+1163
ENCODING 4451
SWIDTH 500 0
DWIDTH 7 0
BBX 7 14 0 -2
BITMAP 
00
0c
0c
0e
0c
0e
0c
0c
00
00
00
00
00
00
ENDCHAR
STARTCHAR U+1164
ENCODING 4452
SWIDTH 500 0
DWIDTH 7 0
BBX 7 14 0 -2
BITMAP 
00
1a
1a
1e
1a
1a
1e
1a
00
00
00
00
00
00
ENDCHAR
STARTCHAR U+1165
ENCODING 4453
SWIDTH 500 0
DWIDTH 7 0
BBX 7 14 0 -2
BITMAP 
00
0c
0c
0c
0c
1c
0c
0c
00
00
00
00
00
00
ENDCHAR
STARTCHAR U+1166
ENCODING 4454
SWIDTH 500 0
DWIDTH 7 0
BBX 7 14 0 -2
BITMAP 
00
0e
0e
0e
0e
3e
0e
0e
00
00
00
00
00
00
ENDCHAR
STARTCHAR U+1167
ENCODING 4455
SWIDTH 500 0
DWIDTH 7 0
BBX 7 14 0 -2
BITMAP 
00
0c
0c
0c
1c
0c
1c
0c
00
00
00
00
00
00
ENDCHAR
STARTCHAR U+1168
ENCODING 4456
SWIDTH 500 0
DWIDTH 7 0
BBX 7 14 0 -2
BITMAP 
00
0e
0e
0e
1e
0e
1e
0e
00
00
00
00
00
00
ENDCHAR
STARTCHAR U+1169
ENCODING 4457
SWIDTH 500 0
DWIDTH 7 0
BBX 7 14 0 -2
BITMAP 
00
00
00
00
00
30
30
fe
00
00
00
00
00
00
ENDCHAR
STARTCHAR U+116A
ENCODING 4458
SWIDTH 500 0
DWIDTH 7 0
BBX 7 14 0 -2
BITMAP 
00
0c
0c
0c
0c
6c
6e
fc
00
00
00
00
00
00
ENDCHAR
STARTCHAR U+116B
ENCODING 4459
SWIDTH 500 0
DWIDTH 7 0
BBX 7 14 0 -2
BITMAP 
00
0e
0e
0e
0e
6e
6e
fe
00
00
00
00
00
00
ENDCHAR
STARTCHAR U+116C
ENCODING 4460
SWIDTH 500 0
DWIDTH 7 0
BBX 7 14 0 -2
BITMAP 
00
0c
0c
0c
0c
6c
6c
fc
0c
00
00
00
00
00
ENDCHAR
STARTCHAR U+116D
ENCODING 4461
SWIDTH 500 0
DWIDTH 7 0
BBX 7 14 0 -2
BITMAP 
00
00
00
00
00
68
68
fe
00
00
00
00
00
00
ENDCHAR
STARTCHAR U+116E
ENCODING 4462
SWIDTH 500 0
DWIDTH 7 0
BBX 7 14 0 -2
BITMAP 
00
00
00
00
00
00
fe
30
30
00
00
00
00
00
ENDCHAR
STARTCHAR U+116F
ENCODING 4463
SWIDTH 500 0
DWIDTH 7 0
BBX 7 14 0 -2
BITMAP 
00
0c
0c
0c
0c
0c
fc
6c
6c
00
00
00
00
00
ENDCHAR
STARTCHAR U+1170
ENCODING 4464
SWIDTH 500 0
DWIDTH 7 0
BBX 7 14 0 -2
BITMAP 
00
0e
0e
0e
0e
0e
fe
6e
6e
00
00
00
00
00
ENDCHAR
STARTCHAR U+1171
ENCODING 4465
SWIDTH 500 0
DWIDTH 7 0
BBX 7 14 0 -2
BITMAP 
00
0c
0c
0c
0c
0c
fc
6c
6c
00
00
00
00
00
ENDCHAR
STARTCHAR U+1172
ENCODING 4466
SWIDTH 500 0
DWIDTH 7 0
BBX 7 14 0 -2
BITMAP 
00
00
00
00
00
00
fe
68
68
00
00
00
00
00
ENDCHAR
STARTCHAR U+1173
ENCODING 4467
SWIDTH 500 0
DWIDTH 7 0
BBX 7 14 0 -2
BITMAP 
00
00
00
00
00
00
00
fe
00
00
00
00
00
00
ENDCHAR
STARTCHAR U+1174
ENCODING 4468
SWIDTH 500 0
DWIDTH 7 0
BBX 7 14 0 -2
BITMAP 
00
0c
0c
0c
0c
0c
0c
fc
0c
00
00
00
00
00
ENDCHAR
STARTCHAR U+1175
ENCODING 4469
SWIDTH 500 0
DWIDTH 7 0
BBX 7 14 0 -2
BITMAP 
00
0c
0c
0c
0c
0c
0c
0c
00
00
00
00
00
00
ENDCHAR
STARTCHAR U+11A8
ENCODING 4520
SWIDTH 500 0
DWIDTH 7 0
BBX 7 14 0 -2
BITMAP 
00
00
00
00
00
00
00
00
00
fc
0c
0c
0c
00
ENDCHAR
STARTCHAR U+11A9
ENCODING 4521
SWIDTH 500 0
DWIDTH 7 0
BBX 7 14 0 -2
BITMAP 
00
00
00
00
00
00
00
00
00
fe
36
36
36
00
ENDCHAR
STARTCHAR U+11AA
ENCODING 4522
SWIDTH 500 0
DWIDTH 7 0
BBX 7 14 0 -2
BITMAP 
00
00
00
00
00
00
00
00
00
f4
34
3c
3a
00
ENDCHAR
STARTCHAR U+11AB
ENCODING 4523
SWIDTH 500 0
DWIDTH 7 0
BBX 7 14 0 -2
BITMAP 
00
00
00
00
00
00
00
00
00
60
60
60
7c
00
ENDCHAR
STARTCHAR U+11AC
ENCODING 4524
SWIDTH 500 0
DWIDTH 7 0
BBX 7 14 0 -2
BITMAP 
00
00
00
00
00
00
00
00
00
de
cc
dc
fa
00
ENDCHAR
STARTCHAR U+11AD
ENCODING 4525
SWIDTH 500 0
DWIDTH 7 0
BBX 7 14 0 -2
BITMAP 
00
00
00
00
00
00
00
00
00
dc
de
dc
fa
1c
ENDCHAR
STARTCHAR U+11AE
ENCODING 4526
SWIDTH 500 0
DWIDTH 7 0
BBX 7 14 0 -2
BITMAP 
00
00
00
00
00
00
00
00
00
7c
60
60
60
7c
ENDCHAR
STARTCHAR U+11AF
ENCODING 4527
SWIDTH 500 0
DWIDTH 7 0
BBX 7 14 0 -2
BITMAP 
00
00
00
00
00
00
00
00
00
fc
0c
fc
c0
fc
ENDCHAR
STARTCHAR U+11B0
ENCODING 4528
SWIDTH 500 0
DWIDTH 7 0
BBX 7 14 0 -2
BITMAP 
00
00
00
00
00
00
00
00
00
fe
36
f6
c6
f6
ENDCHAR
STARTCHAR U+11B1
ENCODING 4529
SWIDTH 500 0
DWIDTH 7 0
BBX 7 14 0 -2
BITMAP 
00
00
00
00
00
00
00
00
00
fe
3a
fa
da
fe
ENDCHAR
STARTCHAR U+11B2
ENCODING 4530
SWIDTH 500 0
DWIDTH 7 0
BBX 7 14 0 -2
BITMAP 
00
00
00
00
00
00
00
00
00
fa
3a
fe
da
fe
ENDCHAR
STARTCHAR U+11B3
ENCODING 4531
SWIDTH 500 0
DWIDTH 7 0
BBX 7 14 0 -2
BITMAP 
00
00
00
00
00
00
00
00
00
f4
34
f4
dc
fa
ENDCHAR
STARTCHAR U+11B4
ENCODING 4532
SWIDTH 500 0
DWIDTH 7 0
BBX 7 14 0 -2
BITMAP 
00
00
00
00
00
00
00
00
00
fe
36
fe
d8
fe
ENDCHAR
STARTCHAR U+11B5
ENCODING 4533
SWIDTH 500 0
DWIDTH 7 0
BBX 7 14 0 -2
BITMAP 
00
00
00
00
00
00
00
00
00
fe
34
f4
dc
fa
ENDCHAR
STARTCHAR U+11B6
ENCODING 4534
SWIDTH 500 0
DWIDTH 7 0
BBX 7 14 0 -2
BITMAP 
00
00
00
00
00
00
00
00
00
fc
3e
fc
da
fc
ENDCHAR
STARTCHAR U+11B7
ENCODING 4535
SWIDTH 500 0
DWIDTH 7 0
BBX 7 14 0 -2
BITMAP 
00
00
00
00
00
00
00
00
00
7c
6c
6c
6c
7c
ENDCHAR
STARTCHAR U+11B8
ENCODING 4536
SWIDTH 500 0
DWIDTH 7 0
BBX 7 14 0 -2
BITMAP 
00
00
00
00
00
00
00
00
00
6c
6c
7c
6c
7c
ENDCHAR
STARTCHAR U+11B9
ENCODING 4537
SWIDTH 500 0
DWIDTH 7 0
BBX 7 14 0 -2
BITMAP 
00
00
00
00
00
00
00
00
00
d4
d4
f4
dc
fa
ENDCHAR
STARTCHAR U+11BA
ENCODING 4538
SWIDTH 500 0
DWIDTH 7 0
BBX 7 14 0 -2
BITMAP 
00
00
00
00
00
00
00
00
00
30
30
30
38
6c
ENDCHAR
STARTCHAR U+11BB
ENCODING 4539
SWIDTH 500 0
DWIDTH 7 0
BBX 7 14 0 -2
BITMAP 
00
00
00
00
00
00
00
00
00
6c
6c
6c
ec
da
ENDCHAR
STARTCHAR U+11BC
ENCODING 4540
SWIDTH 500 0
DWIDTH 7 0
BBX 7 14 0 -2
BITMAP 
00
00
00
00
00
00
00
00
00
78
6c
6c
6c
78
ENDCHAR
STARTCHAR U+11BD
ENCODING 4541
SWIDTH 500 0
DWIDTH 7 0
BBX 7 14 0 -2
BITMAP 
00
00
00
00
00
00
00
00
00
00
fc
30
38
ec
ENDCHAR
STARTCHAR U+11BE
ENCODING 4542
SWIDTH 500 0
DWIDTH 7 0
BBX 7 14 0 -2
BITMAP 
00
00
00
00
00
00
00
00
00
38
00
fc
38
ec
ENDCHAR
STARTCHAR U+11BF
ENCODING 4543
SWIDTH 500 0
DWIDTH 7 0
BBX 7 14 0 -2
BITMAP 
00
00
00
00
00
00
00
00
00
7c
0c
7c
0c
0c
ENDCHAR
STARTCHAR U+11C0
ENCODING 4544
SWIDTH 500 0
DWIDTH 7 0
BBX 7 14 0 -2
BITMAP 
00
00
00
00
00
00
00
00
00
7c
60
7c
60
7c
ENDCHAR
STARTCHAR U+11C1
ENCODING 4545
SWIDTH 500 0
DWIDTH 7 0
BBX 7 14 0 -2
BITMAP 
00
00
00
00
00
00
00
00
00
fc
68
68
fc
00
ENDCHAR
STARTCHAR U+11C2
ENCODING 4546
SWIDTH 500 0
DWIDTH 7 0
BBX 7 14 0 -2
BITMAP 
00
00
00
00
00
00
00
00
00
30
fc
78
6c
78
ENDCHAR
STARTCHAR U+16A0
ENCODING 5792
SWIDTH 500 0
DWIDTH 7 0
BBX 7 14 0 -2
BITMAP 
00
00
d8
d0
e0
d8
d0
e0
c0
c0
c0
c0
00
00
ENDCHAR
STARTCHAR U+16A2
ENCODING 5794
SWIDTH 500 0
DWIDTH 7 0
BBX 7 14 0 -2
BITMAP 
00
00
e0
d0
d8
d8
cc
cc
cc
cc
cc
cc
00
00
ENDCHAR
STARTCHAR U+16A3
ENCODING 5795
SWIDTH 500 0
DWIDTH 7 0
BBX 7 14 0 -2
BITMAP 
00
00
30
68
cc
cc
cc
d4
d4
d4
d4
d4
00
00
ENDCHAR
STARTCHAR U+16A6
ENCODING 5798
SWIDTH 500 0
DWIDTH 7 0
BBX 7 14 0 -2
BITMAP 
00
00
c0
c0
e0
d0
d8
d8
d0
e0
c0
c0
00
00
ENDCHAR
STARTCHAR U+16A9
ENCODING 5801
SWIDTH 500 0
DWIDTH 7 0
BBX 7 14 0 -2
BITMAP 
00
00
cc
e8
d0
cc
e8
d0
c0
c0
c0
c0
00
00
ENDCHAR
STARTCHAR U+16AA
ENCODING 5802
SWIDTH 500 0
DWIDTH 7 0
BBX 7 14 0 -2
BITMAP 
00
00
cc
e8
d0
c0
e0
d0
d8
c0
c0
c0
00
00
ENDCHAR
STARTCHAR U+16AB
ENCODING 5803
SWIDTH 500 0
DWIDTH 7 0
BBX 7 14 0 -2
BITMAP 
00
00
c0
e0
d0
d8
e0
d0
d8
c0
c0
c0
00
00
ENDCHAR
STARTCHAR U+16B1
ENCODING 5809
SWIDTH 500 0
DWIDTH 7 0
BBX 7 14 0 -2
BITMAP 
00
00
e0
d0
d8
d0
e0
d0
d8
c0
c0
c0
00
00
ENDCHAR
STARTCHAR U+16B3
ENCODING 5811
SWIDTH 500 0
DWIDTH 7 0
BBX 7 14 0 -2
BITMAP 
00
00
c0
c0
e0
d0
d8
d8
cc
cc
cc
cc
00
00
ENDCHAR
STARTCHAR U+16B7
ENCODING 5815
SWIDTH 500 0
DWIDTH 7 0
BBX 7 14 0 -2
BITMAP 
00
00
cc
cc
68
68
30
30
68
68
cc
cc
00
00
ENDCHAR
STARTCHAR U+16B8
ENCODING 5816
SWIDTH 500 0
DWIDTH 7 0
BBX 7 14 0 -2
BITMAP 
00
00
cc
cc
78
68
d4
d4
68
78
cc
cc
00
00
ENDCHAR
STARTCHAR U+16B9
ENCODING 5817
SWIDTH 500 0
DWIDTH 7 0
BBX 7 14 0 -2
BITMAP 
00
00
e0
d0
d8
d0
e0
c0
c0
c0
c0
c0
00
00
ENDCHAR
STARTCHAR U+16BB
ENCODING 5819
SWIDTH 500 0
DWIDTH 7 0
BBX 7 14 0 -2
BITMAP 
00
00
cc
cc
cc
ec
d4
dc
ec
d4
dc
cc
00
00
ENDCHAR
STARTCHAR U+16BE
ENCODING 5822
SWIDTH 500 0
DWIDTH 7 0
BBX 7 14 0 -2
BITMAP 
00
00
30
30
d0
70
30
38
34
30
30
30
00
00
ENDCHAR
STARTCHAR U+16C1
ENCODING 5825
SWIDTH 500 0
DWIDTH 7 0
BBX 7 14 0 -2
BITMAP 
00
00
30
30
30
30
30
30
30
30
30
30
00
00
ENDCHAR
STARTCHAR U+16C4
ENCODING 5828
SWIDTH 500 0
DWIDTH 7 0
BBX 7 14 0 -2
BITMAP 
00
00
30
30
78
d4
d4
d4
78
30
30
30
00
00
ENDCHAR
STARTCHAR U+16C7
ENCODING 5831
SWIDTH 500 0
DWIDTH 7 0
BBX 7 14 0 -2
BITMAP 
00
00
30
38
34
30
30
30
30
d0
70
30
00
00
ENDCHAR
STARTCHAR U+16C8
ENCODING 5832
SWIDTH 500 0
DWIDTH 7 0
BBX 7 14 0 -2
BITMAP 
00
00
cc
e8
d0
c0
c0
c0
c0
d0
e8
cc
00
00
ENDCHAR
STARTCHAR U+16C9
ENCODING 5833
SWIDTH 500 0
DWIDTH 7 0
BBX 7 14 0 -2
BITMAP 
00
00
d4
d4
d4
d4
78
30
30
30
30
30
00
00
ENDCHAR
STARTCHAR U+16CB
ENCODING 5835
SWIDTH 500 0
DWIDTH 7 0
BBX 7 14 0 -2
BITMAP 
00
00
c0
c0
cc
dc
d4
ec
cc
0c
0c
0c
00
00
ENDCHAR
STARTCHAR U+16CF
ENCODING 5839
SWIDTH 500 0
DWIDTH 7 0
BBX 7 14 0 -2
BITMAP 
00
00
30
78
d4
30
30
30
30
30
30
30
00
00
ENDCHAR
STARTCHAR U+16D2
ENCODING 5842
SWIDTH 500 0
DWIDTH 7 0
BBX 7 14 0 -2
BITMAP 
00
00
e0
d0
d8
d0
e0
e0
d0
d8
d0
e0
00
00
ENDCHAR
STARTCHAR U+16D6
ENCODING 5846
SWIDTH 500 0
DWIDTH 7 0
BBX 7 14 0 -2
BITMAP 
00
00
cc
ec
d4
cc
cc
cc
cc
cc
cc
cc
00
00
ENDCHAR
STARTCHAR U+16D7
ENCODING 5847
SWIDTH 500 0
DWIDTH 7 0
BBX 7 14 0 -2
BITMAP 
00
00
cc
ec
d4
ec
cc
cc
cc
cc
cc
cc
00
00
ENDCHAR
STARTCHAR U+16DA
ENCODING 5850
SWIDTH 500 0
DWIDTH 7 0
BBX 7 14 0 -2
BITMAP 
00
00
c0
e0
d0
d8
c0
c0
c0
c0
c0
c0
00
00
ENDCHAR
STARTCHAR U+16DD
ENCODING 5853
SWIDTH 500 0
DWIDTH 7 0
BBX 7 14 0 -2
BITMAP 
00
00
cc
68
30
68
cc
cc
68
30
68
cc
00
00
ENDCHAR
STARTCHAR U+16DE
ENCODING 5854
SWIDTH 500 0
DWIDTH 7 0
BBX 7 14 0 -2
BITMAP 
00
00
cc
cc
cc
ec
d4
ec
cc
cc
cc
cc
00
00
ENDCHAR
STARTCHAR U+16DF
ENCODING 5855
SWIDTH 500 0
DWIDTH 7 0
BBX 7 14 0 -2
BITMAP 
00
00
30
68
cc
cc
68
30
68
68
cc
cc
00
00
ENDCHAR
STARTCHAR U+16E0
ENCODING 5856
SWIDTH 500 0
DWIDTH 7 0
BBX 7 14 0 -2
BITMAP 
00
00
d4
d4
78
30
30
30
30
30
30
30
00
00
ENDCHAR
STARTCHAR U+16E1
ENCODING 5857
SWIDTH 500 0
DWIDTH 7 0
BBX 7 14 0 -2
BITMAP 
00
00
d4
d4
78
30
78
d4
d4
30
30
30
00
00
ENDCHAR
STARTCHAR U+16E2
ENCODING 5858
SWIDTH 500 0
DWIDTH 7 0
BBX 7 14 0 -2
BITMAP 
00
00
30
30
30
30
30
78
d4
d4
d4
d4
00
00
ENDCHAR
STARTCHAR U+16E5
ENCODING 5861
SWIDTH 500 0
DWIDTH 7 0
BBX 7 14 0 -2
BITMAP 
00
00
cc
ec
d4
cc
cc
cc
cc
d4
ec
cc
00
00
ENDCHAR
STARTCHAR U+16EB
ENCODING 5867
SWIDTH 500 0
DWIDTH 7 0
BBX 7 14 0 -2
BITMAP 
00
00
00
00
00
00
30
30
00
00
00
00
00
00
ENDCHAR
STARTCHAR U+16EC
ENCODING 5868
SWIDTH 500 0
DWIDTH 7 0
BBX 7 14 0 -2
BITMAP 
00
00
00
00
30
30
00
00
30
30
00
00
00
00
ENDCHAR
STARTCHAR U+16ED
ENCODING 5869
SWIDTH 500 0
DWIDTH 7 0
BBX 7 14 0 -2
BITMAP 
00
00
00
00
00
d8
70
70
d8
00
00
00
00
00
ENDCHAR
STARTCHAR U+1E02
ENCODING 7682
SWIDTH 500 0
DWIDTH 7 0
BBX 7 14 0 -2
BITMAP 
30
30
00
fc
66
66
66
7c
66
66
66
fc
00
00
ENDCHAR
STARTCHAR U+1E03
ENCODING 7683
SWIDTH 500 0
DWIDTH 7 0
BBX 7 14 0 -2
BITMAP 
30
30
00
c0
c0
dc
e6
c6
c6
c6
e6
dc
00
00
ENDCHAR
STARTCHAR U+1E0A
ENCODING 7690
SWIDTH 500 0
DWIDTH 7 0
BBX 7 14 0 -2
BITMAP 
30
30
00
fc
66
66
66
66
66
66
66
fc
00
00
ENDCHAR
STARTCHAR U+1E0B
ENCODING 7691
SWIDTH 500 0
DWIDTH 7 0
BBX 7 14 0 -2
BITMAP 
18
18
00
06
06
7a
ce
c6
c6
c6
ce
7a
00
00
ENDCHAR
STARTCHAR U+1E10
ENCODING 7696
SWIDTH 500 0
DWIDTH 7 0
BBX 7 14 0 -2
BITMAP 
00
00
00
fc
66
66
66
66
66
66
66
fc
30
60
ENDCHAR
STARTCHAR U+1E11
ENCODING 7697
SWIDTH 500 0
DWIDTH 7 0
BBX 7 14 0 -2
BITMAP 
00
00
00
06
06
7a
ce
c6
c6
c6
ce
7a
30
60
ENDCHAR
STARTCHAR U+1E1E
ENCODING 7710
SWIDTH 500 0
DWIDTH 7 0
BBX 7 14 0 -2
BITMAP 
30
30
00
fe
c0
c0
c0
fc
c0
c0
c0
c0
00
00
ENDCHAR
STARTCHAR U+1E1F
ENCODING 7711
SWIDTH 500 0
DWIDTH 7 0
BBX 7 14 0 -2
BITMAP 
18
18
00
1c
30
30
fc
30
30
30
30
30
00
00
ENDCHAR
STARTCHAR U+1E2C
ENCODING 7724
SWIDTH 500 0
DWIDTH 7 0
BBX 7 14 0 -2
BITMAP 
00
00
fc
30
30
30
30
30
30
30
fc
00
74
d8
ENDCHAR
STARTCHAR U+1E2D
ENCODING 7725
SWIDTH 500 0
DWIDTH 7 0
BBX 7 14 0 -2
BITMAP 
00
00
30
30
00
70
30
30
30
30
fc
00
74
d8
ENDCHAR
STARTCHAR U+1E2E
ENCODING 7726
SWIDTH 500 0
DWIDTH 7 0
BBX 7 14 0 -2
BITMAP 
18
30
68
00
fc
30
30
30
30
30
30
fc
00
00
ENDCHAR
STARTCHAR U+1E2F
ENCODING 7727
SWIDTH 500 0
DWIDTH 7 0
BBX 7 14 0 -2
BITMAP 
18
30
00
68
00
70
30
30
30
30
30
fc
00
00
ENDCHAR
STARTCHAR U+1E30
ENCODING 7728
SWIDTH 500 0
DWIDTH 7 0
BBX 7 14 0 -2
BITMAP 
1c
70
00
c6
cc
d8
d0
e0
d0
d8
cc
c6
00
00
ENDCHAR
STARTCHAR U+1E31
ENCODING 7729
SWIDTH 500 0
DWIDTH 7 0
BBX 7 14 0 -2
BITMAP 
1c
70
00
c0
c0
cc
d8
d0
e0
d0
d8
cc
00
00
ENDCHAR
STARTCHAR U+1E37
ENCODING 7735
SWIDTH 500 0
DWIDTH 7 0
BBX 7 14 0 -2
BITMAP 
00
00
70
30
30
30
30
30
30
30
30
fc
00
30
ENDCHAR
STARTCHAR U+1E39
ENCODING 7737
SWIDTH 500 0
DWIDTH 7 0
BBX 7 14 0 -2
BITMAP 
00
f8
00
70
30
30
30
30
30
30
30
fc
00
30
ENDCHAR
STARTCHAR U+1E3B
ENCODING 7739
SWIDTH 500 0
DWIDTH 7 0
BBX 7 14 0 -2
BITMAP 
00
00
70
30
30
30
30
30
30
30
30
fc
00
fc
ENDCHAR
STARTCHAR U+1E3D
ENCODING 7741
SWIDTH 500 0
DWIDTH 7 0
BBX 7 14 0 -2
BITMAP 
00
00
70
30
30
30
30
30
30
30
30
fc
30
68
ENDCHAR
STARTCHAR U+1E3E
ENCODING 7742
SWIDTH 500 0
DWIDTH 7 0
BBX 7 14 0 -2
BITMAP 
38
f6
f4
ec
ec
fc
fc
f4
d4
d4
cc
ee
00
00
ENDCHAR
STARTCHAR U+1E3F
ENCODING 7743
SWIDTH 500 0
DWIDTH 7 0
BBX 7 14 0 -2
BITMAP 
00
00
30
60
00
e8
d4
d4
d4
d4
d4
cc
00
00
ENDCHAR
STARTCHAR U+1E40
ENCODING 7744
SWIDTH 500 0
DWIDTH 7 0
BBX 7 14 0 -2
BITMAP 
30
30
00
c6
ee
ee
da
da
c6
c6
c6
c6
00
00
ENDCHAR
STARTCHAR U+1E41
ENCODING 7745
SWIDTH 500 0
DWIDTH 7 0
BBX 7 14 0 -2
BITMAP 
00
00
30
30
00
e8
d4
d4
d4
d4
d4
cc
00
00
ENDCHAR
STARTCHAR U+1E43
ENCODING 7747
SWIDTH 500 0
DWIDTH 7 0
BBX 7 14 0 -2
BITMAP 
00
00
00
00
00
e8
d4
d4
d4
d4
d4
cc
00
18
ENDCHAR
STARTCHAR U+1E56
ENCODING 7766
SWIDTH 500 0
DWIDTH 7 0
BBX 7 14 0 -2
BITMAP 
30
30
00
fc
c6
c6
c6
fc
c0
c0
c0
c0
00
00
ENDCHAR
STARTCHAR U+1E57
ENCODING 7767
SWIDTH 500 0
DWIDTH 7 0
BBX 7 14 0 -2
BITMAP 
00
00
18
18
00
dc
e6
c6
c6
c6
e6
dc
c0
c0
ENDCHAR
STARTCHAR U+1E60
ENCODING 7776
SWIDTH 500 0
DWIDTH 7 0
BBX 7 14 0 -2
BITMAP 
30
30
00
7c
c6
c0
70
1c
06
c6
c6
7c
00
00
ENDCHAR
STARTCHAR U+1E61
ENCODING 7777
SWIDTH 500 0
DWIDTH 7 0
BBX 7 14 0 -2
BITMAP 
00
00
30
30
00
7c
c6
c0
7c
06
c6
7c
00
00
ENDCHAR
STARTCHAR U+1E6A
ENCODING 7786
SWIDTH 500 0
DWIDTH 7 0
BBX 7 14 0 -2
BITMAP 
30
30
00
fe
30
30
30
30
30
30
30
30
00
00
ENDCHAR
STARTCHAR U+1E6B
ENCODING 7787
SWIDTH 500 0
DWIDTH 7 0
BBX 7 14 0 -2
BITMAP 
30
30
00
30
30
fc
30
30
30
30
36
1c
00
00
ENDCHAR
STARTCHAR U+1E6D
ENCODING 7789
SWIDTH 500 0
DWIDTH 7 0
BBX 7 14 0 -2
BITMAP 
00
00
60
60
60
f8
60
60
60
60
6c
38
00
30
ENDCHAR
STARTCHAR U+1E7D
ENCODING 7805
SWIDTH 500 0
DWIDTH 7 0
BBX 7 14 0 -2
BITMAP 
00
00
6c
d8
00
cc
cc
cc
68
68
30
30
00
00
ENDCHAR
STARTCHAR U+1E7F
ENCODING 7807
SWIDTH 500 0
DWIDTH 7 0
BBX 7 14 0 -2
BITMAP 
00
00
00
00
00
cc
cc
cc
68
68
30
30
00
30
ENDCHAR
STARTCHAR U+1E80
ENCODING 7808
SWIDTH 500 0
DWIDTH 7 0
BBX 7 14 0 -2
BITMAP 
70
1c
00
c6
c6
c6
c6
da
da
ee
ee
c6
00
00
ENDCHAR
STARTCHAR U+1E81
ENCODING 7809
SWIDTH 500 0
DWIDTH 7 0
BBX 7 14 0 -2
BITMAP 
00
00
e0
38
00
cc
d4
d4
d4
d4
d4
68
00
00
ENDCHAR
STARTCHAR U+1E82
ENCODING 7810
SWIDTH 500 0
DWIDTH 7 0
BBX 7 14 0 -2
BITMAP 
1c
70
00
c6
c6
c6
c6
da
da
ee
ee
c6
00
00
ENDCHAR
STARTCHAR U+1E83
ENCODING 7811
SWIDTH 500 0
DWIDTH 7 0
BBX 7 14 0 -2
BITMAP 
00
00
1c
70
00
cc
d4
d4
d4
d4
d4
68
00
00
ENDCHAR
STARTCHAR U+1E84
ENCODING 7812
SWIDTH 500 0
DWIDTH 7 0
BBX 7 14 0 -2
BITMAP 
6c
6c
00
c6
c6
c6
c6
da
da
ee
ee
c6
00
00
ENDCHAR
STARTCHAR U+1E85
ENCODING 7813
SWIDTH 500 0
DWIDTH 7 0
BBX 7 14 0 -2
BITMAP 
00
00
68
68
00
cc
d4
d4
d4
d4
d4
68
00
00
ENDCHAR
STARTCHAR U+1E87
ENCODING 7815
SWIDTH 500 0
DWIDTH 7 0
BBX 7 14 0 -2
BITMAP 
00
00
00
30
00
cc
cc
d4
d4
d4
d4
68
00
00
ENDCHAR
STARTCHAR U+1E89
ENCODING 7817
SWIDTH 500 0
DWIDTH 7 0
BBX 7 14 0 -2
BITMAP 
00
00
00
00
00
cc
cc
d4
d4
d4
d4
68
00
30
ENDCHAR
STARTCHAR U+1E8E
ENCODING 7822
SWIDTH 500 0
DWIDTH 7 0
BBX 7 14 0 -2
BITMAP 
00
30
00
cc
cc
68
68
30
30
30
30
30
00
00
ENDCHAR
STARTCHAR U+1E98
ENCODING 7832
SWIDTH 500 0
DWIDTH 7 0
BBX 7 14 0 -2
BITMAP 
00
30
68
30
00
cc
cc
d4
d4
d4
d4
68
00
00
ENDCHAR
STARTCHAR U+1EF2
ENCODING 7922
SWIDTH 500 0
DWIDTH 7 0
BBX 7 14 0 -2
BITMAP 
e0
38
00
cc
cc
68
68
30
30
30
30
30
00
00
ENDCHAR
STARTCHAR U+1EF3
ENCODING 7923
SWIDTH 500 0
DWIDTH 7 0
BBX 7 14 0 -2
BITMAP 
00
00
70
1c
00
c6
c6
c6
c6
ce
7a
06
06
7c
ENDCHAR
STARTCHAR U+1EF4
ENCODING 7924
SWIDTH 500 0
DWIDTH 7 0
BBX 7 14 0 -2
BITMAP 
00
00
cc
cc
cc
68
68
30
30
30
30
30
00
30
ENDCHAR
STARTCHAR U+1EF6
ENCODING 7926
SWIDTH 500 0
DWIDTH 7 0
BBX 7 14 0 -2
BITMAP 
30
68
18
30
cc
68
68
30
30
30
30
30
00
00
ENDCHAR
STARTCHAR U+1EF8
ENCODING 7928
SWIDTH 500 0
DWIDTH 7 0
BBX 7 14 0 -2
BITMAP 
74
d8
00
cc
cc
68
68
30
30
30
30
30
00
00
ENDCHAR
STARTCHAR U+1F00
ENCODING 7936
SWIDTH 500 0
DWIDTH 7 0
BBX 7 14 0 -2
BITMAP 
00
70
30
60
00
76
da
cc
cc
cc
da
76
00
00
ENDCHAR
STARTCHAR U+1F01
ENCODING 7937
SWIDTH 500 0
DWIDTH 7 0
BBX 7 14 0 -2
BITMAP 
00
70
60
30
00
76
da
cc
cc
cc
da
76
00
00
ENDCHAR
STARTCHAR U+1F02
ENCODING 7938
SWIDTH 500 0
DWIDTH 7 0
BBX 7 14 0 -2
BITMAP 
00
e8
68
cc
00
76
da
cc
cc
cc
da
76
00
00
ENDCHAR
STARTCHAR U+1F03
ENCODING 7939
SWIDTH 500 0
DWIDTH 7 0
BBX 7 14 0 -2
BITMAP 
00
e8
d8
6c
00
76
da
cc
cc
cc
da
76
00
00
ENDCHAR
STARTCHAR U+1F04
ENCODING 7940
SWIDTH 500 0
DWIDTH 7 0
BBX 7 14 0 -2
BITMAP 
00
ec
68
d8
00
76
da
cc
cc
cc
da
76
00
00
ENDCHAR
STARTCHAR U+1F05
ENCODING 7941
SWIDTH 500 0
DWIDTH 7 0
BBX 7 14 0 -2
BITMAP 
00
ec
d8
68
00
76
da
cc
cc
cc
da
76
00
00
ENDCHAR
STARTCHAR U+1F06
ENCODING 7942
SWIDTH 500 0
DWIDTH 7 0
BBX 7 14 0 -2
BITMAP 
ec
b8
70
30
60
00
76
da
cc
cc
da
76
00
00
ENDCHAR
STARTCHAR U+1F07
ENCODING 7943
SWIDTH 500 0
DWIDTH 7 0
BBX 7 14 0 -2
BITMAP 
ec
b8
70
60
30
00
76
da
cc
cc
da
76
00
00
ENDCHAR
STARTCHAR U+1F08
ENCODING 7944
SWIDTH 500 0
DWIDTH 7 0
BBX 7 14 0 -2
BITMAP 
c0
c0
80
38
38
6c
6c
7c
c6
c6
c6
c6
00
00
ENDCHAR
STARTCHAR U+1F09
ENCODING 7945
SWIDTH 500 0
DWIDTH 7 0
BBX 7 14 0 -2
BITMAP 
c0
80
c0
38
38
6c
6c
7c
c6
c6
c6
c6
00
00
ENDCHAR
STARTCHAR U+1F0A
ENCODING 7946
SWIDTH 500 0
DWIDTH 7 0
BBX 7 14 0 -2
BITMAP 
d0
d0
98
38
38
6c
6c
7c
c6
c6
c6
c6
00
00
ENDCHAR
STARTCHAR U+1F0B
ENCODING 7947
SWIDTH 500 0
DWIDTH 7 0
BBX 7 14 0 -2
BITMAP 
d0
b0
d8
38
38
6c
6c
7c
c6
c6
c6
c6
00
00
ENDCHAR
STARTCHAR U+1F0C
ENCODING 7948
SWIDTH 500 0
DWIDTH 7 0
BBX 7 14 0 -2
BITMAP 
d8
d0
b0
38
38
6c
6c
7c
c6
c6
c6
c6
00
00
ENDCHAR
STARTCHAR U+1F0D
ENCODING 7949
SWIDTH 500 0
DWIDTH 7 0
BBX 7 14 0 -2
BITMAP 
d8
b0
d0
38
38
6c
6c
7c
c6
c6
c6
c6
00
00
ENDCHAR
STARTCHAR U+1F0E
ENCODING 7950
SWIDTH 500 0
DWIDTH 7 0
BBX 7 14 0 -2
BITMAP 
ec
b8
e0
60
d8
38
6c
6c
7c
c6
c6
c6
00
00
ENDCHAR
STARTCHAR U+1F0F
ENCODING 7951
SWIDTH 500 0
DWIDTH 7 0
BBX 7 14 0 -2
BITMAP 
ec
b8
e0
c0
78
38
6c
6c
7c
c6
c6
c6
00
00
ENDCHAR
STARTCHAR U+1F10
ENCODING 7952
SWIDTH 500 0
DWIDTH 7 0
BBX 7 14 0 -2
BITMAP 
00
38
18
30
00
7c
c0
c0
f8
c0
c0
7c
00
00
ENDCHAR
STARTCHAR U+1F11
ENCODING 7953
SWIDTH 500 0
DWIDTH 7 0
BBX 7 14 0 -2
BITMAP 
00
38
30
18
00
7c
c0
c0
f8
c0
c0
7c
00
00
ENDCHAR
STARTCHAR U+1F12
ENCODING 7954
SWIDTH 500 0
DWIDTH 7 0
BBX 7 14 0 -2
BITMAP 
00
e8
68
cc
00
7c
c0
c0
f8
c0
c0
7c
00
00
ENDCHAR
STARTCHAR U+1F13
ENCODING 7955
SWIDTH 500 0
DWIDTH 7 0
BBX 7 14 0 -2
BITMAP 
00
e8
d8
6c
00
7c
c0
c0
f8
c0
c0
7c
00
00
ENDCHAR
STARTCHAR U+1F14
ENCODING 7956
SWIDTH 500 0
DWIDTH 7 0
BBX 7 14 0 -2
BITMAP 
00
ec
68
d8
00
7c
c0
c0
f8
c0
c0
7c
00
00
ENDCHAR
STARTCHAR U+1F15
ENCODING 7957
SWIDTH 500 0
DWIDTH 7 0
BBX 7 14 0 -2
BITMAP 
00
ec
d8
68
00
7c
c0
c0
f8
c0
c0
7c
00
00
ENDCHAR
STARTCHAR U+1F18
ENCODING 7960
SWIDTH 500 0
DWIDTH 7 0
BBX 7 14 0 -2
BITMAP 
c0
c0
80
00
fe
c0
c0
fc
c0
c0
c0
fe
00
00
ENDCHAR
STARTCHAR U+1F19
ENCODING 7961
SWIDTH 500 0
DWIDTH 7 0
BBX 7 14 0 -2
BITMAP 
c0
80
c0
00
fe
c0
c0
fc
c0
c0
c0
fe
00
00
ENDCHAR
STARTCHAR U+1F1A
ENCODING 7962
SWIDTH 500 0
DWIDTH 7 0
BBX 7 14 0 -2
BITMAP 
d0
d0
98
00
fe
c0
c0
fc
c0
c0
c0
fe
00
00
ENDCHAR
STARTCHAR U+1F1B
ENCODING 7963
SWIDTH 500 0
DWIDTH 7 0
BBX 7 14 0 -2
BITMAP 
d0
b0
d8
00
fe
c0
c0
fc
c0
c0
c0
fe
00
00
ENDCHAR
STARTCHAR U+1F1C
ENCODING 7964
SWIDTH 500 0
DWIDTH 7 0
BBX 7 14 0 -2
BITMAP 
d8
d0
b0
00
fe
c0
c0
fc
c0
c0
c0
fe
00
00
ENDCHAR
STARTCHAR U+1F1D
ENCODING 7965
SWIDTH 500 0
DWIDTH 7 0
BBX 7 14 0 -2
BITMAP 
d8
b0
d0
00
fe
c0
c0
fc
c0
c0
c0
fe
00
00
ENDCHAR
STARTCHAR U+1F20
ENCODING 7968
SWIDTH 500 0
DWIDTH 7 0
BBX 7 14 0 -2
BITMAP 
00
38
18
30
00
dc
e6
c6
c6
c6
c6
c6
06
06
ENDCHAR
STARTCHAR U+1F21
ENCODING 7969
SWIDTH 500 0
DWIDTH 7 0
BBX 7 14 0 -2
BITMAP 
00
38
30
18
00
dc
e6
c6
c6
c6
c6
c6
06
06
ENDCHAR
STARTCHAR U+1F22
ENCODING 7970
SWIDTH 500 0
DWIDTH 7 0
BBX 7 14 0 -2
BITMAP 
00
74
34
66
00
dc
e6
c6
c6
c6
c6
c6
06
06
ENDCHAR
STARTCHAR U+1F23
ENCODING 7971
SWIDTH 500 0
DWIDTH 7 0
BBX 7 14 0 -2
BITMAP 
00
74
6c
36
00
dc
e6
c6
c6
c6
c6
c6
06
06
ENDCHAR
STARTCHAR U+1F24
ENCODING 7972
SWIDTH 500 0
DWIDTH 7 0
BBX 7 14 0 -2
BITMAP 
00
76
34
6c
00
dc
e6
c6
c6
c6
c6
c6
06
06
ENDCHAR
STARTCHAR U+1F25
ENCODING 7973
SWIDTH 500 0
DWIDTH 7 0
BBX 7 14 0 -2
BITMAP 
00
76
6c
34
00
dc
e6
c6
c6
c6
c6
c6
06
06
ENDCHAR
STARTCHAR U+1F26
ENCODING 7974
SWIDTH 500 0
DWIDTH 7 0
BBX 7 14 0 -2
BITMAP 
76
dc
38
18
30
00
dc
e6
c6
c6
c6
c6
06
06
ENDCHAR
STARTCHAR U+1F27
ENCODING 7975
SWIDTH 500 0
DWIDTH 7 0
BBX 7 14 0 -2
BITMAP 
76
dc
38
30
18
00
dc
e6
c6
c6
c6
c6
06
06
ENDCHAR
STARTCHAR U+1F28
ENCODING 7976
SWIDTH 500 0
DWIDTH 7 0
BBX 7 14 0 -2
BITMAP 
c0
c0
80
00
c6
c6
c6
fe
c6
c6
c6
c6
00
00
ENDCHAR
STARTCHAR U+1F29
ENCODING 7977
SWIDTH 500 0
DWIDTH 7 0
BBX 7 14 0 -2
BITMAP 
c0
80
c0
00
c6
c6
c6
fe
c6
c6
c6
c6
00
00
ENDCHAR
STARTCHAR U+1F2A
ENCODING 7978
SWIDTH 500 0
DWIDTH 7 0
BBX 7 14 0 -2
BITMAP 
d0
d0
98
00
c6
c6
c6
fe
c6
c6
c6
c6
00
00
ENDCHAR
STARTCHAR U+1F2B
ENCODING 7979
SWIDTH 500 0
DWIDTH 7 0
BBX 7 14 0 -2
BITMAP 
d0
b0
d8
00
c6
c6
c6
fe
c6
c6
c6
c6
00
00
ENDCHAR
STARTCHAR U+1F2C
ENCODING 7980
SWIDTH 500 0
DWIDTH 7 0
BBX 7 14 0 -2
BITMAP 
d8
d0
b0
00
c6
c6
c6
fe
c6
c6
c6
c6
00
00
ENDCHAR
STARTCHAR U+1F2D
ENCODING 7981
SWIDTH 500 0
DWIDTH 7 0
BBX 7 14 0 -2
BITMAP 
d8
b0
d0
00
c6
c6
c6
fe
c6
c6
c6
c6
00
00
ENDCHAR
STARTCHAR U+1F2E
ENCODING 7982
SWIDTH 500 0
DWIDTH 7 0
BBX 7 14 0 -2
BITMAP 
ec
b8
70
30
e6
c6
c6
fe
c6
c6
c6
c6
00
00
ENDCHAR
STARTCHAR U+1F2F
ENCODING 7983
SWIDTH 500 0
DWIDTH 7 0
BBX 7 14 0 -2
BITMAP 
ec
b8
70
60
d6
c6
c6
fe
c6
c6
c6
c6
00
00
ENDCHAR
STARTCHAR U+1F30
ENCODING 7984
SWIDTH 500 0
DWIDTH 7 0
BBX 7 14 0 -2
BITMAP 
00
70
30
60
00
30
30
30
30
30
30
1c
00
00
ENDCHAR
STARTCHAR U+1F31
ENCODING 7985
SWIDTH 500 0
DWIDTH 7 0
BBX 7 14 0 -2
BITMAP 
00
38
30
18
00
30
30
30
30
30
30
1c
00
00
ENDCHAR
STARTCHAR U+1F32
ENCODING 7986
SWIDTH 500 0
DWIDTH 7 0
BBX 7 14 0 -2
BITMAP 
00
e8
68
cc
00
30
30
30
30
30
30
1c
00
00
ENDCHAR
STARTCHAR U+1F33
ENCODING 7987
SWIDTH 500 0
DWIDTH 7 0
BBX 7 14 0 -2
BITMAP 
00
e8
d8
6c
00
30
30
30
30
30
30
1c
00
00
ENDCHAR
STARTCHAR U+1F34
ENCODING 7988
SWIDTH 500 0
DWIDTH 7 0
BBX 7 14 0 -2
BITMAP 
00
ec
68
d8
00
30
30
30
30
30
30
1c
00
00
ENDCHAR
STARTCHAR U+1F35
ENCODING 7989
SWIDTH 500 0
DWIDTH 7 0
BBX 7 14 0 -2
BITMAP 
00
ec
d8
68
00
30
30
30
30
30
30
1c
00
00
ENDCHAR
STARTCHAR U+1F36
ENCODING 7990
SWIDTH 500 0
DWIDTH 7 0
BBX 7 14 0 -2
BITMAP 
76
dc
38
18
30
00
30
30
30
30
30
1c
00
00
ENDCHAR
STARTCHAR U+1F37
ENCODING 7991
SWIDTH 500 0
DWIDTH 7 0
BBX 7 14 0 -2
BITMAP 
76
dc
38
30
18
00
30
30
30
30
30
1c
00
00
ENDCHAR
STARTCHAR U+1F38
ENCODING 7992
SWIDTH 500 0
DWIDTH 7 0
BBX 7 14 0 -2
BITMAP 
c0
c0
80
00
fc
30
30
30
30
30
30
fc
00
00
ENDCHAR
STARTCHAR U+1F39
ENCODING 7993
SWIDTH 500 0
DWIDTH 7 0
BBX 7 14 0 -2
BITMAP 
c0
80
c0
00
fc
30
30
30
30
30
30
fc
00
00
ENDCHAR
STARTCHAR U+1F3A
ENCODING 7994
SWIDTH 500 0
DWIDTH 7 0
BBX 7 14 0 -2
BITMAP 
d0
d0
98
00
fc
30
30
30
30
30
30
fc
00
00
ENDCHAR
STARTCHAR U+1F3B
ENCODING 7995
SWIDTH 500 0
DWIDTH 7 0
BBX 7 14 0 -2
BITMAP 
d0
b0
d8
00
fc
30
30
30
30
30
30
fc
00
00
ENDCHAR
STARTCHAR U+1F3C
ENCODING 7996
SWIDTH 500 0
DWIDTH 7 0
BBX 7 14 0 -2
BITMAP 
d8
d0
b0
00
fc
30
30
30
30
30
30
fc
00
00
ENDCHAR
STARTCHAR U+1F3D
ENCODING 7997
SWIDTH 500 0
DWIDTH 7 0
BBX 7 14 0 -2
BITMAP 
d8
b0
d0
00
fc
30
30
30
30
30
30
fc
00
00
ENDCHAR
STARTCHAR U+1F3E
ENCODING 7998
SWIDTH 500 0
DWIDTH 7 0
BBX 7 14 0 -2
BITMAP 
ec
b8
e0
60
de
18
18
18
18
18
18
7e
00
00
ENDCHAR
STARTCHAR U+1F3F
ENCODING 7999
SWIDTH 500 0
DWIDTH 7 0
BBX 7 14 0 -2
BITMAP 
ec
b8
e0
c0
7e
18
18
18
18
18
18
7e
00
00
ENDCHAR
STARTCHAR U+1F40
ENCODING 8000
SWIDTH 500 0
DWIDTH 7 0
BBX 7 14 0 -2
BITMAP 
00
38
18
30
00
7c
c6
c6
c6
c6
c6
7c
00
00
ENDCHAR
STARTCHAR U+1F41
ENCODING 8001
SWIDTH 500 0
DWIDTH 7 0
BBX 7 14 0 -2
BITMAP 
00
38
30
18
00
7c
c6
c6
c6
c6
c6
7c
00
00
ENDCHAR
STARTCHAR U+1F42
ENCODING 8002
SWIDTH 500 0
DWIDTH 7 0
BBX 7 14 0 -2
BITMAP 
00
e8
68
cc
00
7c
c6
c6
c6
c6
c6
7c
00
00
ENDCHAR
STARTCHAR U+1F43
ENCODING 8003
SWIDTH 500 0
DWIDTH 7 0
BBX 7 14 0 -2
BITMAP 
00
e8
d8
6c
00
7c
c6
c6
c6
c6
c6
7c
00
00
ENDCHAR
STARTCHAR U+1F44
ENCODING 8004
SWIDTH 500 0
DWIDTH 7 0
BBX 7 14 0 -2
BITMAP 
00
ec
68
d8
00
7c
c6
c6
c6
c6
c6
7c
00
00
ENDCHAR
STARTCHAR U+1F45
ENCODING 8005
SWIDTH 500 0
DWIDTH 7 0
BBX 7 14 0 -2
BITMAP 
00
ec
d8
68
00
7c
c6
c6
c6
c6
c6
7c
00
00
ENDCHAR
STARTCHAR U+1F48
ENCODING 8008
SWIDTH 500 0
DWIDTH 7 0
BBX 7 14 0 -2
BITMAP 
c0
c0
80
7c
c6
c6
c6
c6
c6
c6
c6
7c
00
00
ENDCHAR
STARTCHAR U+1F49
ENCODING 8009
SWIDTH 500 0
DWIDTH 7 0
BBX 7 14 0 -2
BITMAP 
c0
80
c0
7c
c6
c6
c6
c6
c6
c6
c6
7c
00
00
ENDCHAR
STARTCHAR U+1F4A
ENCODING 8010
SWIDTH 500 0
DWIDTH 7 0
BBX 7 14 0 -2
BITMAP 
d0
d0
98
00
7c
c6
c6
c6
c6
c6
c6
7c
00
00
ENDCHAR
STARTCHAR U+1F4B
ENCODING 8011
SWIDTH 500 0
DWIDTH 7 0
BBX 7 14 0 -2
BITMAP 
d0
b0
d8
00
7c
c6
c6
c6
c6
c6
c6
7c
00
00
ENDCHAR
STARTCHAR U+1F4C
ENCODING 8012
SWIDTH 500 0
DWIDTH 7 0
BBX 7 14 0 -2
BITMAP 
d8
d0
b0
00
7c
c6
c6
c6
c6
c6
c6
7c
00
00
ENDCHAR
STARTCHAR U+1F4D
ENCODING 8013
SWIDTH 500 0
DWIDTH 7 0
BBX 7 14 0 -2
BITMAP 
d8
b0
d0
00
7c
c6
c6
c6
c6
c6
c6
7c
00
00
ENDCHAR
STARTCHAR U+1F50
ENCODING 8016
SWIDTH 500 0
DWIDTH 7 0
BBX 7 14 0 -2
BITMAP 
00
38
18
30
00
c6
c6
c6
c6
c6
c6
7c
00
00
ENDCHAR
STARTCHAR U+1F51
ENCODING 8017
SWIDTH 500 0
DWIDTH 7 0
BBX 7 14 0 -2
BITMAP 
00
38
30
18
00
c6
c6
c6
c6
c6
c6
7c
00
00
ENDCHAR
STARTCHAR U+1F52
ENCODING 8018
SWIDTH 500 0
DWIDTH 7 0
BBX 7 14 0 -2
BITMAP 
00
e8
68
cc
00
c6
c6
c6
c6
c6
c6
7c
00
00
ENDCHAR
STARTCHAR U+1F53
ENCODING 8019
SWIDTH 500 0
DWIDTH 7 0
BBX 7 14 0 -2
BITMAP 
00
e8
d8
6c
00
c6
c6
c6
c6
c6
c6
7c
00
00
ENDCHAR
STARTCHAR U+1F54
ENCODING 8020
SWIDTH 500 0
DWIDTH 7 0
BBX 7 14 0 -2
BITMAP 
00
ec
68
d8
00
c6
c6
c6
c6
c6
c6
7c
00
00
ENDCHAR
STARTCHAR U+1F55
ENCODING 8021
SWIDTH 500 0
DWIDTH 7 0
BBX 7 14 0 -2
BITMAP 
00
ec
d8
68
00
c6
c6
c6
c6
c6
c6
7c
00
00
ENDCHAR
STARTCHAR U+1F56
ENCODING 8022
SWIDTH 500 0
DWIDTH 7 0
BBX 7 14 0 -2
BITMAP 
76
dc
38
18
30
c6
c6
c6
c6
c6
c6
7c
00
00
ENDCHAR
STARTCHAR U+1F57
ENCODING 8023
SWIDTH 500 0
DWIDTH 7 0
BBX 7 14 0 -2
BITMAP 
76
dc
38
30
18
c6
c6
c6
c6
c6
c6
7c
00
00
ENDCHAR
STARTCHAR U+1F59
ENCODING 8025
SWIDTH 500 0
DWIDTH 7 0
BBX 7 14 0 -2
BITMAP 
c0
80
c0
00
cc
cc
cc
68
30
30
30
30
00
00
ENDCHAR
STARTCHAR U+1F5B
ENCODING 8027
SWIDTH 500 0
DWIDTH 7 0
BBX 7 14 0 -2
BITMAP 
d0
b0
d8
00
cc
cc
cc
68
30
30
30
30
00
00
ENDCHAR
STARTCHAR U+1F5D
ENCODING 8029
SWIDTH 500 0
DWIDTH 7 0
BBX 7 14 0 -2
BITMAP 
d8
b0
d0
00
cc
cc
cc
68
30
30
30
30
00
00
ENDCHAR
STARTCHAR U+1F5F
ENCODING 8031
SWIDTH 500 0
DWIDTH 7 0
BBX 7 14 0 -2
BITMAP 
76
dc
70
60
d4
cc
cc
68
30
30
30
30
00
00
ENDCHAR
STARTCHAR U+1F60
ENCODING 8032
SWIDTH 500 0
DWIDTH 7 0
BBX 7 14 0 -2
BITMAP 
00
38
18
30
00
6c
c6
c6
c6
da
da
74
00
00
ENDCHAR
STARTCHAR U+1F61
ENCODING 8033
SWIDTH 500 0
DWIDTH 7 0
BBX 7 14 0 -2
BITMAP 
00
38
30
18
00
6c
c6
c6
c6
da
da
74
00
00
ENDCHAR
STARTCHAR U+1F62
ENCODING 8034
SWIDTH 500 0
DWIDTH 7 0
BBX 7 14 0 -2
BITMAP 
00
74
34
66
00
6c
c6
c6
c6
da
da
74
00
00
ENDCHAR
STARTCHAR U+1F63
ENCODING 8035
SWIDTH 500 0
DWIDTH 7 0
BBX 7 14 0 -2
BITMAP 
00
74
6c
36
00
6c
c6
c6
c6
da
da
74
00
00
ENDCHAR
STARTCHAR U+1F64
ENCODING 8036
SWIDTH 500 0
DWIDTH 7 0
BBX 7 14 0 -2
BITMAP 
00
76
34
6c
00
6c
c6
c6
c6
da
da
74
00
00
ENDCHAR
STARTCHAR U+1F65
ENCODING 8037
SWIDTH 500 0
DWIDTH 7 0
BBX 7 14 0 -2
BITMAP 
00
76
6c
34
00
6c
c6
c6
c6
da
da
74
00
00
ENDCHAR
STARTCHAR U+1F66
ENCODING 8038
SWIDTH 500 0
DWIDTH 7 0
BBX 7 14 0 -2
BITMAP 
76
dc
38
18
30
00
6c
c6
c6
da
da
74
00
00
ENDCHAR
STARTCHAR U+1F67
ENCODING 8039
SWIDTH 500 0
DWIDTH 7 0
BBX 7 14 0 -2
BITMAP 
76
dc
38
30
18
00
6c
c6
c6
da
da
74
00
00
ENDCHAR
STARTCHAR U+1F68
ENCODING 8040
SWIDTH 500 0
DWIDTH 7 0
BBX 7 14 0 -2
BITMAP 
c0
c0
80
7c
c6
c6
c6
c6
c6
6c
38
fe
00
00
ENDCHAR
STARTCHAR U+1F69
ENCODING 8041
SWIDTH 500 0
DWIDTH 7 0
BBX 7 14 0 -2
BITMAP 
c0
80
c0
7c
c6
c6
c6
c6
c6
6c
38
fe
00
00
ENDCHAR
STARTCHAR U+1F6A
ENCODING 8042
SWIDTH 500 0
DWIDTH 7 0
BBX 7 14 0 -2
BITMAP 
d0
d0
98
00
7c
c6
c6
c6
c6
6c
38
fe
00
00
ENDCHAR
STARTCHAR U+1F6B
ENCODING 8043
SWIDTH 500 0
DWIDTH 7 0
BBX 7 14 0 -2
BITMAP 
d0
b0
d8
00
7c
c6
c6
c6
c6
6c
38
fe
00
00
ENDCHAR
STARTCHAR U+1F6C
ENCODING 8044
SWIDTH 500 0
DWIDTH 7 0
BBX 7 14 0 -2
BITMAP 
d8
d0
b0
00
7c
c6
c6
c6
c6
6c
38
fe
00
00
ENDCHAR
STARTCHAR U+1F6D
ENCODING 8045
SWIDTH 500 0
DWIDTH 7 0
BBX 7 14 0 -2
BITMAP 
d8
b0
d0
00
7c
c6
c6
c6
c6
6c
38
fe
00
00
ENDCHAR
STARTCHAR U+1F6E
ENCODING 8046
SWIDTH 500 0
DWIDTH 7 0
BBX 7 14 0 -2
BITMAP 
76
dc
38
18
30
7c
c6
c6
c6
6c
38
fe
00
00
ENDCHAR
STARTCHAR U+1F6F
ENCODING 8047
SWIDTH 500 0
DWIDTH 7 0
BBX 7 14 0 -2
BITMAP 
76
dc
38
30
18
7c
c6
c6
c6
6c
38
fe
00
00
ENDCHAR
STARTCHAR U+1F70
ENCODING 8048
SWIDTH 500 0
DWIDTH 7 0
BBX 7 14 0 -2
BITMAP 
00
60
60
30
00
76
da
cc
cc
cc
da
76
00
00
ENDCHAR
STARTCHAR U+1F71
ENCODING 8049
SWIDTH 500 0
DWIDTH 7 0
BBX 7 14 0 -2
BITMAP 
00
30
60
60
00
76
da
cc
cc
cc
da
76
00
00
ENDCHAR
STARTCHAR U+1F72
ENCODING 8050
SWIDTH 500 0
DWIDTH 7 0
BBX 7 14 0 -2
BITMAP 
00
30
30
18
00
7c
c0
c0
f8
c0
c0
7c
00
00
ENDCHAR
STARTCHAR U+1F73
ENCODING 8051
SWIDTH 500 0
DWIDTH 7 0
BBX 7 14 0 -2
BITMAP 
00
18
30
30
00
7c
c0
c0
f8
c0
c0
7c
00
00
ENDCHAR
STARTCHAR U+1F74
ENCODING 8052
SWIDTH 500 0
DWIDTH 7 0
BBX 7 14 0 -2
BITMAP 
00
30
30
18
00
dc
e6
c6
c6
c6
c6
c6
06
06
ENDCHAR
STARTCHAR U+1F75
ENCODING 8053
SWIDTH 500 0
DWIDTH 7 0
BBX 7 14 0 -2
BITMAP 
00
18
30
30
00
dc
e6
c6
c6
c6
c6
c6
06
06
ENDCHAR
STARTCHAR U+1F76
ENCODING 8054
SWIDTH 500 0
DWIDTH 7 0
BBX 7 14 0 -2
BITMAP 
00
30
30
18
00
30
30
30
30
30
30
1c
00
00
ENDCHAR
STARTCHAR U+1F77
ENCODING 8055
SWIDTH 500 0
DWIDTH 7 0
BBX 7 14 0 -2
BITMAP 
00
18
30
30
00
30
30
30
30
30
30
1c
00
00
ENDCHAR
STARTCHAR U+1F78
ENCODING 8056
SWIDTH 500 0
DWIDTH 7 0
BBX 7 14 0 -2
BITMAP 
00
30
30
18
00
7c
c6
c6
c6
c6
c6
7c
00
00
ENDCHAR
STARTCHAR U+1F79
ENCODING 8057
SWIDTH 500 0
DWIDTH 7 0
BBX 7 14 0 -2
BITMAP 
00
18
30
30
00
7c
c6
c6
c6
c6
c6
7c
00
00
ENDCHAR
STARTCHAR U+1F7A
ENCODING 8058
SWIDTH 500 0
DWIDTH 7 0
BBX 7 14 0 -2
BITMAP 
00
30
30
18
00
c6
c6
c6
c6
c6
c6
7c
00
00
ENDCHAR
STARTCHAR U+1F7B
ENCODING 8059
SWIDTH 500 0
DWIDTH 7 0
BBX 7 14 0 -2
BITMAP 
00
18
30
30
00
c6
c6
c6
c6
c6
c6
7c
00
00
ENDCHAR
STARTCHAR U+1F7C
ENCODING 8060
SWIDTH 500 0
DWIDTH 7 0
BBX 7 14 0 -2
BITMAP 
00
30
30
18
00
6c
c6
c6
c6
da
da
74
00
00
ENDCHAR
STARTCHAR U+1F7D
ENCODING 8061
SWIDTH 500 0
DWIDTH 7 0
BBX 7 14 0 -2
BITMAP 
00
18
30
30
00
6c
c6
c6
c6
da
da
74
00
00
ENDCHAR
STARTCHAR U+1F80
ENCODING 8064
SWIDTH 500 0
DWIDTH 7 0
BBX 7 14 0 -2
BITMAP 
00
70
30
60
00
76
da
cc
cc
cc
da
76
60
70
ENDCHAR
STARTCHAR U+1F81
ENCODING 8065
SWIDTH 500 0
DWIDTH 7 0
BBX 7 14 0 -2
BITMAP 
00
70
60
30
00
76
da
cc
cc
cc
da
76
60
70
ENDCHAR
STARTCHAR U+1F82
ENCODING 8066
SWIDTH 500 0
DWIDTH 7 0
BBX 7 14 0 -2
BITMAP 
00
e8
68
cc
00
76
da
cc
cc
cc
da
76
60
70
ENDCHAR
STARTCHAR U+1F83
ENCODING 8067
SWIDTH 500 0
DWIDTH 7 0
BBX 7 14 0 -2
BITMAP 
00
e8
d8
6c
00
76
da
cc
cc
cc
da
76
60
70
ENDCHAR
STARTCHAR U+1F84
ENCODING 8068
SWIDTH 500 0
DWIDTH 7 0
BBX 7 14 0 -2
BITMAP 
00
ec
68
d8
00
76
da
cc
cc
cc
da
76
60
70
ENDCHAR
STARTCHAR U+1F85
ENCODING 8069
SWIDTH 500 0
DWIDTH 7 0
BBX 7 14 0 -2
BITMAP 
00
ec
d8
68
00
76
da
cc
cc
cc
da
76
60
70
ENDCHAR
STARTCHAR U+1F86
ENCODING 8070
SWIDTH 500 0
DWIDTH 7 0
BBX 7 14 0 -2
BITMAP 
ec
b8
70
30
60
00
76
da
cc
cc
da
76
60
70
ENDCHAR
STARTCHAR U+1F87
ENCODING 8071
SWIDTH 500 0
DWIDTH 7 0
BBX 7 14 0 -2
BITMAP 
ec
b8
70
60
30
00
76
da
cc
cc
da
76
00
00
ENDCHAR
STARTCHAR U+1F88
ENCODING 8072
SWIDTH 500 0
DWIDTH 7 0
BBX 7 14 0 -2
BITMAP 
c0
c0
80
38
38
6c
6c
7c
c6
c6
c6
c6
30
1c
ENDCHAR
STARTCHAR U+1F89
ENCODING 8073
SWIDTH 500 0
DWIDTH 7 0
BBX 7 14 0 -2
BITMAP 
c0
80
c0
38
38
6c
6c
7c
c6
c6
c6
c6
30
1c
ENDCHAR
STARTCHAR U+1F8A
ENCODING 8074
SWIDTH 500 0
DWIDTH 7 0
BBX 7 14 0 -2
BITMAP 
d0
d0
98
00
38
38
6c
6c
7c
c6
c6
c6
30
1c
ENDCHAR
STARTCHAR U+1F8B
ENCODING 8075
SWIDTH 500 0
DWIDTH 7 0
BBX 7 14 0 -2
BITMAP 
d0
b0
d8
00
38
38
6c
6c
7c
c6
c6
c6
30
1c
ENDCHAR
STARTCHAR U+1F8C
ENCODING 8076
SWIDTH 500 0
DWIDTH 7 0
BBX 7 14 0 -2
BITMAP 
d8
d0
b0
00
38
38
6c
6c
7c
c6
c6
c6
30
1c
ENDCHAR
STARTCHAR U+1F8D
ENCODING 8077
SWIDTH 500 0
DWIDTH 7 0
BBX 7 14 0 -2
BITMAP 
d8
b0
d0
00
38
38
6c
6c
7c
c6
c6
c6
30
1c
ENDCHAR
STARTCHAR U+1F8E
ENCODING 8078
SWIDTH 500 0
DWIDTH 7 0
BBX 7 14 0 -2
BITMAP 
ec
b8
e0
c0
78
38
6c
6c
7c
c6
c6
c6
30
1c
ENDCHAR
STARTCHAR U+1F8F
ENCODING 8079
SWIDTH 500 0
DWIDTH 7 0
BBX 7 14 0 -2
BITMAP 
ec
b8
e0
c0
78
38
6c
6c
7c
c6
c6
c6
00
00
ENDCHAR
STARTCHAR U+1F90
ENCODING 8080
SWIDTH 500 0
DWIDTH 7 0
BBX 7 14 0 -2
BITMAP 
00
38
18
30
00
dc
e6
c6
c6
c6
c6
c6
66
76
ENDCHAR
STARTCHAR U+1F91
ENCODING 8081
SWIDTH 500 0
DWIDTH 7 0
BBX 7 14 0 -2
BITMAP 
00
38
30
18
00
dc
e6
c6
c6
c6
c6
c6
66
76
ENDCHAR
STARTCHAR U+1F92
ENCODING 8082
SWIDTH 500 0
DWIDTH 7 0
BBX 7 14 0 -2
BITMAP 
00
74
34
66
00
dc
e6
c6
c6
c6
c6
c6
66
76
ENDCHAR
STARTCHAR U+1F93
ENCODING 8083
SWIDTH 500 0
DWIDTH 7 0
BBX 7 14 0 -2
BITMAP 
00
74
6c
36
00
dc
e6
c6
c6
c6
c6
c6
66
76
ENDCHAR
STARTCHAR U+1F94
ENCODING 8084
SWIDTH 500 0
DWIDTH 7 0
BBX 7 14 0 -2
BITMAP 
00
76
34
6c
00
dc
e6
c6
c6
c6
c6
c6
66
76
ENDCHAR
STARTCHAR U+1F95
ENCODING 8085
SWIDTH 500 0
DWIDTH 7 0
BBX 7 14 0 -2
BITMAP 
00
76
6c
34
00
dc
e6
c6
c6
c6
c6
c6
66
76
ENDCHAR
STARTCHAR U+1F96
ENCODING 8086
SWIDTH 500 0
DWIDTH 7 0
BBX 7 14 0 -2
BITMAP 
76
dc
38
18
30
00
dc
e6
c6
c6
c6
c6
66
76
ENDCHAR
STARTCHAR U+1F97
ENCODING 8087
SWIDTH 500 0
DWIDTH 7 0
BBX 7 14 0 -2
BITMAP 
76
dc
38
30
18
00
dc
e6
c6
c6
c6
c6
66
76
ENDCHAR
STARTCHAR U+1F98
ENCODING 8088
SWIDTH 500 0
DWIDTH 7 0
BBX 7 14 0 -2
BITMAP 
c0
c0
80
00
c6
c6
c6
fe
c6
c6
c6
c6
30
1c
ENDCHAR
STARTCHAR U+1F99
ENCODING 8089
SWIDTH 500 0
DWIDTH 7 0
BBX 7 14 0 -2
BITMAP 
c0
80
c0
00
c6
c6
c6
fe
c6
c6
c6
c6
30
1c
ENDCHAR
STARTCHAR U+1F9A
ENCODING 8090
SWIDTH 500 0
DWIDTH 7 0
BBX 7 14 0 -2
BITMAP 
d0
d0
98
00
c6
c6
c6
fe
c6
c6
c6
c6
30
1c
ENDCHAR
STARTCHAR U+1F9B
ENCODING 8091
SWIDTH 500 0
DWIDTH 7 0
BBX 7 14 0 -2
BITMAP 
d0
b0
d8
00
c6
c6
c6
fe
c6
c6
c6
c6
30
1c
ENDCHAR
STARTCHAR U+1F9C
ENCODING 8092
SWIDTH 500 0
DWIDTH 7 0
BBX 7 14 0 -2
BITMAP 
d8
d0
b0
00
c6
c6
c6
fe
c6
c6
c6
c6
30
1c
ENDCHAR
STARTCHAR U+1F9D
ENCODING 8093
SWIDTH 500 0
DWIDTH 7 0
BBX 7 14 0 -2
BITMAP 
d8
b0
d0
00
c6
c6
c6
fe
c6
c6
c6
c6
30
1c
ENDCHAR
STARTCHAR U+1F9E
ENCODING 8094
SWIDTH 500 0
DWIDTH 7 0
BBX 7 14 0 -2
BITMAP 
76
dc
38
18
d6
c6
c6
fe
c6
c6
c6
c6
30
1c
ENDCHAR
STARTCHAR U+1F9F
ENCODING 8095
SWIDTH 500 0
DWIDTH 7 0
BBX 7 14 0 -2
BITMAP 
76
dc
38
30
da
c6
c6
fe
c6
c6
c6
c6
30
1c
ENDCHAR
STARTCHAR U+1FA0
ENCODING 8096
SWIDTH 500 0
DWIDTH 7 0
BBX 7 14 0 -2
BITMAP 
00
38
18
30
00
6c
c6
c6
c6
da
da
74
30
38
ENDCHAR
STARTCHAR U+1FA1
ENCODING 8097
SWIDTH 500 0
DWIDTH 7 0
BBX 7 14 0 -2
BITMAP 
00
38
30
18
00
6c
c6
c6
c6
da
da
74
30
38
ENDCHAR
STARTCHAR U+1FA2
ENCODING 8098
SWIDTH 500 0
DWIDTH 7 0
BBX 7 14 0 -2
BITMAP 
00
74
34
66
00
6c
c6
c6
c6
da
da
74
30
38
ENDCHAR
STARTCHAR U+1FA3
ENCODING 8099
SWIDTH 500 0
DWIDTH 7 0
BBX 7 14 0 -2
BITMAP 
00
74
6c
36
00
6c
c6
c6
c6
da
da
74
30
38
ENDCHAR
STARTCHAR U+1FA4
ENCODING 8100
SWIDTH 500 0
DWIDTH 7 0
BBX 7 14 0 -2
BITMAP 
00
76
34
6c
00
6c
c6
c6
c6
da
da
74
30
38
ENDCHAR
STARTCHAR U+1FA5
ENCODING 8101
SWIDTH 500 0
DWIDTH 7 0
BBX 7 14 0 -2
BITMAP 
00
76
6c
34
00
6c
c6
c6
c6
da
da
74
30
38
ENDCHAR
STARTCHAR U+1FA6
ENCODING 8102
SWIDTH 500 0
DWIDTH 7 0
BBX 7 14 0 -2
BITMAP 
76
dc
38
18
30
00
6c
c6
c6
da
da
74
30
38
ENDCHAR
STARTCHAR U+1FA7
ENCODING 8103
SWIDTH 500 0
DWIDTH 7 0
BBX 7 14 0 -2
BITMAP 
76
dc
38
30
18
00
6c
c6
c6
da
da
74
30
38
ENDCHAR
STARTCHAR U+1FA8
ENCODING 8104
SWIDTH 500 0
DWIDTH 7 0
BBX 7 14 0 -2
BITMAP 
c0
c0
80
7c
c6
c6
c6
c6
c6
6c
38
fe
30
1c
ENDCHAR
STARTCHAR U+1FA9
ENCODING 8105
SWIDTH 500 0
DWIDTH 7 0
BBX 7 14 0 -2
BITMAP 
c0
80
c0
7c
c6
c6
c6
c6
c6
6c
38
fe
30
1c
ENDCHAR
STARTCHAR U+1FAA
ENCODING 8106
SWIDTH 500 0
DWIDTH 7 0
BBX 7 14 0 -2
BITMAP 
d0
d0
98
00
7c
c6
c6
c6
c6
6c
38
fe
30
1c
ENDCHAR
STARTCHAR U+1FAB
ENCODING 8107
SWIDTH 500 0
DWIDTH 7 0
BBX 7 14 0 -2
BITMAP 
d0
b0
d8
00
7c
c6
c6
c6
c6
6c
38
fe
30
1c
ENDCHAR
STARTCHAR U+1FAC
ENCODING 8108
SWIDTH 500 0
DWIDTH 7 0
BBX 7 14 0 -2
BITMAP 
d8
d0
b0
00
7c
c6
c6
c6
c6
6c
38
fe
30
1c
ENDCHAR
STARTCHAR U+1FAD
ENCODING 8109
SWIDTH 500 0
DWIDTH 7 0
BBX 7 14 0 -2
BITMAP 
d8
b0
d0
00
7c
c6
c6
c6
c6
6c
38
fe
30
1c
ENDCHAR
STARTCHAR U+1FAE
ENCODING 8110
SWIDTH 500 0
DWIDTH 7 0
BBX 7 14 0 -2
BITMAP 
76
dc
38
18
30
7c
c6
c6
c6
6c
38
fe
30
1c
ENDCHAR
STARTCHAR U+1FAF
ENCODING 8111
SWIDTH 500 0
DWIDTH 7 0
BBX 7 14 0 -2
BITMAP 
76
dc
38
30
18
7c
c6
c6
c6
6c
38
fe
30
1c
ENDCHAR
STARTCHAR U+1FB0
ENCODING 8112
SWIDTH 500 0
DWIDTH 7 0
BBX 7 14 0 -2
BITMAP 
00
cc
cc
78
00
76
da
cc
cc
cc
da
76
00
00
ENDCHAR
STARTCHAR U+1FB1
ENCODING 8113
SWIDTH 500 0
DWIDTH 7 0
BBX 7 14 0 -2
BITMAP 
00
00
fc
00
00
76
da
cc
cc
cc
da
76
00
00
ENDCHAR
STARTCHAR U+1FB2
ENCODING 8114
SWIDTH 500 0
DWIDTH 7 0
BBX 7 14 0 -2
BITMAP 
00
60
60
30
00
76
da
cc
cc
cc
da
76
60
70
ENDCHAR
STARTCHAR U+1FB3
ENCODING 8115
SWIDTH 500 0
DWIDTH 7 0
BBX 7 14 0 -2
BITMAP 
00
00
00
00
00
76
da
cc
cc
cc
da
76
60
70
ENDCHAR
STARTCHAR U+1FB4
ENCODING 8116
SWIDTH 500 0
DWIDTH 7 0
BBX 7 14 0 -2
BITMAP 
00
30
60
60
00
76
da
cc
cc
cc
da
76
60
70
ENDCHAR
STARTCHAR U+1FB6
ENCODING 8118
SWIDTH 500 0
DWIDTH 7 0
BBX 7 14 0 -2
BITMAP 
00
00
76
dc
00
76
da
cc
cc
cc
da
76
00
00
ENDCHAR
STARTCHAR U+1FB7
ENCODING 8119
SWIDTH 500 0
DWIDTH 7 0
BBX 7 14 0 -2
BITMAP 
00
00
76
dc
00
76
da
cc
cc
cc
da
76
60
70
ENDCHAR
STARTCHAR U+1FB8
ENCODING 8120
SWIDTH 500 0
DWIDTH 7 0
BBX 7 14 0 -2
BITMAP 
c6
c6
7c
00
38
38
6c
6c
7c
c6
c6
c6
00
00
ENDCHAR
STARTCHAR U+1FB9
ENCODING 8121
SWIDTH 500 0
DWIDTH 7 0
BBX 7 14 0 -2
BITMAP 
00
7c
00
38
38
6c
6c
7c
c6
c6
c6
c6
00
00
ENDCHAR
STARTCHAR U+1FBA
ENCODING 8122
SWIDTH 500 0
DWIDTH 7 0
BBX 7 14 0 -2
BITMAP 
80
80
c0
38
38
6c
6c
7c
c6
c6
c6
c6
00
00
ENDCHAR
STARTCHAR U+1FBB
ENCODING 8123
SWIDTH 500 0
DWIDTH 7 0
BBX 7 14 0 -2
BITMAP 
c0
80
80
38
38
6c
6c
7c
c6
c6
c6
c6
00
00
ENDCHAR
STARTCHAR U+1FBC
ENCODING 8124
SWIDTH 500 0
DWIDTH 7 0
BBX 7 14 0 -2
BITMAP 
00
00
00
38
38
6c
6c
7c
c6
c6
c6
c6
30
1c
ENDCHAR
STARTCHAR U+1FBD
ENCODING 8125
SWIDTH 500 0
DWIDTH 7 0
BBX 7 14 0 -2
BITMAP 
00
00
00
38
18
30
00
00
00
00
00
00
00
00
ENDCHAR
STARTCHAR U+1FBE
ENCODING 8126
SWIDTH 500 0
DWIDTH 7 0
BBX 7 14 0 -2
BITMAP 
00
00
00
00
00
00
00
00
00
00
00
00
30
1c
ENDCHAR
STARTCHAR U+1FBF
ENCODING 8127
SWIDTH 500 0
DWIDTH 7 0
BBX 7 14 0 -2
BITMAP 
38
18
30
00
00
00
00
00
00
00
00
00
00
00
ENDCHAR
STARTCHAR U+1FC0
ENCODING 8128
SWIDTH 500 0
DWIDTH 7 0
BBX 7 14 0 -2
BITMAP 
76
dc
00
00
00
00
00
00
00
00
00
00
00
00
ENDCHAR
STARTCHAR U+1FC1
ENCODING 8129
SWIDTH 500 0
DWIDTH 7 0
BBX 7 14 0 -2
BITMAP 
76
dc
00
ee
00
00
00
00
00
00
00
00
00
00
ENDCHAR
STARTCHAR U+1FC2
ENCODING 8130
SWIDTH 500 0
DWIDTH 7 0
BBX 7 14 0 -2
BITMAP 
00
30
30
18
00
dc
e6
c6
c6
c6
c6
c6
66
76
ENDCHAR
STARTCHAR U+1FC3
ENCODING 8131
SWIDTH 500 0
DWIDTH 7 0
BBX 7 14 0 -2
BITMAP 
00
00
00
00
00
dc
e6
c6
c6
c6
c6
c6
66
76
ENDCHAR
STARTCHAR U+1FC4
ENCODING 8132
SWIDTH 500 0
DWIDTH 7 0
BBX 7 14 0 -2
BITMAP 
00
18
30
30
00
dc
e6
c6
c6
c6
c6
c6
66
76
ENDCHAR
STARTCHAR U+1FC6
ENCODING 8134
SWIDTH 500 0
DWIDTH 7 0
BBX 7 14 0 -2
BITMAP 
00
00
76
dc
00
dc
e6
c6
c6
c6
c6
c6
06
06
ENDCHAR
STARTCHAR U+1FC7
ENCODING 8135
SWIDTH 500 0
DWIDTH 7 0
BBX 7 14 0 -2
BITMAP 
00
00
76
dc
00
dc
e6
c6
c6
c6
c6
c6
66
76
ENDCHAR
STARTCHAR U+1FC8
ENCODING 8136
SWIDTH 500 0
DWIDTH 7 0
BBX 7 14 0 -2
BITMAP 
80
80
c0
00
fe
c0
c0
fc
c0
c0
c0
fe
00
00
ENDCHAR
STARTCHAR U+1FC9
ENCODING 8137
SWIDTH 500 0
DWIDTH 7 0
BBX 7 14 0 -2
BITMAP 
c0
80
80
00
fe
c0
c0
fc
c0
c0
c0
fe
00
00
ENDCHAR
STARTCHAR U+1FCA
ENCODING 8138
SWIDTH 500 0
DWIDTH 7 0
BBX 7 14 0 -2
BITMAP 
80
80
c0
00
c6
c6
c6
fe
c6
c6
c6
c6
00
00
ENDCHAR
STARTCHAR U+1FCB
ENCODING 8139
SWIDTH 500 0
DWIDTH 7 0
BBX 7 14 0 -2
BITMAP 
c0
80
80
00
c6
c6
c6
fe
c6
c6
c6
c6
00
00
ENDCHAR
STARTCHAR U+1FCC
ENCODING 8140
SWIDTH 500 0
DWIDTH 7 0
BBX 7 14 0 -2
BITMAP 
00
00
00
c6
c6
c6
c6
fe
c6
c6
c6
c6
30
1c
ENDCHAR
STARTCHAR U+1FCD
ENCODING 8141
SWIDTH 500 0
DWIDTH 7 0
BBX 7 14 0 -2
BITMAP 
e8
68
cc
00
00
00
00
00
00
00
00
00
00
00
ENDCHAR
STARTCHAR U+1FCE
ENCODING 8142
SWIDTH 500 0
DWIDTH 7 0
BBX 7 14 0 -2
BITMAP 
ec
68
d8
00
00
00
00
00
00
00
00
00
00
00
ENDCHAR
STARTCHAR U+1FCF
ENCODING 8143
SWIDTH 500 0
DWIDTH 7 0
BBX 7 14 0 -2
BITMAP 
76
dc
00
38
18
30
00
00
00
00
00
00
00
00
ENDCHAR
STARTCHAR U+1FD0
ENCODING 8144
SWIDTH 500 0
DWIDTH 7 0
BBX 7 14 0 -2
BITMAP 
00
cc
cc
78
00
30
30
30
30
30
30
1c
00
00
ENDCHAR
STARTCHAR U+1FD1
ENCODING 8145
SWIDTH 500 0
DWIDTH 7 0
BBX 7 14 0 -2
BITMAP 
00
00
fc
00
00
30
30
30
30
30
30
1c
00
00
ENDCHAR
STARTCHAR U+1FD2
ENCODING 8146
SWIDTH 500 0
DWIDTH 7 0
BBX 7 14 0 -2
BITMAP 
60
60
30
00
ec
00
30
30
30
30
30
1c
00
00
ENDCHAR
STARTCHAR U+1FD3
ENCODING 8147
SWIDTH 500 0
DWIDTH 7 0
BBX 7 14 0 -2
BITMAP 
18
30
30
00
ec
00
30
30
30
30
30
1c
00
00
ENDCHAR
STARTCHAR U+1FD6
ENCODING 8150
SWIDTH 500 0
DWIDTH 7 0
BBX 7 14 0 -2
BITMAP 
00
00
76
dc
00
30
30
30
30
30
30
1c
00
00
ENDCHAR
STARTCHAR U+1FD7
ENCODING 8151
SWIDTH 500 0
DWIDTH 7 0
BBX 7 14 0 -2
BITMAP 
76
dc
00
ee
00
30
30
30
30
30
30
1c
00
00
ENDCHAR
STARTCHAR U+1FD8
ENCODING 8152
SWIDTH 500 0
DWIDTH 7 0
BBX 7 14 0 -2
BITMAP 
cc
cc
78
00
fc
30
30
30
30
30
30
fc
00
00
ENDCHAR
STARTCHAR U+1FD9
ENCODING 8153
SWIDTH 500 0
DWIDTH 7 0
BBX 7 14 0 -2
BITMAP 
00
fc
00
00
fc
30
30
30
30
30
30
fc
00
00
ENDCHAR
STARTCHAR U+1FDA
ENCODING 8154
SWIDTH 500 0
DWIDTH 7 0
BBX 7 14 0 -2
BITMAP 
80
80
c0
00
fc
30
30
30
30
30
30
fc
00
00
ENDCHAR
STARTCHAR U+1FDB
ENCODING 8155
SWIDTH 500 0
DWIDTH 7 0
BBX 7 14 0 -2
BITMAP 
c0
80
80
00
fc
30
30
30
30
30
30
fc
00
00
ENDCHAR
STARTCHAR U+1FDD
ENCODING 8157
SWIDTH 500 0
DWIDTH 7 0
BBX 7 14 0 -2
BITMAP 
e8
d8
6c
00
00
00
00
00
00
00
00
00
00
00
ENDCHAR
STARTCHAR U+1FDE
ENCODING 8158
SWIDTH 500 0
DWIDTH 7 0
BBX 7 14 0 -2
BITMAP 
ec
d8
68
00
00
00
00
00
00
00
00
00
00
00
ENDCHAR
STARTCHAR U+1FDF
ENCODING 8159
SWIDTH 500 0
DWIDTH 7 0
BBX 7 14 0 -2
BITMAP 
76
dc
00
38
30
18
00
00
00
00
00
00
00
00
ENDCHAR
STARTCHAR U+1FE0
ENCODING 8160
SWIDTH 500 0
DWIDTH 7 0
BBX 7 14 0 -2
BITMAP 
00
c6
c6
7c
00
c6
c6
c6
c6
c6
c6
7c
00
00
ENDCHAR
STARTCHAR U+1FE1
ENCODING 8161
SWIDTH 500 0
DWIDTH 7 0
BBX 7 14 0 -2
BITMAP 
00
00
7c
00
00
c6
c6
c6
c6
c6
c6
7c
00
00
ENDCHAR
STARTCHAR U+1FE2
ENCODING 8162
SWIDTH 500 0
DWIDTH 7 0
BBX 7 14 0 -2
BITMAP 
30
30
18
00
ee
00
c6
c6
c6
c6
c6
7c
00
00
ENDCHAR
STARTCHAR U+1FE3
ENCODING 8163
SWIDTH 500 0
DWIDTH 7 0
BBX 7 14 0 -2
BITMAP 
18
30
30
00
ee
00
c6
c6
c6
c6
c6
7c
00
00
ENDCHAR
STARTCHAR U+1FE4
ENCODING 8164
SWIDTH 500 0
DWIDTH 7 0
BBX 7 14 0 -2
BITMAP 
00
38
18
30
00
7c
c6
c6
c6
c6
e6
dc
c0
c0
ENDCHAR
STARTCHAR U+1FE5
ENCODING 8165
SWIDTH 500 0
DWIDTH 7 0
BBX 7 14 0 -2
BITMAP 
00
38
30
18
00
7c
c6
c6
c6
c6
e6
dc
c0
c0
ENDCHAR
STARTCHAR U+1FE6
ENCODING 8166
SWIDTH 500 0
DWIDTH 7 0
BBX 7 14 0 -2
BITMAP 
00
00
76
dc
00
c6
c6
c6
c6
c6
c6
7c
00
00
ENDCHAR
STARTCHAR U+1FE7
ENCODING 8167
SWIDTH 500 0
DWIDTH 7 0
BBX 7 14 0 -2
BITMAP 
76
dc
00
ee
00
c6
c6
c6
c6
c6
c6
7c
00
00
ENDCHAR
STARTCHAR U+1FE8
ENCODING 8168
SWIDTH 500 0
DWIDTH 7 0
BBX 7 14 0 -2
BITMAP 
cc
cc
78
00
cc
cc
cc
68
30
30
30
30
00
00
ENDCHAR
STARTCHAR U+1FE9
ENCODING 8169
SWIDTH 500 0
DWIDTH 7 0
BBX 7 14 0 -2
BITMAP 
00
fc
00
00
cc
cc
cc
68
30
30
30
30
00
00
ENDCHAR
STARTCHAR U+1FEA
ENCODING 8170
SWIDTH 500 0
DWIDTH 7 0
BBX 7 14 0 -2
BITMAP 
80
80
c0
00
cc
cc
cc
68
30
30
30
30
00
00
ENDCHAR
STARTCHAR U+1FEB
ENCODING 8171
SWIDTH 500 0
DWIDTH 7 0
BBX 7 14 0 -2
BITMAP 
c0
80
80
00
cc
cc
cc
68
30
30
30
30
00
00
ENDCHAR
STARTCHAR U+1FEC
ENCODING 8172
SWIDTH 500 0
DWIDTH 7 0
BBX 7 14 0 -2
BITMAP 
c0
80
c0
00
fc
c6
c6
fc
c0
c0
c0
c0
00
00
ENDCHAR
STARTCHAR U+1FED
ENCODING 8173
SWIDTH 500 0
DWIDTH 7 0
BBX 7 14 0 -2
BITMAP 
60
60
30
00
ec
00
00
00
00
00
00
00
00
00
ENDCHAR
STARTCHAR U+1FEE
ENCODING 8174
SWIDTH 500 0
DWIDTH 7 0
BBX 7 14 0 -2
BITMAP 
18
30
30
00
ec
00
00
00
00
00
00
00
00
00
ENDCHAR
STARTCHAR U+1FEF
ENCODING 8175
SWIDTH 500 0
DWIDTH 7 0
BBX 7 14 0 -2
BITMAP 
30
30
18
00
00
00
00
00
00
00
00
00
00
00
ENDCHAR
STARTCHAR U+1FF2
ENCODING 8178
SWIDTH 500 0
DWIDTH 7 0
BBX 7 14 0 -2
BITMAP 
00
30
30
18
00
6c
c6
c6
c6
da
da
74
30
38
ENDCHAR
STARTCHAR U+1FF3
ENCODING 8179
SWIDTH 500 0
DWIDTH 7 0
BBX 7 14 0 -2
BITMAP 
00
00
00
00
00
6c
c6
c6
c6
da
da
74
30
38
ENDCHAR
STARTCHAR U+1FF4
ENCODING 8180
SWIDTH 500 0
DWIDTH 7 0
BBX 7 14 0 -2
BITMAP 
00
18
30
30
00
6c
c6
c6
c6
da
da
74
30
38
ENDCHAR
STARTCHAR U+1FF6
ENCODING 8182
SWIDTH 500 0
DWIDTH 7 0
BBX 7 14 0 -2
BITMAP 
00
00
76
dc
00
6c
c6
c6
c6
da
da
74
00
00
ENDCHAR
STARTCHAR U+1FF7
ENCODING 8183
SWIDTH 500 0
DWIDTH 7 0
BBX 7 14 0 -2
BITMAP 
00
00
76
dc
00
6c
c6
c6
c6
da
da
74
30
38
ENDCHAR
STARTCHAR U+1FF8
ENCODING 8184
SWIDTH 500 0
DWIDTH 7 0
BBX 7 14 0 -2
BITMAP 
80
80
c0
00
7c
c6
c6
c6
c6
c6
c6
7c
00
00
ENDCHAR
STARTCHAR U+1FF9
ENCODING 8185
SWIDTH 500 0
DWIDTH 7 0
BBX 7 14 0 -2
BITMAP 
c0
80
80
00
7c
c6
c6
c6
c6
c6
c6
7c
00
00
ENDCHAR
STARTCHAR U+1FFA
ENCODING 8186
SWIDTH 500 0
DWIDTH 7 0
BBX 7 14 0 -2
BITMAP 
80
80
c0
00
7c
c6
c6
c6
c6
6c
38
fe
00
00
ENDCHAR
STARTCHAR U+1FFB
ENCODING 8187
SWIDTH 500 0
DWIDTH 7 0
BBX 7 14 0 -2
BITMAP 
c0
80
80
00
7c
c6
c6
c6
c6
6c
38
fe
00
00
ENDCHAR
STARTCHAR U+1FFC
ENCODING 8188
SWIDTH 500 0
DWIDTH 7 0
BBX 7 14 0 -2
BITMAP 
00
00
00
7c
c6
c6
c6
c6
c6
6c
38
fe
30
1c
ENDCHAR
STARTCHAR U+1FFD
ENCODING 8189
SWIDTH 500 0
DWIDTH 7 0
BBX 7 14 0 -2
BITMAP 
18
30
30
00
00
00
00
00
00
00
00
00
00
00
ENDCHAR
STARTCHAR U+1FFE
ENCODING 8190
SWIDTH 500 0
DWIDTH 7 0
BBX 7 14 0 -2
BITMAP 
38
30
18
00
00
00
00
00
00
00
00
00
00
00
ENDCHAR
STARTCHAR U+2010
ENCODING 8208
SWIDTH 500 0
DWIDTH 7 0
BBX 7 14 0 -2
BITMAP 
00
00
00
00
00
00
00
78
00
00
00
00
00
00
ENDCHAR
STARTCHAR U+2012
ENCODING 8210
SWIDTH 500 0
DWIDTH 7 0
BBX 7 14 0 -2
BITMAP 
00
00
00
00
00
00
00
fc
00
00
00
00
00
00
ENDCHAR
STARTCHAR U+2013
ENCODING 8211
SWIDTH 500 0
DWIDTH 7 0
BBX 7 14 0 -2
BITMAP 
00
00
00
00
00
00
00
78
00
00
00
00
00
00
ENDCHAR
STARTCHAR U+2014
ENCODING 8212
SWIDTH 500 0
DWIDTH 7 0
BBX 7 14 0 -2
BITMAP 
00
00
00
00
00
00
00
fc
00
00
00
00
00
00
ENDCHAR
STARTCHAR U+2015
ENCODING 8213
SWIDTH 500 0
DWIDTH 7 0
BBX 7 14 0 -2
BITMAP 
00
00
00
00
00
00
00
fe
00
00
00
00
00
00
ENDCHAR
STARTCHAR U+2016
ENCODING 8214
SWIDTH 500 0
DWIDTH 7 0
BBX 7 14 0 -2
BITMAP 
00
00
68
68
68
68
68
68
68
68
68
68
00
00
ENDCHAR
STARTCHAR U+2017
ENCODING 8215
SWIDTH 500 0
DWIDTH 7 0
BBX 7 14 0 -2
BITMAP 
00
00
00
00
00
00
00
00
00
00
00
fe
00
fe
ENDCHAR
STARTCHAR U+2018
ENCODING 8216
SWIDTH 500 0
DWIDTH 7 0
BBX 7 14 0 -2
BITMAP 
00
00
18
30
30
38
00
00
00
00
00
00
00
00
ENDCHAR
STARTCHAR U+2019
ENCODING 8217
SWIDTH 500 0
DWIDTH 7 0
BBX 7 14 0 -2
BITMAP 
00
00
38
18
18
30
00
00
00
00
00
00
00
00
ENDCHAR
STARTCHAR U+201A
ENCODING 8218
SWIDTH 500 0
DWIDTH 7 0
BBX 7 14 0 -2
BITMAP 
00
00
00
00
00
00
00
00
00
00
38
18
18
30
ENDCHAR
STARTCHAR U+201B
ENCODING 8219
SWIDTH 500 0
DWIDTH 7 0
BBX 7 14 0 -2
BITMAP 
00
00
38
30
30
18
00
00
00
00
00
00
00
00
ENDCHAR
STARTCHAR U+201C
ENCODING 8220
SWIDTH 500 0
DWIDTH 7 0
BBX 7 14 0 -2
BITMAP 
00
00
6c
d8
d8
ec
00
00
00
00
00
00
00
00
ENDCHAR
STARTCHAR U+201D
ENCODING 8221
SWIDTH 500 0
DWIDTH 7 0
BBX 7 14 0 -2
BITMAP 
00
00
ec
6c
6c
d8
00
00
00
00
00
00
00
00
ENDCHAR
STARTCHAR U+201E
ENCODING 8222
SWIDTH 500 0
DWIDTH 7 0
BBX 7 14 0 -2
BITMAP 
00
00
00
00
00
00
00
00
00
00
ec
6c
6c
d8
ENDCHAR
STARTCHAR U+201F
ENCODING 8223
SWIDTH 500 0
DWIDTH 7 0
BBX 7 14 0 -2
BITMAP 
00
00
ec
d8
6c
00
00
00
00
00
00
00
00
00
ENDCHAR
STARTCHAR U+2020
ENCODING 8224
SWIDTH 500 0
DWIDTH 7 0
BBX 7 14 0 -2
BITMAP 
00
30
78
30
fc
30
30
30
30
30
30
30
00
00
ENDCHAR
STARTCHAR U+2021
ENCODING 8225
SWIDTH 500 0
DWIDTH 7 0
BBX 7 14 0 -2
BITMAP 
00
30
78
30
fc
30
30
30
fc
30
78
30
00
00
ENDCHAR
STARTCHAR U+2022
ENCODING 8226
SWIDTH 500 0
DWIDTH 7 0
BBX 7 14 0 -2
BITMAP 
00
00
00
00
00
78
fc
fc
fc
78
00
00
00
00
ENDCHAR
STARTCHAR U+2023
ENCODING 8227
SWIDTH 500 0
DWIDTH 7 0
BBX 7 14 0 -2
BITMAP 
00
00
00
00
60
70
78
7c
78
70
60
00
00
00
ENDCHAR
STARTCHAR U+2024
ENCODING 8228
SWIDTH 500 0
DWIDTH 7 0
BBX 7 14 0 -2
BITMAP 
00
00
00
00
00
00
00
00
00
00
00
30
00
00
ENDCHAR
STARTCHAR U+2025
ENCODING 8229
SWIDTH 500 0
DWIDTH 7 0
BBX 7 14 0 -2
BITMAP 
00
00
00
00
00
00
00
00
00
00
00
6c
00
00
ENDCHAR
STARTCHAR U+2026
ENCODING 8230
SWIDTH 500 0
DWIDTH 7 0
BBX 7 14 0 -2
BITMAP 
00
00
00
00
00
00
00
00
00
00
d4
d4
00
00
ENDCHAR
STARTCHAR U+2027
ENCODING 8231
SWIDTH 500 0
DWIDTH 7 0
BBX 7 14 0 -2
BITMAP 
00
00
00
00
00
00
00
38
38
00
00
00
00
00
ENDCHAR
STARTCHAR U+2028
ENCODING 8232
SWIDTH 500 0
DWIDTH 7 0
BBX 7 14 0 -2
BITMAP 
00
00
00
00
00
cc
d8
dc
cc
e8
00
00
00
00
ENDCHAR
STARTCHAR U+2029
ENCODING 8233
SWIDTH 500 0
DWIDTH 7 0
BBX 7 14 0 -2
BITMAP 
00
00
00
00
00
ec
e8
ec
cc
d8
00
00
00
00
ENDCHAR
STARTCHAR U+2030
ENCODING 8240
SWIDTH 500 0
DWIDTH 7 0
BBX 7 14 0 -2
BITMAP 
00
00
00
cc
ac
a8
d0
60
74
ea
aa
b4
00
00
ENDCHAR
STARTCHAR U+2031
ENCODING 8241
SWIDTH 500 0
DWIDTH 7 0
BBX 7 14 0 -2
BITMAP 
00
00
00
c0
ac
a8
d0
60
d4
aa
aa
d4
00
00
ENDCHAR
STARTCHAR U+2032
ENCODING 8242
SWIDTH 500 0
DWIDTH 7 0
BBX 7 14 0 -2
BITMAP 
00
00
1c
18
30
00
00
00
00
00
00
00
00
00
ENDCHAR
STARTCHAR U+2033
ENCODING 8243
SWIDTH 500 0
DWIDTH 7 0
BBX 7 14 0 -2
BITMAP 
00
00
76
6c
d8
00
00
00
00
00
00
00
00
00
ENDCHAR
STARTCHAR U+2035
ENCODING 8245
SWIDTH 500 0
DWIDTH 7 0
BBX 7 14 0 -2
BITMAP 
00
70
30
38
00
00
00
00
00
00
00
00
00
00
ENDCHAR
STARTCHAR U+2038
ENCODING 8248
SWIDTH 500 0
DWIDTH 7 0
BBX 7 14 0 -2
BITMAP 
00
00
00
00
00
00
00
00
00
30
68
cc
00
00
ENDCHAR
STARTCHAR U+2039
ENCODING 8249
SWIDTH 500 0
DWIDTH 7 0
BBX 7 14 0 -2
BITMAP 
00
00
00
00
0c
18
30
60
30
18
0c
00
00
00
ENDCHAR
STARTCHAR U+203A
ENCODING 8250
SWIDTH 500 0
DWIDTH 7 0
BBX 7 14 0 -2
BITMAP 
00
00
00
00
60
30
18
0c
18
30
60
00
00
00
ENDCHAR
STARTCHAR U+203B
ENCODING 8251
SWIDTH 500 0
DWIDTH 7 0
BBX 7 14 0 -2
BITMAP 
00
00
00
00
b6
cc
68
b6
68
cc
b6
00
00
00
ENDCHAR
STARTCHAR U+203C
ENCODING 8252
SWIDTH 500 0
DWIDTH 7 0
BBX 7 14 0 -2
BITMAP 
00
00
00
6c
6c
6c
6c
6c
6c
00
6c
6c
00
00
ENDCHAR
STARTCHAR U+203D
ENCODING 8253
SWIDTH 500 0
DWIDTH 7 0
BBX 7 14 0 -2
BITMAP 
00
00
00
7c
da
da
1c
18
18
00
18
18
00
00
ENDCHAR
STARTCHAR U+203E
ENCODING 8254
SWIDTH 500 0
DWIDTH 7 0
BBX 7 14 0 -2
BITMAP 
fc
00
00
00
00
00
00
00
00
00
00
00
00
00
ENDCHAR
STARTCHAR U+203F
ENCODING 8255
SWIDTH 500 0
DWIDTH 7 0
BBX 7 14 0 -2
BITMAP 
00
00
00
00
00
00
00
00
00
00
c6
7c
00
00
ENDCHAR
STARTCHAR U+2040
ENCODING 8256
SWIDTH 500 0
DWIDTH 7 0
BBX 7 14 0 -2
BITMAP 
7c
c6
00
00
00
00
00
00
00
00
00
00
00
00
ENDCHAR
STARTCHAR U+2041
ENCODING 8257
SWIDTH 500 0
DWIDTH 7 0
BBX 7 14 0 -2
BITMAP 
00
00
00
00
00
00
30
30
60
60
d0
d0
00
00
ENDCHAR
STARTCHAR U+2042
ENCODING 8258
SWIDTH 500 0
DWIDTH 7 0
BBX 7 14 0 -2
BITMAP 
00
00
30
78
30
78
30
cc
ee
cc
ee
cc
00
00
ENDCHAR
STARTCHAR U+2043
ENCODING 8259
SWIDTH 500 0
DWIDTH 7 0
BBX 7 14 0 -2
BITMAP 
00
00
00
00
00
00
00
78
78
00
00
00
00
00
ENDCHAR
STARTCHAR U+2044
ENCODING 8260
SWIDTH 500 0
DWIDTH 7 0
BBX 7 14 0 -2
BITMAP 
00
00
00
00
18
18
30
30
60
60
c0
c0
00
00
ENDCHAR
STARTCHAR U+2045
ENCODING 8261
SWIDTH 500 0
DWIDTH 7 0
BBX 7 14 0 -2
BITMAP 
00
00
00
78
60
60
60
78
60
60
60
78
00
00
ENDCHAR
STARTCHAR U+2046
ENCODING 8262
SWIDTH 500 0
DWIDTH 7 0
BBX 7 14 0 -2
BITMAP 
00
00
00
78
18
18
18
78
18
18
18
78
00
00
ENDCHAR
STARTCHAR U+2048
ENCODING 8264
SWIDTH 500 0
DWIDTH 7 0
BBX 7 14 0 -2
BITMAP 
00
00
00
ec
b4
34
34
6c
6c
00
6c
6c
00
00
ENDCHAR
STARTCHAR U+2049
ENCODING 8265
SWIDTH 500 0
DWIDTH 7 0
BBX 7 14 0 -2
BITMAP 
00
00
00
dc
d6
c6
c6
cc
cc
00
cc
cc
00
00
ENDCHAR
STARTCHAR U+204A
ENCODING 8266
SWIDTH 500 0
DWIDTH 7 0
BBX 7 14 0 -2
BITMAP 
00
00
00
00
00
fc
0c
18
18
30
30
00
00
00
ENDCHAR
STARTCHAR U+204B
ENCODING 8267
SWIDTH 500 0
DWIDTH 7 0
BBX 7 14 0 -2
BITMAP 
00
00
fc
de
de
de
de
dc
d0
d0
d0
d0
d0
d0
ENDCHAR
STARTCHAR U+204C
ENCODING 8268
SWIDTH 500 0
DWIDTH 7 0
BBX 7 14 0 -2
BITMAP 
00
00
00
00
7e
fa
fa
fa
fa
7e
00
00
00
00
ENDCHAR
STARTCHAR U+204D
ENCODING 8269
SWIDTH 500 0
DWIDTH 7 0
BBX 7 14 0 -2
BITMAP 
00
00
00
00
fc
de
de
de
de
fc
00
00
00
00
ENDCHAR
STARTCHAR U+2074
ENCODING 8308
SWIDTH 500 0
DWIDTH 7 0
BBX 7 14 0 -2
BITMAP 
18
38
38
68
78
18
00
00
00
00
00
00
00
00
ENDCHAR
STARTCHAR U+207A
ENCODING 8314
SWIDTH 500 0
DWIDTH 7 0
BBX 7 14 0 -2
BITMAP 
00
00
30
30
fc
30
30
00
00
00
00
00
00
00
ENDCHAR
STARTCHAR U+207B
ENCODING 8315
SWIDTH 500 0
DWIDTH 7 0
BBX 7 14 0 -2
BITMAP 
00
00
00
00
fc
00
00
00
00
00
00
00
00
00
ENDCHAR
STARTCHAR U+207F
ENCODING 8319
SWIDTH 500 0
DWIDTH 7 0
BBX 7 14 0 -2
BITMAP 
00
68
74
6c
6c
6c
6c
6c
00
00
00
00
00
00
ENDCHAR
STARTCHAR U+2081
ENCODING 8321
SWIDTH 500 0
DWIDTH 7 0
BBX 7 14 0 -2
BITMAP 
00
00
00
00
00
00
00
18
38
18
18
18
18
00
ENDCHAR
STARTCHAR U+2082
ENCODING 8322
SWIDTH 500 0
DWIDTH 7 0
BBX 7 14 0 -2
BITMAP 
00
00
00
00
00
00
00
38
38
18
38
30
38
00
ENDCHAR
STARTCHAR U+2083
ENCODING 8323
SWIDTH 500 0
DWIDTH 7 0
BBX 7 14 0 -2
BITMAP 
00
00
00
00
00
00
00
38
18
18
18
68
38
00
ENDCHAR
STARTCHAR U+2084
ENCODING 8324
SWIDTH 500 0
DWIDTH 7 0
BBX 7 14 0 -2
BITMAP 
00
00
00
00
00
00
00
18
38
38
68
78
18
00
ENDCHAR
STARTCHAR U+208A
ENCODING 8330
SWIDTH 500 0
DWIDTH 7 0
BBX 7 14 0 -2
BITMAP 
00
00
00
00
00
00
00
00
00
30
30
fc
30
30
ENDCHAR
STARTCHAR U+208B
ENCODING 8331
SWIDTH 500 0
DWIDTH 7 0
BBX 7 14 0 -2
BITMAP 
00
00
00
00
00
00
00
00
00
00
fc
00
00
00
ENDCHAR
STARTCHAR U+20A0
ENCODING 8352
SWIDTH 500 0
DWIDTH 7 0
BBX 7 14 0 -2
BITMAP 
00
00
00
70
d8
c0
c0
de
70
3c
30
3e
00
00
ENDCHAR
STARTCHAR U+20A1
ENCODING 8353
SWIDTH 500 0
DWIDTH 7 0
BBX 7 14 0 -2
BITMAP 
00
00
00
3c
6e
d8
d6
ec
d8
d0
66
dc
00
00
ENDCHAR
STARTCHAR U+20A2
ENCODING 8354
SWIDTH 500 0
DWIDTH 7 0
BBX 7 14 0 -2
BITMAP 
00
00
00
3c
66
c0
d6
d8
d0
d0
76
3c
00
00
ENDCHAR
STARTCHAR U+20A3
ENCODING 8355
SWIDTH 500 0
DWIDTH 7 0
BBX 7 14 0 -2
BITMAP 
00
00
00
7e
60
60
60
f8
60
f8
60
60
00
00
ENDCHAR
STARTCHAR U+20A4
ENCODING 8356
SWIDTH 500 0
DWIDTH 7 0
BBX 7 14 0 -2
BITMAP 
00
00
00
38
6c
60
f8
60
f8
60
78
ec
00
00
ENDCHAR
STARTCHAR U+20A5
ENCODING 8357
SWIDTH 500 0
DWIDTH 7 0
BBX 7 14 0 -2
BITMAP 
00
00
00
00
00
ea
d4
dc
f4
d4
d4
cc
00
00
ENDCHAR
STARTCHAR U+20A6
ENCODING 8358
SWIDTH 500 0
DWIDTH 7 0
BBX 7 14 0 -2
BITMAP 
00
00
00
6c
6c
74
f6
7c
ee
6c
6c
6c
00
00
ENDCHAR
STARTCHAR U+20A7
ENCODING 8359
SWIDTH 500 0
DWIDTH 7 0
BBX 7 14 0 -2
BITMAP 
00
00
00
f8
cc
fe
cc
f8
c0
c0
c0
c0
00
00
ENDCHAR
STARTCHAR U+20A8
ENCODING 8360
SWIDTH 500 0
DWIDTH 7 0
BBX 7 14 0 -2
BITMAP 
00
00
00
e0
d0
d0
d6
e8
d4
d6
d6
dc
00
00
ENDCHAR
STARTCHAR U+20A9
ENCODING 8361
SWIDTH 500 0
DWIDTH 7 0
BBX 7 14 0 -2
BITMAP 
00
00
00
cc
cc
cc
fe
d4
fe
ec
cc
cc
00
00
ENDCHAR
STARTCHAR U+20AA
ENCODING 8362
SWIDTH 500 0
DWIDTH 7 0
BBX 7 14 0 -2
BITMAP 
00
00
00
00
00
fa
da
da
da
da
d6
de
00
00
ENDCHAR
STARTCHAR U+20AB
ENCODING 8363
SWIDTH 500 0
DWIDTH 7 0
BBX 7 14 0 -2
BITMAP 
00
00
00
7a
06
7a
ce
c6
c6
c6
ce
7a
00
78
ENDCHAR
STARTCHAR U+20AC
ENCODING 8364
SWIDTH 500 0
DWIDTH 7 0
BBX 7 14 0 -2
BITMAP 
00
00
00
1c
36
60
fc
60
fc
60
36
1c
00
00
ENDCHAR
STARTCHAR U+20AD
ENCODING 8365
SWIDTH 500 0
DWIDTH 7 0
BBX 7 14 0 -2
BITMAP 
00
00
00
c6
cc
d8
d0
fc
d0
d8
cc
c6
00
00
ENDCHAR
STARTCHAR U+20AE
ENCODING 8366
SWIDTH 500 0
DWIDTH 7 0
BBX 7 14 0 -2
BITMAP 
00
00
00
fe
30
30
3c
f0
3c
f0
30
30
00
00
ENDCHAR
STARTCHAR U+20AF
ENCODING 8367
SWIDTH 500 0
DWIDTH 7 0
BBX 7 14 0 -2
BITMAP 
00
00
c0
f0
d8
cc
cc
cc
98
bc
f6
3c
30
60
ENDCHAR
STARTCHAR U+20D0
ENCODING 8400
SWIDTH 500 0
DWIDTH 7 0
BBX 7 14 0 -2
BITMAP 
60
fc
00
00
00
00
00
00
00
00
00
00
00
00
ENDCHAR
STARTCHAR U+20D1
ENCODING 8401
SWIDTH 500 0
DWIDTH 7 0
BBX 7 14 0 -2
BITMAP 
18
fc
00
00
00
00
00
00
00
00
00
00
00
00
ENDCHAR
STARTCHAR U+20D2
ENCODING 8402
SWIDTH 500 0
DWIDTH 7 0
BBX 7 14 0 -2
BITMAP 
00
30
30
30
30
30
30
30
30
30
30
30
30
00
ENDCHAR
STARTCHAR U+20D3
ENCODING 8403
SWIDTH 500 0
DWIDTH 7 0
BBX 7 14 0 -2
BITMAP 
00
00
00
00
30
30
30
30
30
30
30
30
30
00
ENDCHAR
STARTCHAR U+20D6
ENCODING 8406
SWIDTH 500 0
DWIDTH 7 0
BBX 7 14 0 -2
BITMAP 
60
fc
60
00
00
00
00
00
00
00
00
00
00
00
ENDCHAR
STARTCHAR U+20D7
ENCODING 8407
SWIDTH 500 0
DWIDTH 7 0
BBX 7 14 0 -2
BITMAP 
18
fc
18
00
00
00
00
00
00
00
00
00
00
00
ENDCHAR
STARTCHAR U+2100
ENCODING 8448
SWIDTH 500 0
DWIDTH 7 0
BBX 7 14 0 -2
BITMAP 
00
00
00
70
d6
d4
78
30
6e
d8
18
0e
00
00
ENDCHAR
STARTCHAR U+2101
ENCODING 8449
SWIDTH 500 0
DWIDTH 7 0
BBX 7 14 0 -2
BITMAP 
00
00
00
70
d6
d4
78
36
68
cc
06
1c
00
00
ENDCHAR
STARTCHAR U+2102
ENCODING 8450
SWIDTH 500 0
DWIDTH 7 0
BBX 7 14 0 -2
BITMAP 
00
00
00
7c
d6
d6
d0
d0
d0
d6
d6
7c
00
00
ENDCHAR
STARTCHAR U+2103
ENCODING 8451
SWIDTH 500 0
DWIDTH 7 0
BBX 7 14 0 -2
BITMAP 
c0
a0
c0
7c
c6
c6
c0
c0
c0
c6
c6
7c
00
00
ENDCHAR
STARTCHAR U+2105
ENCODING 8453
SWIDTH 500 0
DWIDTH 7 0
BBX 7 14 0 -2
BITMAP 
00
00
00
70
c6
cc
78
30
6c
da
1a
0c
00
00
ENDCHAR
STARTCHAR U+2106
ENCODING 8454
SWIDTH 500 0
DWIDTH 7 0
BBX 7 14 0 -2
BITMAP 
00
00
00
70
c6
cc
78
30
60
da
1a
0e
00
00
ENDCHAR
STARTCHAR U+2109
ENCODING 8457
SWIDTH 500 0
DWIDTH 7 0
BBX 7 14 0 -2
BITMAP 
00
3e
f0
f0
f0
3e
30
30
30
30
30
00
00
00
ENDCHAR
ENDFONT
